<svg xmlns="http://www.w3.org/2000/svg" width="578.207" height="338.053" viewBox="0 0 578.207 338.053">
  <g id="Hero_-_Illustratie_1" data-name="Hero - Illustratie_1" transform="translate(0 0.011)">
    <path id="Path_474" data-name="Path 474" d="M432.144,488.706c4.283-1.394,6.583-2.867,6.583-4.394,0-8.822-76.848-15.972-171.662-15.972C104.453,468.312.5,493.939.5,511.533.5,533.372,74.465,546.2,331.364,546.2c94.8,0,216-7.15,216-15.977,0-5.917-34.582-11.077-85.964-13.839,70.5-2.861,117.03-7.778,117.03-13.333C578.43,496.728,518.753,491.273,432.144,488.706Z" transform="translate(-0.222 -208.163)" fill="#f5f5f9"/>
    <path id="Path_475" data-name="Path 475" d="M774.371,227.516c-7.222,6.528-4.083,15.433-4.083,15.433a31.894,31.894,0,0,0-9.689-2.222c-6.1-.556-12.222,12.916-12.222,12.916l3.972,18.288-7.866-3.544C735.655,329.558,766.6,376.262,766.6,376.262a31.561,31.561,0,0,0,3.228-11.372c1.039-14.766-11.316-24.594-10.472-51.449,2.011-63.332,36.266-41.416,40.3-66.4,3.683-22.833,15.555-40.943,16.194-41.9a.115.115,0,0,0,0-.039h0C800,213.761,781.6,220.988,774.371,227.516Z" transform="translate(-330.188 -91.164)" fill="#7c7cd3"/>
    <path id="Path_476" data-name="Path 476" d="M797.707,403.094c-6.522,7.022-31.666,50.182-9.233,50.182,7.6,0,21.666-18.566,32.06-31.56,9.005-11.266,22.583-9.578,22.583-9.578S811.54,388.2,797.707,403.094Z" transform="translate(-346.386 -176.994)" fill="#4545c1"/>
    <path id="Path_477" data-name="Path 477" d="M870.716,258.655c-15.194-.833-25.16,13.889-25.16,13.889s.822-6.505,7.417-14.405c-.911.106-29.966,4.1-32.221,7.117s-6.666,15.111-6.666,15.111-4.355-8.478-3.711-10.989S757.93,310.16,775.752,384.93c0,0,5.483-6.389,5.478-6.405-1.478-4.767-6.539-38.188,26.522-63.121,10.25-7.733,29.571-10.105,47.221-20.338s22.544-10.394,50.915-43.888l.083-.078S885.927,259.5,870.716,258.655Z" transform="translate(-343.163 -111.609)" fill="#7171d0"/>
    <path id="Path_478" data-name="Path 478" d="M573.436,433.68c-10.033,3.161-31.982,13.127-41.666,32.632,0,0,22.7-27.744,55.1-27.744,27.9,0,66.843,18.566,70.476,33.749l11.294-9.85S627.529,416.669,573.436,433.68Z" transform="translate(-236.35 -191.074)" fill="#5656c7"/>
    <path id="Path_479" data-name="Path 479" d="M764.711,290.79c-3.75,26.3,4.161,59.576,9.622,72.848,1.044-14.766-6.555-23.333-5.711-50.165,2.011-63.332,36.266-41.416,40.3-66.4,3.683-22.833,15.555-40.943,16.194-41.9-.905.933-17.1,20.194-25.127,38.238C790.627,264.441,769.439,257.558,764.711,290.79Z" transform="translate(-339.45 -91.195)" fill="#5656c7"/>
    <path id="Path_480" data-name="Path 480" d="M605.331,463.454c-9.039,2.85-21.344,10.722-18.677,23.488-.356-2.861-.161-14.355,25.427-16.883,23.516-2.322,57.26,10.555,65.615,24.272h3.983l6.667-7.778S651.8,448.827,605.331,463.454Z" transform="translate(-260.579 -204.493)" fill="#7c7cd3"/>
    <path id="Path_481" data-name="Path 481" d="M587.067,509.08c-.056-.222-.072-.428-.117-.65a5.937,5.937,0,0,0,.117.65Z" transform="translate(-260.875 -225.981)" fill="#4af6d1"/>
    <path id="Path_482" data-name="Path 482" d="M619.76,374.873s17.277-1.35,28,13.422c12.372,17.038,42.06,51.693,51.665,51.693,29.444,0-13.889-64.654-21.716-73.92C661.092,346.424,619.76,374.873,619.76,374.873Z" transform="translate(-275.458 -159.633)" fill="#7c7cd3"/>
    <path id="Path_483" data-name="Path 483" d="M766.7,499.618h31.833c-4.683-3.944-6.944-19.283,0-27.638C798.532,471.991,766.494,482.424,766.7,499.618Z" transform="translate(-340.766 -209.781)" fill="#4545c1"/>
    <path id="Path_484" data-name="Path 484" d="M840.6,468.53c-12.777-8.139-26.394-3.578-31.11-4.022-48.221-4.583-52.221,24.394-54.96,31.4H761.5c1.861-14.366,31.838-36.771,44.671-11.872,13.672,26.522,42.566,33.8,42.566,33.8s.072-.139.1-.211C858.677,497.168,856.144,478.435,840.6,468.53Z" transform="translate(-335.358 -206.07)" fill="#7c7cd3"/>
    <path id="Path_485" data-name="Path 485" d="M884.57,468.005c-12.777-8.144-26.549-5.322-31.11-4.028,11.55.961,25,7.989,29.671,14.844,10.616,15.616,11.844,27.049,9.677,38.277C902.648,496.638,900.114,477.9,884.57,468.005Z" transform="translate(-379.328 -205.539)" fill="#5656c7"/>
    <path id="Path_486" data-name="Path 486" d="M856.182,387.354c-13.294-6.361-20.388.861-20.388.861-15.611-5.494-27.044,11.111-27.044,11.111s18.527-5.594,26.86,7.35S860.965,423.9,860.965,423.9C869.943,411.359,869.476,393.737,856.182,387.354Z" transform="translate(-359.456 -171.003)" fill="#7171d0"/>
    <path id="Path_487" data-name="Path 487" d="M877.818,387.354c-13.294-6.361-20.388.861-20.388.861s15.777.028,25.172,35.66C891.579,411.359,891.112,393.737,877.818,387.354Z" transform="translate(-381.092 -171.003)" fill="#5656c7"/>
    <path id="Path_488" data-name="Path 488" d="M635.6,344.748s-8.55-9.6-25.733-2.3-18.805,29.566-8.194,45.932c0,0,21.788-4.389,33.077-20.294s34.394-7.728,34.394-7.728S655.4,336.537,635.6,344.748Z" transform="translate(-264.464 -150.992)" fill="#7bc3f4"/>
    <path id="Path_489" data-name="Path 489" d="M609.873,342.448c-17.188,7.305-18.805,29.566-8.177,45.932,13.955-44.516,33.888-43.632,33.888-43.632S627.056,335.149,609.873,342.448Z" transform="translate(-264.465 -150.992)" fill="#5656c7"/>
    <path id="Path_490" data-name="Path 490" d="M790.9,349.993c3.433-11.083,10.639-23.694,25.227-34.527,10.316-7.65,29.571-10.105,47.221-20.338s22.544-10.394,50.915-43.888c-1.639,1.605-28.333,27.449-55.721,29.694C833.027,283.017,790.9,296.955,790.9,349.993Z" transform="translate(-351.522 -111.671)" fill="#5656c7"/>
    <path id="Path_491" data-name="Path 491" d="M165.909,314.564l3.255-15s-5-11.005-10-10.583a25.5,25.5,0,0,0-7.95,1.8s2.583-7.305-3.333-12.655-21.016-11.277-34.021-18.366h0v.028c.517.789,10.255,15.638,13.277,34.355,3.333,20.477,31.388,2.505,33.038,54.443.694,22.016-9.444,30.071-8.583,42.177a25.838,25.838,0,0,0,2.644,9.322s25.372-38.288,18.138-88.414Z" transform="translate(-50.606 -115.458)" fill="#7c7cd3"/>
    <path id="Path_492" data-name="Path 492" d="M97.51,429.487s11.111-1.383,18.505,7.855c8.511,10.65,20.061,25.872,26.288,25.872,18.411,0-2.222-35.382-7.572-41.138C123.393,409.859,97.51,429.487,97.51,429.487Z" transform="translate(-43.339 -185.82)" fill="#4545c1"/>
    <path id="Path_493" data-name="Path 493" d="M78.331,312.448c.556,2.056-3.033,9.011-3.033,9.011s-3.605-9.872-5.478-12.383-25.627-5.761-26.372-5.839c5.405,6.478,6.078,11.811,6.078,11.811s-8.172-12.077-20.638-11.394S0,297.46,0,297.46l.067.067c23.266,27.455,27.3,27.6,41.738,35.971S72.1,343.837,80.5,350.164c27.1,20.444,22.955,47.838,21.744,51.743l4.489,5.255C121.347,345.881,77.815,310.41,78.331,312.448Z" transform="translate(0 -132.214)" fill="#7171d0"/>
    <path id="Path_494" data-name="Path 494" d="M270.661,447.144c-44.349-13.95-78.031,23.6-78.031,23.6l9.255,8.072c2.978-12.444,34.9-27.666,57.776-27.666,26.555,0,45.171,22.744,45.171,22.744C296.883,457.905,278.878,449.733,270.661,447.144Z" transform="translate(-85.616 -197.362)" fill="#5656c7"/>
    <path id="Path_495" data-name="Path 495" d="M134.441,291.17c-6.594-14.805-19.866-30.594-20.611-31.36.517.789,10.255,15.638,13.277,34.355,3.333,20.477,31.388,2.505,33.038,54.443.694,22.016-5.555,29.016-4.683,41.11,4.478-10.877,10.966-38.149,7.889-59.715C159.479,302.759,142.1,308.4,134.441,291.17Z" transform="translate(-50.593 -115.48)" fill="#5656c7"/>
    <path id="Path_496" data-name="Path 496" d="M267.315,471.548c-38.093-11.994-68.065,18.927-68.065,18.927l5.461,6.383H208c6.85-11.25,34.516-21.8,53.788-19.894,20.977,2.072,21.138,11.489,20.844,13.839C284.814,480.343,274.726,473.9,267.315,471.548Z" transform="translate(-88.558 -208.36)" fill="#7c7cd3"/>
    <path id="Path_497" data-name="Path 497" d="M349.254,508.42c-.039.178-.05.35-.094.556A4.951,4.951,0,0,0,349.254,508.42Z" transform="translate(-155.187 -225.977)" fill="#4af6d1"/>
    <path id="Path_498" data-name="Path 498" d="M216.023,391.712c-6.428,7.594-41.932,60.6-17.777,60.6,7.883,0,32.221-28.41,42.36-42.377,8.8-12.116,22.955-11.005,22.955-11.005S229.662,375.6,216.023,391.712Z" transform="translate(-84.416 -171.584)" fill="#7c7cd3"/>
    <path id="Path_499" data-name="Path 499" d="M155,478.54c5.689,6.85,3.839,19.444,0,22.655h26.11C181.266,487.129,155,478.54,155,478.54Z" transform="translate(-68.891 -212.696)" fill="#4545c1"/>
    <path id="Path_500" data-name="Path 500" d="M101.2,472.427c-3.85.367-15-3.372-25.483,3.306-12.777,8.116-14.816,23.449-6.772,40.249a1.668,1.668,0,0,1,.083.172s23.688-5.972,34.894-27.716c10.522-20.411,35.094-2.044,36.621,9.733h5.717C144,492.426,140.74,468.666,101.2,472.427Z" transform="translate(-28.521 -209.661)" fill="#7c7cd3"/>
    <path id="Path_501" data-name="Path 501" d="M75.764,475.278c-12.777,8.116-14.816,23.449-6.772,40.249-1.772-9.205-.767-18.583,7.933-31.383,3.828-5.622,14.861-11.378,24.322-12.172C97.5,470.917,86.23,468.6,75.764,475.278Z" transform="translate(-28.543 -209.218)" fill="#5656c7"/>
    <path id="Path_502" data-name="Path 502" d="M107.1,409.88s-5.817-5.955-16.716-.722S79.1,428.835,86.47,439.113c0,0,13.955-3.494,20.788-14.111s22.016-6.028,22.016-6.028S119.9,405.375,107.1,409.88Z" transform="translate(-36.216 -180.902)" fill="#7171d0"/>
    <path id="Path_503" data-name="Path 503" d="M90.387,409.158c-10.9,5.233-11.283,19.677-3.917,29.955C94.17,409.9,107.1,409.88,107.1,409.88S101.286,403.925,90.387,409.158Z" transform="translate(-36.216 -180.902)" fill="#5656c7"/>
    <path id="Path_504" data-name="Path 504" d="M281.911,372.351c-14.089-5.989-21.111,1.883-21.111,1.883-16.233-6.744-27.51,12.777-27.51,12.777s18.944-6.666,28.2,6.339,27.11,16.638,27.11,16.638C297.327,396.584,296,378.335,281.911,372.351Z" transform="translate(-103.688 -164.501)" fill="#7171d0"/>
    <path id="Path_505" data-name="Path 505" d="M303.921,372.351c-14.089-5.989-21.111,1.883-21.111,1.883s16.361-.722,27.777,35.771C319.337,396.584,318.009,378.335,303.921,372.351Z" transform="translate(-125.697 -164.501)" fill="#5656c7"/>
    <path id="Path_506" data-name="Path 506" d="M45.8,321.924c-22.416-1.844-44.338-23-45.682-24.344,23.266,27.455,27.3,27.6,41.738,35.971s30.244,10.405,38.7,16.666c11.961,8.889,17.872,19.222,20.683,28.333C101.24,335.035,66.718,323.629,45.8,321.924Z" transform="translate(-0.053 -132.267)" fill="#5656c7"/>
    <path id="Path_507" data-name="Path 507" d="M388.27,507.95a4.939,4.939,0,0,0,4.939,4.939h55.915V503H393.209a4.939,4.939,0,0,0-4.939,4.95Z" transform="translate(-172.57 -223.568)" fill="#29293d"/>
    <path id="Path_508" data-name="Path 508" d="M501.563,423H445.142l-1.817,18.811A9.572,9.572,0,0,0,446.1,449.5L464,467.443h54.676l-17.838-21.5Z" transform="translate(-197.021 -188.011)" fill="#29293d"/>
    <path id="Path_509" data-name="Path 509" d="M445.2,431.234h56.96l.256-8.244H445.994Z" transform="translate(-197.873 -188.007)" fill="#29293d"/>
    <path id="Path_510" data-name="Path 510" d="M525.559,442.516,527.553,423h-9.922l-1.817,18.811a9.555,9.555,0,0,0,2.778,7.694l17.933,17.938H490.149a4.939,4.939,0,0,0,0,9.878h47.1a9.566,9.566,0,0,0,9.383-7.633,9.933,9.933,0,0,0-2.9-9.005Z" transform="translate(-215.656 -188.011)" fill="#14141f"/>
    <path id="Path_511" data-name="Path 511" d="M524.316,71.58H269.878a16.516,16.516,0,0,0-16.466,15.083L239.24,249.031A16.516,16.516,0,0,0,255.7,266.98H510.133A16.517,16.517,0,0,0,526.588,251.9L540.771,89.535A16.516,16.516,0,0,0,524.316,71.58Z" transform="translate(-106.305 -31.819)" fill="#14141f"/>
    <path id="Path_512" data-name="Path 512" d="M512.815,71.56H258.377a16.461,16.461,0,0,0-16.183,13.405c-.117.556-.194,1.111-.261,1.7L227.75,249.022a16.511,16.511,0,0,0,16.472,17.95H498.659a16.522,16.522,0,0,0,16.472-15.094L529.3,89.526A16.544,16.544,0,0,0,512.815,71.56Z" transform="translate(-101.197 -31.811)" fill="#29293d"/>
    <path id="Path_513" data-name="Path 513" d="M520.743,89.379H266.305a6.578,6.578,0,0,0-6.667,6.05l-.844,9.594L245.461,257.8a6.667,6.667,0,0,0,6.628,7.222H506.527a6.578,6.578,0,0,0,6.594-6.05l13.455-153.935.728-8.428a6.667,6.667,0,0,0-6.622-7.222Z" transform="translate(-109.087 -39.73)" fill="#fff"/>
    <path id="Path_514" data-name="Path 514" d="M531.429,89.376H276.991a6.578,6.578,0,0,0-6.667,6.05l-.844,9.594H537.251l.728-8.428a6.666,6.666,0,0,0-6.622-7.222Z" transform="translate(-119.773 -39.726)" fill="#f5f5f9"/>
    <path id="Path_515" data-name="Path 515" d="M377.64,104.275H527.853l.844-8.155H378.484Z" transform="translate(-167.845 -42.726)" fill="#fff"/>
    <path id="Path_516" data-name="Path 516" d="M282.7,98.778a.584.584,0,0,0-.861.789l5.122,5.617a.589.589,0,0,0,.861-.794Z" transform="translate(-125.197 -43.824)" fill="#66c"/>
    <path id="Path_517" data-name="Path 517" d="M287.138,98.72l-6.111,5.611a.538.538,0,1,0,.722.794l6.111-5.617a.556.556,0,1,0-.722-.789Z" transform="translate(-124.815 -43.765)" fill="#66c"/>
    <path id="Path_518" data-name="Path 518" d="M304.695,97.88a4.211,4.211,0,0,0-4.111,3.783,3.411,3.411,0,0,0,3.45,3.783,4.217,4.217,0,0,0,4.117-3.783,3.417,3.417,0,0,0-3.455-3.783Zm-.556,6.733a2.644,2.644,0,0,1-2.672-2.928,3.255,3.255,0,0,1,3.183-2.922,2.639,2.639,0,0,1,2.667,2.922A3.256,3.256,0,0,1,304.139,104.613Z" transform="translate(-133.588 -43.508)" fill="#66c"/>
    <path id="Path_519" data-name="Path 519" d="M327.44,108.88h-6.811a.467.467,0,0,0-.461.428.383.383,0,0,0,.389.428h6.822a.467.467,0,0,0,.461-.428.383.383,0,0,0-.4-.428Z" transform="translate(-142.3 -48.397)" fill="#66c"/>
    <path id="Path_520" data-name="Path 520" d="M725.1,108.44h-6.822a.478.478,0,0,0-.467.428.383.383,0,0,0,.394.428h6.816a.472.472,0,0,0,.467-.428.389.389,0,0,0-.389-.428Z" transform="translate(-319.035 -48.202)" fill="#fff"/>
    <path id="Path_521" data-name="Path 521" d="M725.473,103.92h-6.844a.478.478,0,0,0-.461.428.383.383,0,0,0,.389.428h6.822a.467.467,0,0,0,.461-.428.383.383,0,0,0-.367-.428Z" transform="translate(-319.195 -46.193)" fill="#fff"/>
    <path id="Path_522" data-name="Path 522" d="M725.887,99.4h-6.822a.478.478,0,0,0-.467.428.395.395,0,0,0,.395.433h6.817a.478.478,0,0,0,.467-.433.389.389,0,0,0-.389-.428Z" transform="translate(-319.387 -44.184)" fill="#fff"/>
    <path id="Path_523" data-name="Path 523" d="M479.15,143.195,427.723,71.53H382.769l-8.244,5.861a12.989,12.989,0,0,0-2.889,18.222l58.582,81.659L333.4,151.878a12.827,12.827,0,0,0-15.822,9.311L309.5,194.01a13.072,13.072,0,0,0,.6,8.016,12.777,12.777,0,0,0-2.1,7.25l.6,33.932a13.333,13.333,0,0,0,13.333,13.077h173.84a29.577,29.577,0,0,0,29.76-10.339c.117-.111.211-.239.328-.367s.261-.344.389-.522a29.555,29.555,0,0,0,6.033-15.494l13.305-158h-60.4Z" transform="translate(-136.892 -31.797)" fill="#f5f5f9"/>
    <path id="Path_524" data-name="Path 524" d="M648.327,3.495,614.495.062a12.816,12.816,0,0,0-14.139,11.694l-15.144,179.9a30.671,30.671,0,0,0,27.427,32.932,29.444,29.444,0,0,0,32.471-26.822L660.271,17.839A13.366,13.366,0,0,0,648.327,3.495Z" transform="translate(-260.059 0)" fill="#f5f5f9"/>
    <path id="Path_525" data-name="Path 525" d="M650.263,3.495,616.43.062a12.816,12.816,0,0,0-14.138,11.694L589.47,164.113l59.893,6.083L662.207,17.839A13.366,13.366,0,0,0,650.263,3.495Z" transform="translate(-261.995 0)" fill="#7c7cd3"/>
    <path id="Path_526" data-name="Path 526" d="M631.437,337.955a9.961,9.961,0,0,0-10.983,9.089,10.383,10.383,0,0,0,9.277,11.144,9.966,9.966,0,0,0,11.011-9.083,10.383,10.383,0,0,0-9.305-11.15Z" transform="translate(-275.752 -150.187)" fill="#143549"/>
    <path id="Path_527" data-name="Path 527" d="M450.567,48.36a13.177,13.177,0,0,0-18.277-3.239l-27.46,19.444a12.994,12.994,0,0,0-2.894,18.216l106.3,148.179c9.755,13.594,28.549,16.9,41.977,7.383a29.855,29.855,0,0,0,6.666-41.849Z" transform="translate(-177.529 -19.016)" fill="#f5f5f9"/>
    <path id="Path_528" data-name="Path 528" d="M432.29,45.117l-27.46,19.444a12.994,12.994,0,0,0-2.894,18.216l90.031,125.5,48.627-34.444-90-125.458A13.177,13.177,0,0,0,432.29,45.117Z" transform="translate(-177.529 -19.011)" fill="#7171d0"/>
    <path id="Path_529" data-name="Path 529" d="M628.331,338.787a10.094,10.094,0,0,0-2.25,14.155,10.233,10.233,0,0,0,14.2,2.5,10.094,10.094,0,0,0,2.222-14.155A10.239,10.239,0,0,0,628.331,338.787Z" transform="translate(-277.401 -149.775)" fill="#143549"/>
    <path id="Path_530" data-name="Path 530" d="M491.38,261.865l-175.662-46.11a12.85,12.85,0,0,0-15.822,9.322l-8.078,32.838a13.333,13.333,0,0,0,9.594,15.983L477.08,319.98a29.5,29.5,0,0,0,36.338-21.4A30.605,30.605,0,0,0,491.38,261.865Z" transform="translate(-129.539 -95.702)" fill="#f5f5f9"/>
    <path id="Path_531" data-name="Path 531" d="M299.9,225.117l-8.078,32.816a13.333,13.333,0,0,0,9.594,15.983l148.774,39.016,14.3-58.115L315.718,215.795a12.85,12.85,0,0,0-15.822,9.322Z" transform="translate(-129.539 -95.72)" fill="#66c"/>
    <path id="Path_532" data-name="Path 532" d="M638.366,334.916a10,10,0,0,0-12.294,7.222,10.355,10.355,0,0,0,7.45,12.422,10,10,0,0,0,12.3-7.222,10.361,10.361,0,0,0-7.455-12.422Z" transform="translate(-278.136 -148.709)" fill="#143549"/>
    <path id="Path_533" data-name="Path 533" d="M483.122,295.92H302.293A12.816,12.816,0,0,0,289.438,309l.594,33.932a13.366,13.366,0,0,0,13.333,13.083H484.188a29.444,29.444,0,0,0,29.51-30.055,30.688,30.688,0,0,0-30.577-30.044Z" transform="translate(-128.642 -131.529)" fill="#fff"/>
    <path id="Path_534" data-name="Path 534" d="M302.293,295.92A12.816,12.816,0,0,0,289.438,309l.594,33.932a13.366,13.366,0,0,0,13.333,13.083H456.489l-1.05-60.1Z" transform="translate(-128.642 -131.529)" fill="#5656c7"/>
    <path id="Path_535" data-name="Path 535" d="M636.478,331.71a9.961,9.961,0,0,0-10,10.166,10.383,10.383,0,0,0,10.344,10.161,9.95,9.95,0,0,0,10-10.161,10.383,10.383,0,0,0-10.344-10.166Z" transform="translate(-278.443 -147.436)" fill="#14141f"/>
    <path id="Path_536" data-name="Path 536" d="M768.257,289.049c-5.555-3.122-29.338-7.344-32.36-7.778-4.044-.589-4.75,6.211-3.516,7.644,1.611,1.878,5.878,4.261,13.227,6.111,5.661,1.439,16.622,6.3,20.322,2.272C768.318,294.71,774.246,292.421,768.257,289.049Z" transform="translate(-325.269 -125.002)" fill="#fff"/>
    <path id="Path_537" data-name="Path 537" d="M753.2,295.583c-5.633-1.4-7.844-5.95-13.494-3.444-2.778,1.228-8.055.417-7,1.667,1.611,1.872,7.778,4.3,13.227,5.767,9.583,2.594,14.705,5.211,18.155,2.222C766.248,299.883,761.509,297.655,753.2,295.583Z" transform="translate(-325.598 -129.52)" fill="#f5f5f9"/>
    <path id="Path_538" data-name="Path 538" d="M701.948,244.908a15.554,15.554,0,0,0-3.744-4.889c-.811-.733-2.289-1.939-3.044-2.6-.622-.556-1.461.861-.7,1.667-.511.161-1.061,1.389-.589,1.911a1.6,1.6,0,0,0-.289,2.011c-.683.617-.594,1.494.328,2.278s1.922,2.055,4.533,4.367c.439.383,1.111,1.328,1.517,1.667A37,37,0,0,1,704,246.986C703.553,246.575,702.348,245.836,701.948,244.908Z" transform="translate(-308.069 -105.472)" fill="#e8d7b9" fill-rule="evenodd"/>
    <path id="Path_539" data-name="Path 539" d="M696.311,242.583c-.033,1.4-.972,4.144-2.111,4.822h0a16.978,16.978,0,0,1,1.511,1.439,2.6,2.6,0,0,0,3.005.494,4.634,4.634,0,0,1,1.411-.394,1.484,1.484,0,0,0,.806-2.222C699.839,244.711,696.339,241.789,696.311,242.583Z" transform="translate(-308.543 -107.764)" fill="#f0bf97" fill-rule="evenodd"/>
    <path id="Path_540" data-name="Path 540" d="M720.293,264.575c-3.555-2.855-13.2-12.655-13.2-12.655a58.533,58.533,0,0,0-5.183,5.822s11.605,13.011,15.894,17.405c6.489,6.666,10.277-.756,9.444-3.594C726.443,268.936,722.565,266.409,720.293,264.575Z" transform="translate(-311.97 -111.973)" fill="#fff"/>
    <path id="Path_541" data-name="Path 541" d="M704.073,257.76c-.656.75-1.378,1.617-2.133,2.578,0,0,11.605,13.011,15.894,17.405,5.305,5.45,9.589,2.711,9.539-.994-4.25-3.333-9.933-4.567-15.872-10C709.551,264.96,706.118,259.116,704.073,257.76Z" transform="translate(-311.983 -114.569)" fill="#f5f5f9"/>
    <path id="Path_542" data-name="Path 542" d="M823.823,551.306c-.044-.339-6.667-2.222-6.817,0-.122,1.906.378,4.855-1.289,6.372-1.911,1.733-9.005,5.417-12.222,5.894-.167.478.395.883.878,1.044,2.394.817,5,.461,7.533.2q4.383-.456,8.794-.505c1.305,0,2.855-.128,3.517-1.256a4.548,4.548,0,0,0,.156-2.861C823.99,557.256,824.245,554.25,823.823,551.306Z" transform="translate(-357.108 -244.564)" fill="#e8d7b9"/>
    <path id="Path_543" data-name="Path 543" d="M831.061,551.413a8.938,8.938,0,0,0-3.233-.933c.106.206.222.411.311.628,2.622,6.355-3.005,11.289-8.389,13.772,2.711-.261,5.433-.422,8.161-.45,1.305,0,2.855-.128,3.517-1.256a4.548,4.548,0,0,0,.156-2.861C831.227,557.363,831.483,554.358,831.061,551.413Z" transform="translate(-364.345 -244.671)" fill="#f0bf97"/>
    <path id="Path_544" data-name="Path 544" d="M822.983,565.68c-.817-.606-6.017,3.411-11.983,3.411,0-.794-.756-2.139-1.739-1.794-2.628.911-7.222,2.561-7.778,2.778-1.667.7-1.017,3.517,0,3.517h9.266c1.761,0,4.572-1.622,7.417-1.622,3.172,0,4.111-.106,4.505-.283C825.633,570.336,824.472,566.808,822.983,565.68Z" transform="translate(-355.773 -251.399)" fill="#29293d"/>
    <path id="Path_545" data-name="Path 545" d="M817.864,570.977c-2.111.111-8.75.917-9.872,1.217a9.645,9.645,0,0,1-4.95,0,7.257,7.257,0,0,1-2.089-.956c-1.005,1-.394,3.178.478,3.178H810.7c1.761,0,4.572-1.622,7.417-1.622,3.172,0,4.111-.111,4.505-.283,2.361-1.067,2.128-3.467,1.189-5A7.156,7.156,0,0,1,817.864,570.977Z" transform="translate(-355.759 -252.24)" fill="#14141f"/>
    <path id="Path_546" data-name="Path 546" d="M830.35,577.013h5.828l1.467-3.733-6.894,1.983A3.376,3.376,0,0,1,830.35,577.013Z" transform="translate(-369.056 -254.804)" fill="#14141f"/>
    <path id="Path_547" data-name="Path 547" d="M731.386,548.9c-.933,1.667-1.761,4.544-3.922,5.183-2.478.733-10.466.978-13.594,0-.361.361,0,.972.333,1.322,1.811,1.778,4.322,2.589,6.705,3.45q4.15,1.483,8.139,3.333c1.183.556,2.633,1.111,3.717.394a4.6,4.6,0,0,0,1.383-2.511c.956-2.811,2.494-5.411,3.389-8.244C737.641,551.52,732.48,546.954,731.386,548.9Z" transform="translate(-317.219 -243.756)" fill="#e8d7b9"/>
    <path id="Path_548" data-name="Path 548" d="M741.253,550.56v.7c-.4,6.867-7.605,8.889-13.533,8.772,2.555.939,5.078,1.978,7.544,3.133,1.183.556,2.633,1.111,3.717.394a4.6,4.6,0,0,0,1.383-2.511c.956-2.811,2.494-5.411,3.389-8.244A8.874,8.874,0,0,0,741.253,550.56Z" transform="translate(-323.442 -244.706)" fill="#f0bf97"/>
    <path id="Path_549" data-name="Path 549" d="M720.611,560.771c.339-.711.244-2.25-.789-2.367-2.778-.322-7.639-.839-8.194-.867-1.817-.094-2.444,2.728-1.55,3.155l8.333,4.017c1.589.767,4.828.528,7.389,1.761,2.855,1.372,3.75,1.667,4.178,1.667,3.294.089,3.778-3.594,2.9-5.266C732.421,561.994,725.966,563.349,720.611,560.771Z" transform="translate(-315.421 -247.807)" fill="#29293d"/>
    <path id="Path_550" data-name="Path 550" d="M726.387,564.783c-1.95-.817-8.283-2.972-9.444-3.183a9.667,9.667,0,0,1-4.444-2.139,7.154,7.154,0,0,1-1.467-1.761c-1.339.461-1.733,2.689-.944,3.067l8.333,4.017c1.589.767,4.828.528,7.389,1.761,2.856,1.372,3.75,1.667,4.178,1.667,2.594.067,3.428-2.222,3.244-3.983A7.15,7.15,0,0,1,726.387,564.783Z" transform="translate(-315.425 -247.88)" fill="#14141f"/>
    <path id="Path_551" data-name="Path 551" d="M735.73,574.29l5.255,2.533,2.939-2.728-7.072-1.206A3.332,3.332,0,0,1,735.73,574.29Z" transform="translate(-327.002 -254.631)" fill="#14141f"/>
    <path id="Path_552" data-name="Path 552" d="M761.5,381.89c-4.805,18.016-17.738,82.015-22.072,95.7,1.667,3.217,5.728,4.95,9.533,4.289,2.661-4.816,27.1-75.481,31.788-92.975C780.923,388.245,766.6,382.429,761.5,381.89Z" transform="translate(-328.646 -169.739)" fill="#29293d"/>
    <path id="Path_553" data-name="Path 553" d="M774,387.73c-2.3,8.233-.061,18.283-5.616,24.922-3.456,4.122-3.572,10.322-3.561,15.844a24.43,24.43,0,0,1-3.25,12.466c-2.372,3.855-4.683,6.322-5.267,11.111-.556,4.655-2.511,11.2-3.455,15.822-1.667,8.228-7.017,6.844-10.1,14.544a9.555,9.555,0,0,0,7.694,2.033c2.661-4.816,27.1-75.481,31.788-92.975C782.332,391.152,778.444,389.4,774,387.73Z" transform="translate(-330.122 -172.335)" fill="#14141f"/>
    <path id="Path_554" data-name="Path 554" d="M817.046,389.79c-3.994-.806-21.666-3.072-23.611.906-2.911,5.989,15.077,87.164,16.8,93.659,3.467,1.505,7.983.556,9.922-.489-.556-16.955-3.372-30.388-3.861-45.082C815.724,421.356,817.5,403.184,817.046,389.79Z" transform="translate(-352.508 -172.64)" fill="#29293d"/>
    <path id="Path_555" data-name="Path 555" d="M830.208,389.557c-1.305-.261-4.161-.961-7.478-1.667,1.306,1.983,1.222,13.189,1.167,14.239-.433,7.778,2.594,16.061,2.372,17.822-1.233,9.855.75,16.277.694,19.2-.067,3.294-1.511,9.383-.694,16.927.433,3.994,2.9,11.805,4.078,15.861.656,2.278-1.111,9.822-.789,12.655q1.9-.395,3.761-.978c-.556-16.955-3.372-30.388-3.861-45.082C828.885,421.122,830.658,402.951,830.208,389.557Z" transform="translate(-365.67 -172.406)" fill="#14141f"/>
    <path id="Path_556" data-name="Path 556" d="M795.156,286.93c-5.555,0-18.922.494-19.838,10.094-.372,3.889-2.05,48.332-1.528,49.56,1.055,2.411,35.688,2.105,36.11.35.511-2.033,1.755-31.844,2.517-41C813.134,297.458,809.311,286.93,795.156,286.93Z" transform="translate(-343.873 -127.534)" fill="#fff"/>
    <path id="Path_557" data-name="Path 557" d="M783.761,330.792c-.778,4.011,4.789,4.333,6.578,3.717,2.339-.806,6.367-3.855,10.644-10.111,7.555-11.044,9.411-14.072,9.411-14.072l-10.555-7.005S784.539,326.78,783.761,330.792Z" transform="translate(-348.316 -134.818)" fill="#fff"/>
    <path id="Path_558" data-name="Path 558" d="M785.33,334.36c1.517,1.339,4.517,1.361,5.739.939,2.339-.806,6.366-3.855,10.644-10.111,7.555-11.044,9.411-14.072,9.411-14.072L810.09,305.1C808.046,313.461,795.108,328.683,785.33,334.36Z" transform="translate(-349.047 -135.609)" fill="#f5f5f9"/>
    <path id="Path_559" data-name="Path 559" d="M808.5,286.909a25.149,25.149,0,0,0-4.783.828c9.133,3.133,18.722,5.661,17.666,15.694-.322,3.055-4.867,13.161-5,16.077-.261,5.039,3.528,5.033,1.417,7.939-2.778,3.889-3.533,2.572-4.667,5.372-1.4,3.45,5.128,4.411,3.478,8.511-1.828,4.567-5.855,3.4-7.583,6.928,7.444-.094,14.061-.556,14.25-1.344.511-2.033,1.755-31.844,2.517-41C826.481,297.436,821.958,286.264,808.5,286.909Z" transform="translate(-357.22 -127.512)" fill="#f5f5f9"/>
    <path id="Path_560" data-name="Path 560" d="M804.383,272.122c-.289,2.667-3.983,3.639-3.983,6.772,0,2.628,11.383,3.578,11.522-.194s.467-10.85.467-10.85S804.672,269.45,804.383,272.122Z" transform="translate(-355.745 -119.053)" fill="#f0bf97"/>
    <path id="Path_561" data-name="Path 561" d="M805.894,243.07a7.9,7.9,0,0,0-4.783-2.433,15.6,15.6,0,0,0-5.439.289,4.161,4.161,0,0,0-3.083,2.128c-1.794,3.633-2.256,7.778-2.694,11.789a12.1,12.1,0,0,0,.328,5.839c1.194,2.944,4.789,5.322,7.805,4.339,6.861-2.222,9.716-8.966,9.7-9.639-.061-2.128.228-4.255.144-6.378A9.5,9.5,0,0,0,805.894,243.07Z" transform="translate(-350.99 -106.906)" fill="#e8d7b9"/>
    <path id="Path_562" data-name="Path 562" d="M800.11,287.45h0Z" transform="translate(-355.616 -127.765)" fill="#e8d7b9"/>
    <path id="Path_563" data-name="Path 563" d="M801.18,287.28Z" transform="translate(-356.092 -127.689)" fill="#e8d7b9"/>
    <path id="Path_564" data-name="Path 564" d="M805.148,241.538c-1.567-.272-6.111.383-7.161,4.9-.061.272-.378,2.511-.422,2.717-.222,1.211-2.594,3.522-2.817,5.039-.422,2.778.933,8.172,2.778,10a4.888,4.888,0,0,0,2.3,1.339l.4-.1c6.855-2.222,9.716-8.978,9.7-9.644-.067-2.128.222-4.255.15-6.378a9.286,9.286,0,0,0-1.983-5.939,5.483,5.483,0,0,0-2.944-1.933Z" transform="translate(-353.198 -107.335)" fill="#f0bf97"/>
    <path id="Path_565" data-name="Path 565" d="M802.071,237.3c-6.466-.889-9.05,3.333-10.811,3.767,4.789,3.528,12.327,1.717,12.222,2.905-.811,7.65,1.889,7.972,2.305,9.289a8.188,8.188,0,0,0,3,3.672C813.687,244.563,809.721,238.352,802.071,237.3Z" transform="translate(-351.683 -105.422)" fill="#14141f"/>
    <path id="Path_566" data-name="Path 566" d="M806.251,238.109a13.121,13.121,0,0,0-3.122-.806c-5.044-.689-7.716,1.728-9.489,3.028.089.061,6.255,2.539,12.222,1.439a1.911,1.911,0,0,0,.389-3.661Z" transform="translate(-352.74 -105.423)" fill="#29293d"/>
    <path id="Path_567" data-name="Path 567" d="M812.434,257.932c-2.667.889-5.411,4.511-1.711,6.172a3.522,3.522,0,0,0,3.5-.383,4.623,4.623,0,0,0,1.511-2.222,3.039,3.039,0,0,0-.439-3.222A2.927,2.927,0,0,0,812.434,257.932Z" transform="translate(-359.535 -114.552)" fill="#e8d7b9"/>
    <path id="Path_568" data-name="Path 568" d="M812.78,261.689a3.5,3.5,0,0,1,1.172.8,6.59,6.59,0,0,1,.606,1.561s2.667-1.911,1.428-3.011S812.78,261.689,812.78,261.689Z" transform="translate(-361.247 -115.865)" fill="#f0bf97"/>
    <path id="Path_569" data-name="Path 569" d="M790.729,281.365c-.589-.744-1.906-.283-1.911,1.011a1.313,1.313,0,0,0-1.705.989,1.85,1.85,0,0,0-1.828,1.472c-1.067,0-1.667.794-1.522,2.183.172,1.478,0,3.255.389,7.272.061.667-.25,6.911-.217,7.522a45.194,45.194,0,0,1,6.9-.939c-.033-.722-.378-6.733.033-7.85a17.891,17.891,0,0,0,.694-7.083C791.463,284.681,791.368,282.176,790.729,281.365Z" transform="translate(-348.341 -124.902)" fill="#e8d7b9" fill-rule="evenodd"/>
    <path id="Path_570" data-name="Path 570" d="M793.587,281.365c-.589-.744-1.906-.283-1.911,1.011a1.367,1.367,0,0,0-1.505.5,1.267,1.267,0,0,1,.928,1.606c-.494,1.844.683,6.622,1.022,9.811a42.845,42.845,0,0,1,.417,6.633,9.41,9.41,0,0,1,1.156-.05c-.033-.722-.378-6.733.033-7.85a17.888,17.888,0,0,0,.694-7.083C794.32,284.681,794.225,282.17,793.587,281.365Z" transform="translate(-351.198 -124.902)" fill="#f0bf97" fill-rule="evenodd"/>
    <path id="Path_571" data-name="Path 571" d="M791.25,279.549l-4.372-1.822a.789.789,0,0,0-1.05.428c-.172.411.495,1.239.906,1.411l3.889,1.467a.806.806,0,1,0,.622-1.483Z" transform="translate(-349.256 -123.413)" fill="#f0bf97" fill-rule="evenodd"/>
    <path id="Path_572" data-name="Path 572" d="M790.745,305.268a19.239,19.239,0,0,0-6.411.267.261.261,0,0,0-.2.2,7.033,7.033,0,0,0-.056,1.9.256.256,0,0,0,.322.217,15.556,15.556,0,0,1,6.317-.222.261.261,0,0,0,.305-.222,10.641,10.641,0,0,0-.056-1.906A.256.256,0,0,0,790.745,305.268Z" transform="translate(-348.473 -135.616)" fill="#14141f" fill-rule="evenodd"/>
    <path id="Path_573" data-name="Path 573" d="M693.75,248.13a.617.617,0,1,0-.955.778s1.978,2.517,2.778,2.583c.217,0,.556-.289.344-.556Z" transform="translate(-307.849 -110.178)" fill="#e8d7b9" fill-rule="evenodd"/>
    <path id="Path_574" data-name="Path 574" d="M690.471,232.186c-.339-.328-.811.106-.811.411,0,1.111,3.255,4.167,3.255,4.167a.861.861,0,0,0,1.194-1.233Z" transform="translate(-306.526 -103.15)" fill="#e8d7b9" fill-rule="evenodd"/>
    <path id="Path_575" data-name="Path 575" d="M695.539,241.55a.856.856,0,0,0-1.111,1.3s3.333,2.972,4.444,2.867c.3,0,.694-.556.333-.85Z" transform="translate(-308.521 -107.281)" fill="#e8d7b9" fill-rule="evenodd"/>
    <path id="Path_576" data-name="Path 576" d="M695,244.882a.783.783,0,1,0-1.022,1.183s3.022,2.717,4.05,2.617c.272-.028.633-.489.306-.772Z" transform="translate(-308.305 -108.746)" fill="#e8d7b9" fill-rule="evenodd"/>
    <path id="Path_577" data-name="Path 577" d="M782.877,312.424s-1.017,10.483-1.361,15.027a22.981,22.981,0,0,0,1.156,8.711c.933,2.817,9.494,4.867,9.061-4.444-.283-6.111-1.667-19.6-1.667-19.6A23.694,23.694,0,0,0,782.877,312.424Z" transform="translate(-347.333 -138.678)" fill="#fff"/>
    <path id="Path_578" data-name="Path 578" d="M792.584,312.146c-1.022-.089-1.939-.122-2.778-.117a4.234,4.234,0,0,1,.711,1.8c.983,7.061,4.183,15.377-.333,21.894a6.111,6.111,0,0,1-2.944,2.328c2.778,1.222,7.339.528,7.017-6.305C793.99,325.618,792.584,312.146,792.584,312.146Z" transform="translate(-349.896 -138.689)" fill="#f5f5f9"/>
    <path id="Path_579" data-name="Path 579" d="M789.746,303.278a2.083,2.083,0,1,0,1.5.539A2.089,2.089,0,0,0,789.746,303.278Z" transform="translate(-350.124 -134.799)" fill="#fff" fill-rule="evenodd"/>
    <path id="Path_580" data-name="Path 580" d="M790.218,304.269a1.533,1.533,0,1,0,1.6,1.461A1.533,1.533,0,0,0,790.218,304.269Z" transform="translate(-350.568 -135.239)" fill="#66c" fill-rule="evenodd"/>
  </g>
</svg>
