<svg xmlns="http://www.w3.org/2000/svg" data-name="Component 12 – 1" width="160" height="160" viewBox="0 0 160 160"><defs><clipPath id="a"><path data-name="Rectangle 97" fill="none" d="M0 0h160v160H0z"/></clipPath></defs><g data-name="Group 101" clip-path="url(#a)"><path data-name="Path 586" d="m38.427 53.334-1.966-4.867a6.665 6.665 0 0 1 3.683-8.678l61.814-24.973a6.665 6.665 0 0 1 8.672 3.679l37.467 92.72a6.666 6.666 0 0 1-3.683 8.679L82.6 144.867a6.667 6.667 0 0 1-8.678-3.683v-.005l-.587-1.446V140H46.667A6.666 6.666 0 0 1 40 133.333v-1.8l-22.334-9.021a6.667 6.667 0 0 1-3.68-8.68Zm14.907 73.334H68.06L53.334 90.22ZM40 85.041l-11.153 27.605L40 117.386Zm11.319-35.4 32.467 80.361 49.453-19.98-32.465-80.348Z" fill="#29293d"/><path data-name="Path 587" d="M71.173 63.2a5.124 5.124 0 1 1 .007 0Z" fill="#66c"/></g></svg>