<svg xmlns="http://www.w3.org/2000/svg" width="160" height="160" viewBox="0 0 160 160"><defs><clipPath id="a"><path data-name="Rectangle 94" fill="none" d="M0 0h160v160H0z"/></clipPath></defs><g data-name="Group 96" clip-path="url(#a)"><path data-name="Path 581" d="M26.667 106.667h106.666V33.334H26.667Zm60 13.333v13.333h26.666v13.334H46.667v-13.334h26.666V120H19.946a6.654 6.654 0 0 1-6.613-6.693V26.713A6.71 6.71 0 0 1 19.946 20h120.107a6.655 6.655 0 0 1 6.614 6.713v86.574a6.71 6.71 0 0 1-6.614 6.713Z" fill="#29293d"/><path data-name="Path 582" d="M80 90a20 20 0 1 1 20-20 20 20 0 0 1-20 20m0-4a16 16 0 1 0-16-16 16 16 0 0 0 16 16m-3.9-18H86v4h-9.9a5 5 0 0 0 8.128 2.82l3.4 2.266A9 9 0 0 1 72.056 72H70v-4h2.054a9 9 0 0 1 15.576-5.086l-3.4 2.266A5 5 0 0 0 76.1 68" fill="#66c"/></g></svg>