<?xml version="1.0" encoding="UTF-8"?> <svg xmlns="http://www.w3.org/2000/svg" viewBox="0 0 623.69 542.19"><defs><style>.a,.u{fill:#f5f5f9;}.b{opacity:0.25;}.c{fill:#7c7cd3;}.d{fill:#143549;}.e{fill:#4545c1;}.f{fill:#7171d0;}.g{fill:#004ea0;}.h{fill:#5656c7;}.i{fill:#4af6d1;}.j{fill:#e9f6ff;}.k{fill:#14141f;}.l,.t{fill:#29293d;}.m{fill:#fff;}.n,.v{fill:#66c;}.o{fill:#3a7cff;}.p,.r{fill:#e8d7b9;}.p,.q,.t,.u,.v{fill-rule:evenodd;}.q,.s{fill:#f0bf97;}</style></defs><ellipse class="a" cx="343.11" cy="491.26" rx="275.54" ry="28.05"></ellipse><ellipse class="a" cx="275.54" cy="514.14" rx="275.54" ry="28.05"></ellipse><g class="b"><path class="c" d="M461.09,260c-10.3,9.31-5.81,22-5.81,22a44.07,44.07,0,0,0-13.81-3.13c-8.7-.72-17.41,18.4-17.41,18.4l5.65,26.06-11.21-5.05C405.93,405.35,450,471.89,450,471.89a44.92,44.92,0,0,0,4.6-16.2c1.49-21-16.12-35-14.91-73.3,2.86-90.24,51.66-59,57.41-94.6,5.25-32.52,22.17-58.33,23.08-59.7,0,0,0-.05,0-.05l0,0C497.61,240.38,471.39,250.68,461.09,260Z"></path><path class="d" d="M471.26,387.84c-9.29,10-59.55,66.71-27.54,66.71,10.82,0,45.28-21.67,60.07-40.18C516.61,398.32,536,400.73,536,400.73S491,366.62,471.26,387.84Z"></path><path class="e" d="M471.26,387.84c-9.29,10-59.55,66.71-27.54,66.71,10.82,0,45.28-21.67,60.07-40.18C516.61,398.32,536,400.73,536,400.73S491,366.62,471.26,387.84Z"></path><path class="f" d="M573.46,275.21C551.82,274,537.62,295,537.62,295s1.17-9.27,10.56-20.52c-1.29.16-42.69,5.84-45.87,10.14s-9.52,21.53-9.52,21.53-6.21-12.1-5.27-15.67-69.17,44.56-43.78,151.07v0c.29,1.21.58,2.41.91,3.63a55.52,55.52,0,0,1-.73-5.86s0,0,0-.06a92,92,0,0,1,3.94-34.05c4.89-15.79,15.16-33.75,35.94-49.19,14.7-10.9,42.13-14.39,67.25-29s32.12-14.8,72.54-62.51l.12-.12S595.1,276.41,573.46,275.21Z"></path><path class="g" d="M308.51,411.35c-14.29,4.5-45.57,18.7-59.38,46.49,0,0,32.34-39.52,78.49-39.52,39.76,0,95.23,26.45,100.41,48.07l16.09-14S385.58,387.12,308.51,411.35Z"></path><path class="h" d="M434.13,350.08c-5.34,37.47,12.71,86.7,20.49,105.61,1.49-21-16.12-35-14.91-73.3,2.86-90.24,51.66-59,57.41-94.6,5.25-32.52,22.17-58.33,23.08-59.7-1.3,1.34-24.37,28.77-35.82,54.51C471.06,312.54,440.9,302.73,434.13,350.08Z"></path><path class="i" d="M319.44,434.65c-12.89,4.06-30.42,15.28-26.61,33.47-.51-4.09-.24-20.46,36.22-24.06,33.5-3.3,81.58,15,93.48,34.58h5.71l9.49-11.09S385.64,413.81,319.44,434.65Z"></path><path class="i" d="M292.83,468.12a7.47,7.47,0,0,0,.16.92C292.91,468.72,292.89,468.43,292.83,468.12Z"></path><path class="c" d="M318.8,372.36s24.6-1.92,39.89,19.13c17.63,24.27,59.94,73,73.62,73.64C472.79,467,412.54,373,401.37,359.82,377.68,331.83,318.8,372.36,318.8,372.36Z"></path><path class="e" d="M435.09,478.64h38.06c-6.67-5.61-6.36-19,3.53-30.93C476.68,447.71,434.8,454.15,435.09,478.64Z"></path><path class="c" d="M548.07,439.64c-18.23-11.6-37.82-7.58-44.28-5.74-1.42.39-2.21.69-2.21.69-51.36-11.26-72.18,34.07-76.1,44.05h9.94c2.65-20.47,42-43.44,63.13-18.48,22.48,26.59,61.15,49.73,61.15,49.73s.1-.2.14-.3C573.83,480.4,570.23,453.75,548.07,439.64Z"></path><path class="h" d="M548.07,439.64c-18.23-11.6-37.82-7.58-44.28-5.74,18.37,7.34,35.62,11.38,42.26,21.15,15.13,22.25,12.52,42.63,13.79,54.54C573.83,480.4,570.23,453.75,548.07,439.64Z"></path><path class="f" d="M536,373.94c-19-9.09-29.05,1.26-29.05,1.26-22.24-7.83-30.18,8.43-30.18,8.43L468.37,391s26.4-8,38.26,10.47S542.76,426,542.76,426C555.55,408.15,554.89,383,536,373.94Z"></path><path class="h" d="M536,373.94c-19-9.09-29.05,1.26-29.05,1.26s22.48,0,35.86,50.8C555.55,408.15,554.89,383,536,373.94Z"></path><path class="j" d="M357,341.76s-12.18-13.68-36.67-3.28-26.78,42.12-11.64,65.44c0,0,31-6.26,47.11-28.91s49-11,49-11S385.24,330,357,341.76Z"></path><path class="g" d="M320.36,338.48c-24.48,10.41-26.78,42.12-11.64,65.44C328.6,340.5,357,341.76,357,341.76S344.85,328.08,320.36,338.48Z"></path><path class="h" d="M447.84,405.24c4.89-15.79,15.16-33.75,35.94-49.19,14.7-10.9,42.13-14.39,67.25-29s32.12-14.8,72.54-62.51c-2.34,2.29-40.4,39.1-79.39,42.3C507.86,309.83,463.65,304.94,447.84,405.24Z"></path></g><polygon class="a" points="149.75 60.67 112.46 487.85 436.91 487.85 474.2 60.67 149.75 60.67"></polygon><polygon class="a" points="111.81 495.3 436.26 495.3 444.94 395.86 120.49 395.86 111.81 495.3"></polygon><polygon class="k" points="129.38 294.04 453.83 294.04 461.45 206.72 137 206.72 129.38 294.04"></polygon><polygon class="l" points="301.01 257.11 303.79 225.28 431.18 225.28 428.4 257.11 301.01 257.11"></polygon><polygon class="a" points="154.77 0 147.58 85.5 472.3 85.5 479.22 0 154.77 0"></polygon><polygon class="m" points="177.76 57.75 180.28 27.75 449.14 27.75 446.71 57.75 177.76 57.75"></polygon><polygon class="l" points="424.15 37.94 427.89 42.19 423.59 45.63 425.57 48.2 432.36 42.33 426.79 35.59 424.15 37.94"></polygon><polygon class="l" points="204.14 38.16 202.15 35.59 195.37 41.46 200.94 48.2 203.58 45.84 199.84 41.59 204.14 38.16"></polygon><polygon class="k" points="300.8 74.97 315.94 74.97 316.69 66.36 301.55 66.36 300.8 74.97"></polygon><path class="l" d="M349.2,16.14H275.88A3.93,3.93,0,0,0,272,19.67l-3.55,40.61A5.48,5.48,0,0,0,274,66.36h68.25a6.76,6.76,0,0,0,6.6-6.08l3.55-40.61A3.19,3.19,0,0,0,349.2,16.14Zm-3.76,43.1H272.12l3.45-39.57h73.32Z"></path><path class="l" d="M288.6,76.56H328a1.92,1.92,0,0,0,1.91-1.75h0A1.92,1.92,0,0,0,328,72.72H288.6a1.93,1.93,0,0,0-1.92,1.75h0A1.93,1.93,0,0,0,288.6,76.56Z"></path><polygon class="n" points="272.12 59.24 345.44 59.24 348.89 19.68 275.57 19.68 272.12 59.24"></polygon><polygon class="k" points="145.12 113.73 469.57 113.73 472.02 85.61 147.57 85.61 145.12 113.73"></polygon><path class="n" d="M417.79,371.29h-1.42a1.07,1.07,0,0,1-1.07-1.07,1.05,1.05,0,0,1,.52-.91l.07-.87a1.07,1.07,0,0,1,2.13.18Zm-7.82,0h-2.14a1.07,1.07,0,1,1,0-2.14H410a1.07,1.07,0,0,1,0,2.14Zm-8.54,0h-2.14a1.07,1.07,0,0,1,0-2.14h2.14a1.07,1.07,0,0,1,0,2.14Zm-8.54,0h-2.13a1.07,1.07,0,0,1,0-2.14h2.13a1.07,1.07,0,0,1,0,2.14Zm-8.54,0h-2.13a1.07,1.07,0,0,1,0-2.14h2.13a1.07,1.07,0,0,1,0,2.14Zm-8.53,0h-2.14a1.07,1.07,0,0,1,0-2.14h2.14a1.07,1.07,0,0,1,0,2.14Zm-8.54,0h-2.13a1.07,1.07,0,0,1,0-2.14h2.13a1.07,1.07,0,0,1,0,2.14Zm-8.54,0h-2.13a1.07,1.07,0,0,1-1.07-1.07,1.09,1.09,0,0,1,.21-.64,1,1,0,0,1-.11-.56l.19-2.13a1.06,1.06,0,1,1,2.12.18l-.18,2.08h1a1.07,1.07,0,0,1,0,2.14Zm58.78-8.07h-.1a1.07,1.07,0,0,1-1-1.16l.19-2.13a1,1,0,0,1,1.15-1,1.06,1.06,0,0,1,1,1.15l-.18,2.13A1.07,1.07,0,0,1,417.52,363.22Zm-60.07-1.55h-.1a1.07,1.07,0,0,1-1-1.16l.19-2.13a1.07,1.07,0,0,1,2.13.19l-.19,2.13A1.07,1.07,0,0,1,357.45,361.67Zm60.81-6.95h-.1a1.07,1.07,0,0,1-1-1.16l.19-2.12a1,1,0,0,1,1.15-1,1.06,1.06,0,0,1,1,1.16l-.18,2.12A1.07,1.07,0,0,1,418.26,354.72Zm-60.07-1.55h-.09a1.07,1.07,0,0,1-1-1.16l.18-2.12a1.06,1.06,0,0,1,1.16-1,1.07,1.07,0,0,1,1,1.16l-.19,2.12A1.06,1.06,0,0,1,358.19,353.17Zm60.81-7h-.1a1.07,1.07,0,0,1-1-1.16l.19-2.13a1.06,1.06,0,0,1,1.16-1,1.07,1.07,0,0,1,1,1.16l-.18,2.13A1.07,1.07,0,0,1,419,346.21Zm-60.07-1.55h-.09a1.05,1.05,0,0,1-1-1.15l.18-2.13a1.07,1.07,0,1,1,2.13.19l-.18,2.13A1.07,1.07,0,0,1,358.93,344.66Zm60.81-7h-.1a1.06,1.06,0,0,1-1-1.15l.18-2.13a1.06,1.06,0,0,1,1.16-1,1.07,1.07,0,0,1,1,1.16l-.19,2.12A1.07,1.07,0,0,1,419.74,337.71Zm-60.06-1.55h-.1a1.07,1.07,0,0,1-1-1.15l.19-2.13a1.05,1.05,0,0,1,1.15-1,1.06,1.06,0,0,1,1,1.15l-.18,2.13A1.07,1.07,0,0,1,359.68,336.16Zm60.8-7h-.09a1.07,1.07,0,0,1-1-1.16l.18-2.12a1.07,1.07,0,0,1,2.13.18l-.19,2.13A1.06,1.06,0,0,1,420.48,329.2Zm-60.06-1.55h-.1a1.07,1.07,0,0,1-1-1.16l.19-2.13a1,1,0,0,1,1.16-1,1.06,1.06,0,0,1,1,1.15l-.19,2.13A1.07,1.07,0,0,1,360.42,327.65Zm57.93-4.32h-2.13a1.07,1.07,0,1,1,0-2.13h2.13a1.07,1.07,0,1,1,0,2.13Zm-8.54,0h-2.13a1.07,1.07,0,1,1,0-2.13h2.13a1.07,1.07,0,1,1,0,2.13Zm-8.53,0h-2.14a1.07,1.07,0,1,1,0-2.13h2.14a1.07,1.07,0,0,1,0,2.13Zm-8.54,0h-2.13a1.07,1.07,0,1,1,0-2.13h2.13a1.07,1.07,0,1,1,0,2.13Zm-8.54,0h-2.13a1.07,1.07,0,1,1,0-2.13h2.13a1.07,1.07,0,1,1,0,2.13Zm-8.54,0h-2.13a1.07,1.07,0,1,1,0-2.13h2.13a1.07,1.07,0,1,1,0,2.13Zm-8.53,0H365a1.07,1.07,0,0,1,0-2.13h2.14a1.07,1.07,0,0,1,0,2.13Z"></path><polygon class="m" points="223.13 370.22 283.33 370.22 287.51 322.26 227.31 322.26 223.13 370.22"></polygon><polygon class="m" points="155.58 370.22 215.79 370.22 219.97 322.26 159.77 322.26 155.58 370.22"></polygon><polygon class="m" points="289.83 369.98 350.03 369.98 354.22 322.02 294.02 322.02 289.83 369.98"></polygon><polygon class="l" points="289.83 369.98 350.03 369.98 354.22 322.02 294.02 322.02 289.83 369.98"></polygon><path class="m" d="M322.65,338.84a8,8,0,0,0-7.78,7.16,6.46,6.46,0,0,0,6.53,7.16,8,8,0,0,0,7.79-7.16A6.46,6.46,0,0,0,322.65,338.84Zm2.55,8h-2.44l-.22,2.46h-1.6l.22-2.46h-2.45l.14-1.59h2.45l.21-2.45h1.6l-.21,2.45h2.44Z"></path><path class="n" d="M281.15,407.76a21.14,21.14,0,0,0-20.65,19,17.13,17.13,0,0,0,17.34,19,21.14,21.14,0,0,0,20.65-19A17.13,17.13,0,0,0,281.15,407.76Z"></path><path class="n" d="M381.45,407.76a21.15,21.15,0,0,0-20.66,19,17.14,17.14,0,0,0,17.34,19,21.14,21.14,0,0,0,20.65-19A17.13,17.13,0,0,0,381.45,407.76Z"></path><polygon class="o" points="276.97 433.34 278.98 433.34 279.01 433.01 277 433.01 276.97 433.34"></polygon><path class="n" d="M333,267.54H305.47a5.81,5.81,0,0,0-5.67,5.22,4.71,4.71,0,0,0,4.77,5.23H332a5.82,5.82,0,0,0,5.68-5.23h0A4.72,4.72,0,0,0,333,267.54Z"></path><polygon class="m" points="182.29 283.35 281.31 283.35 287.05 217.56 188.03 217.56 182.29 283.35"></polygon><path class="n" d="M237.14,237.58a15.88,15.88,0,0,0-15.51,14.27,12.87,12.87,0,0,0,13,14.27,15.89,15.89,0,0,0,15.52-14.27A12.87,12.87,0,0,0,237.14,237.58Z"></path><path class="d" d="M241.55,250.94l-7.62-4.15a1.17,1.17,0,0,0-1.83,1.06l-.7,8c-.09,1.08.65,1.56,1.65,1.06l8.34-4.16C242.39,252.25,242.46,251.44,241.55,250.94Z"></path><polygon class="k" points="183.8 192.49 218.57 192.49 219.02 187.33 184.25 187.33 183.8 192.49"></polygon><polygon class="l" points="191.03 200.07 210.03 200.07 210.48 194.91 191.48 194.91 191.03 200.07"></polygon><polygon class="k" points="250.98 192.49 285.75 192.49 286.2 187.33 251.43 187.33 250.98 192.49"></polygon><polygon class="l" points="258.21 200.07 277.21 200.07 277.66 194.91 258.66 194.91 258.21 200.07"></polygon><polygon class="k" points="318.16 192.49 352.93 192.49 353.38 187.33 318.61 187.33 318.16 192.49"></polygon><polygon class="l" points="325.39 200.07 344.39 200.07 344.84 194.91 325.84 194.91 325.39 200.07"></polygon><polygon class="k" points="385.35 192.49 420.11 192.49 420.56 187.33 385.79 187.33 385.35 192.49"></polygon><polygon class="l" points="392.57 200.07 411.57 200.07 412.02 194.91 393.02 194.91 392.57 200.07"></polygon><polygon class="k" points="154.54 472.86 199.03 472.86 199.61 466.26 155.12 466.26 154.54 472.86"></polygon><polygon class="l" points="163.78 482.56 188.1 482.56 188.67 475.95 164.36 475.95 163.78 482.56"></polygon><polygon class="k" points="253.27 472.86 297.76 472.86 298.34 466.26 253.85 466.26 253.27 472.86"></polygon><polygon class="l" points="262.51 482.56 286.83 482.56 287.4 475.95 263.09 475.95 262.51 482.56"></polygon><polygon class="k" points="352 472.86 396.49 472.86 397.07 466.26 352.58 466.26 352 472.86"></polygon><polygon class="l" points="361.24 482.56 385.56 482.56 386.13 475.95 361.82 475.95 361.24 482.56"></polygon><path class="l" d="M269.79,179.29A25.61,25.61,0,0,1,250.67,171a26.07,26.07,0,0,1-6.61-19.85,28.85,28.85,0,0,1,28.53-26.21,25.62,25.62,0,0,1,19.12,8.3,26.09,26.09,0,0,1,6.62,19.85A28.87,28.87,0,0,1,269.79,179.29Z"></path><path class="l" d="M336.61,179.29A25.58,25.58,0,0,1,317.49,171a26,26,0,0,1-6.62-19.85,28.86,28.86,0,0,1,28.53-26.21,25.59,25.59,0,0,1,19.12,8.3,26,26,0,0,1,6.62,19.85A28.86,28.86,0,0,1,336.61,179.29Z"></path><path class="l" d="M405.82,179.29A25.58,25.58,0,0,1,386.7,171a26,26,0,0,1-6.62-19.85,28.86,28.86,0,0,1,28.53-26.21,25.56,25.56,0,0,1,19.12,8.3,26,26,0,0,1,6.62,19.85A28.86,28.86,0,0,1,405.82,179.29Z"></path><path class="m" d="M408.81,141.24a11.8,11.8,0,0,0-12.23,9.84,9.63,9.63,0,0,0,8.78,11.45,11.86,11.86,0,0,0,12.25-9.84A9.66,9.66,0,0,0,408.81,141.24ZM407,143.49a1.15,1.15,0,0,1,1.16-1.27,8.7,8.7,0,0,1,5.93,2.42,1.06,1.06,0,0,1-.25,1.66l-5.39,3.43a2,2,0,0,0-.64-.24Zm1.56,8.51a1.67,1.67,0,0,1-1.69,1.36,1.34,1.34,0,0,1-1.23-1.58,1.63,1.63,0,0,1,1.69-1.37A1.35,1.35,0,0,1,408.55,152Zm-5-8.78a1,1,0,0,1,1.42.72l.81,6c-.06.06-.13.09-.19.16l-.23.22-7.29-1.1A10.94,10.94,0,0,1,403.55,143.22Zm-3.45,15.92a8.69,8.69,0,0,1-2.59-5.15,12.37,12.37,0,0,1-.09-1.48,1.18,1.18,0,0,1,1.31-1.12l5.9.91a2.69,2.69,0,0,0,.31,1l-3.19,5.55A1.08,1.08,0,0,1,400.1,159.14Zm12.37.28a10.35,10.35,0,0,1-4.1,1.9,9.37,9.37,0,0,1-4.35,0,1,1,0,0,1-.56-1.48l3.16-5.47a2.55,2.55,0,0,0,1.65-.41l4.35,3.86A1.07,1.07,0,0,1,412.47,159.42Zm3.13-3.75a1.1,1.1,0,0,1-1.67.42l-4.44-3.94a3.49,3.49,0,0,0,0-.79l5.33-3.38a1,1,0,0,1,1.53.49,12.65,12.65,0,0,1,.26,1.31A10.12,10.12,0,0,1,415.6,155.67Zm-6.79-14.43a11.8,11.8,0,0,0-12.23,9.84,9.63,9.63,0,0,0,8.78,11.45,11.86,11.86,0,0,0,12.25-9.84A9.66,9.66,0,0,0,408.81,141.24ZM407,143.49a1.15,1.15,0,0,1,1.16-1.27,8.7,8.7,0,0,1,5.93,2.42,1.06,1.06,0,0,1-.25,1.66l-5.39,3.43a2,2,0,0,0-.64-.24Zm1.56,8.51a1.67,1.67,0,0,1-1.69,1.36,1.34,1.34,0,0,1-1.23-1.58,1.63,1.63,0,0,1,1.69-1.37A1.35,1.35,0,0,1,408.55,152Zm-5-8.78a1,1,0,0,1,1.42.72l.81,6c-.06.06-.13.09-.19.16l-.23.22-7.29-1.1A10.94,10.94,0,0,1,403.55,143.22Zm-3.45,15.92a8.69,8.69,0,0,1-2.59-5.15,12.37,12.37,0,0,1-.09-1.48,1.18,1.18,0,0,1,1.31-1.12l5.9.91a2.69,2.69,0,0,0,.31,1l-3.19,5.55A1.08,1.08,0,0,1,400.1,159.14Zm12.37.28a10.35,10.35,0,0,1-4.1,1.9,9.37,9.37,0,0,1-4.35,0,1,1,0,0,1-.56-1.48l3.16-5.47a2.55,2.55,0,0,0,1.65-.41l4.35,3.86A1.07,1.07,0,0,1,412.47,159.42Zm3.13-3.75a1.1,1.1,0,0,1-1.67.42l-4.44-3.94a3.49,3.49,0,0,0,0-.79l5.33-3.38a1,1,0,0,1,1.53.49,12.65,12.65,0,0,1,.26,1.31A10.12,10.12,0,0,1,415.6,155.67Zm8.48-5.29,1.62-.78a15.25,15.25,0,0,0-.15-1.79,16,16,0,0,0-.32-1.73l-1.74,0a2.39,2.39,0,0,1-1.7-3.95l1.1-1.48a16.66,16.66,0,0,0-2.21-2.63l-1.59.84a2.35,2.35,0,0,1-3.53-2.38l.26-1.74a16.35,16.35,0,0,0-3.32-1.09l-1,1.51a2.49,2.49,0,0,1-4.39-.21l-.63-1.56c-.6.07-1.21.19-1.81.31a16.61,16.61,0,0,0-1.77.48l-.19,1.75a2.71,2.71,0,0,1-4.09,2.05L397.2,137a18.63,18.63,0,0,0-2.84,2.43l.7,1.54a2.77,2.77,0,0,1-2.7,3.75l-1.73-.11a20.09,20.09,0,0,0-1.38,3.44l1.43.91a2.59,2.59,0,0,1-.6,4.43l-1.62.81c0,.57.08,1.17.15,1.76a16,16,0,0,0,.33,1.73l1.74,0a2.38,2.38,0,0,1,1.7,3.94l-1.09,1.47a15.67,15.67,0,0,0,2.19,2.64l1.6-.84a2.34,2.34,0,0,1,3.52,2.38l-.25,1.76a17.8,17.8,0,0,0,3.31,1.08l1-1.5a2.49,2.49,0,0,1,4.39.18l.67,1.57c.57-.07,1.18-.18,1.77-.31s1.2-.29,1.78-.47l.19-1.77a2.71,2.71,0,0,1,4.09-2.05l1.39,1a23.45,23.45,0,0,0,2.83-2.45l-.7-1.54a2.77,2.77,0,0,1,2.7-3.76l1.74.11a20.92,20.92,0,0,0,1.36-3.43l-1.42-.91A2.59,2.59,0,0,1,424.08,150.38Zm-4.83,2.43a13.67,13.67,0,0,1-14.16,11.38A11.14,11.14,0,0,1,394.92,151a13.69,13.69,0,0,1,14.16-11.4A11.17,11.17,0,0,1,419.25,152.81Zm-10.44-11.57a11.8,11.8,0,0,0-12.23,9.84,9.63,9.63,0,0,0,8.78,11.45,11.86,11.86,0,0,0,12.25-9.84A9.66,9.66,0,0,0,408.81,141.24ZM407,143.49a1.15,1.15,0,0,1,1.16-1.27,8.7,8.7,0,0,1,5.93,2.42,1.06,1.06,0,0,1-.25,1.66l-5.39,3.43a2,2,0,0,0-.64-.24Zm1.56,8.51a1.67,1.67,0,0,1-1.69,1.36,1.34,1.34,0,0,1-1.23-1.58,1.63,1.63,0,0,1,1.69-1.37A1.35,1.35,0,0,1,408.55,152Zm-5-8.78a1,1,0,0,1,1.42.72l.81,6c-.06.06-.13.09-.19.16l-.23.22-7.29-1.1A10.94,10.94,0,0,1,403.55,143.22Zm-3.45,15.92a8.69,8.69,0,0,1-2.59-5.15,12.37,12.37,0,0,1-.09-1.48,1.18,1.18,0,0,1,1.31-1.12l5.9.91a2.69,2.69,0,0,0,.31,1l-3.19,5.55A1.08,1.08,0,0,1,400.1,159.14Zm12.37.28a10.35,10.35,0,0,1-4.1,1.9,9.37,9.37,0,0,1-4.35,0,1,1,0,0,1-.56-1.48l3.16-5.47a2.55,2.55,0,0,0,1.65-.41l4.35,3.86A1.07,1.07,0,0,1,412.47,159.42Zm3.92-10.95a12.65,12.65,0,0,1,.26,1.31,10.12,10.12,0,0,1-1,5.89,1.1,1.1,0,0,1-1.67.42l-4.44-3.94a3.49,3.49,0,0,0,0-.79l5.33-3.38A1,1,0,0,1,416.39,148.47Z"></path><path class="m" d="M338.94,141.24a11.8,11.8,0,0,0-12.23,9.84,9.63,9.63,0,0,0,8.78,11.45,11.84,11.84,0,0,0,12.24-9.84A9.64,9.64,0,0,0,338.94,141.24Zm-1.82,2.25a1.15,1.15,0,0,1,1.16-1.27,8.7,8.7,0,0,1,5.93,2.42,1.06,1.06,0,0,1-.26,1.66l-5.38,3.43a2.06,2.06,0,0,0-.64-.24Zm1.56,8.51a1.68,1.68,0,0,1-1.69,1.36,1.33,1.33,0,0,1-1.23-1.58,1.63,1.63,0,0,1,1.69-1.37A1.35,1.35,0,0,1,338.68,152Zm-5-8.78a1,1,0,0,1,1.42.72l.81,6c-.06.06-.13.09-.19.16l-.24.22-7.28-1.1A10.94,10.94,0,0,1,333.68,143.22Zm-3.45,15.92a8.69,8.69,0,0,1-2.59-5.15,12.37,12.37,0,0,1-.09-1.48,1.18,1.18,0,0,1,1.31-1.12l5.9.91a2.69,2.69,0,0,0,.31,1l-3.19,5.55A1.08,1.08,0,0,1,330.23,159.14Zm12.37.28a10.33,10.33,0,0,1-4.11,1.9,9.38,9.38,0,0,1-4.35,0,1,1,0,0,1-.55-1.48l3.16-5.47a2.55,2.55,0,0,0,1.65-.41l4.34,3.86A1.06,1.06,0,0,1,342.6,159.42Zm3.13-3.75a1.1,1.1,0,0,1-1.67.42l-4.44-3.94a3.49,3.49,0,0,0,0-.79L345,148a1,1,0,0,1,1.53.49,10.48,10.48,0,0,1,.25,1.31A10,10,0,0,1,345.73,155.67Zm-6.79-14.43a11.8,11.8,0,0,0-12.23,9.84,9.63,9.63,0,0,0,8.78,11.45,11.84,11.84,0,0,0,12.24-9.84A9.64,9.64,0,0,0,338.94,141.24Zm-1.82,2.25a1.15,1.15,0,0,1,1.16-1.27,8.7,8.7,0,0,1,5.93,2.42,1.06,1.06,0,0,1-.26,1.66l-5.38,3.43a2.06,2.06,0,0,0-.64-.24Zm1.56,8.51a1.68,1.68,0,0,1-1.69,1.36,1.33,1.33,0,0,1-1.23-1.58,1.63,1.63,0,0,1,1.69-1.37A1.35,1.35,0,0,1,338.68,152Zm-5-8.78a1,1,0,0,1,1.42.72l.81,6c-.06.06-.13.09-.19.16l-.24.22-7.28-1.1A10.94,10.94,0,0,1,333.68,143.22Zm-3.45,15.92a8.69,8.69,0,0,1-2.59-5.15,12.37,12.37,0,0,1-.09-1.48,1.18,1.18,0,0,1,1.31-1.12l5.9.91a2.69,2.69,0,0,0,.31,1l-3.19,5.55A1.08,1.08,0,0,1,330.23,159.14Zm12.37.28a10.33,10.33,0,0,1-4.11,1.9,9.38,9.38,0,0,1-4.35,0,1,1,0,0,1-.55-1.48l3.16-5.47a2.55,2.55,0,0,0,1.65-.41l4.34,3.86A1.06,1.06,0,0,1,342.6,159.42Zm3.13-3.75a1.1,1.1,0,0,1-1.67.42l-4.44-3.94a3.49,3.49,0,0,0,0-.79L345,148a1,1,0,0,1,1.53.49,10.48,10.48,0,0,1,.25,1.31A10,10,0,0,1,345.73,155.67Zm8.48-5.29,1.62-.78a13.38,13.38,0,0,0-.16-1.79,16,16,0,0,0-.31-1.73l-1.74,0a2.39,2.39,0,0,1-1.7-3.95l1.1-1.48A16.21,16.21,0,0,0,350.8,138l-1.58.84a2.35,2.35,0,0,1-3.53-2.38l.26-1.74a16.35,16.35,0,0,0-3.32-1.09l-1,1.51a2.49,2.49,0,0,1-4.39-.21l-.64-1.56c-.6.07-1.2.19-1.8.31a16,16,0,0,0-1.77.48l-.19,1.75a2.72,2.72,0,0,1-4.1,2.05l-1.38-.95a19.05,19.05,0,0,0-2.83,2.43l.69,1.54a2.76,2.76,0,0,1-2.69,3.75l-1.73-.11a19.31,19.31,0,0,0-1.38,3.44l1.42.91a2.58,2.58,0,0,1-.59,4.43l-1.62.81c0,.57.08,1.17.15,1.76s.19,1.17.32,1.73l1.75,0a2.39,2.39,0,0,1,1.7,3.94l-1.09,1.47a15.67,15.67,0,0,0,2.19,2.64l1.59-.84a2.35,2.35,0,0,1,3.53,2.38l-.25,1.76a17.8,17.8,0,0,0,3.31,1.08l1-1.5a2.5,2.5,0,0,1,4.4.18l.66,1.57c.58-.07,1.19-.18,1.78-.31s1.19-.29,1.78-.47l.18-1.77a2.72,2.72,0,0,1,4.1-2.05l1.38,1a22.8,22.8,0,0,0,2.84-2.45l-.7-1.54a2.77,2.77,0,0,1,2.7-3.76l1.74.11a20.92,20.92,0,0,0,1.36-3.43l-1.42-.91A2.59,2.59,0,0,1,354.21,150.38Zm-4.83,2.43a13.67,13.67,0,0,1-14.16,11.38A11.14,11.14,0,0,1,325.05,151a13.69,13.69,0,0,1,14.16-11.4A11.17,11.17,0,0,1,349.38,152.81Zm-10.44-11.57a11.8,11.8,0,0,0-12.23,9.84,9.63,9.63,0,0,0,8.78,11.45,11.84,11.84,0,0,0,12.24-9.84A9.64,9.64,0,0,0,338.94,141.24Zm-1.82,2.25a1.15,1.15,0,0,1,1.16-1.27,8.7,8.7,0,0,1,5.93,2.42,1.06,1.06,0,0,1-.26,1.66l-5.38,3.43a2.06,2.06,0,0,0-.64-.24Zm1.56,8.51a1.68,1.68,0,0,1-1.69,1.36,1.33,1.33,0,0,1-1.23-1.58,1.63,1.63,0,0,1,1.69-1.37A1.35,1.35,0,0,1,338.68,152Zm-5-8.78a1,1,0,0,1,1.42.72l.81,6c-.06.06-.13.09-.19.16l-.24.22-7.28-1.1A10.94,10.94,0,0,1,333.68,143.22Zm-3.45,15.92a8.69,8.69,0,0,1-2.59-5.15,12.37,12.37,0,0,1-.09-1.48,1.18,1.18,0,0,1,1.31-1.12l5.9.91a2.69,2.69,0,0,0,.31,1l-3.19,5.55A1.08,1.08,0,0,1,330.23,159.14Zm12.37.28a10.33,10.33,0,0,1-4.11,1.9,9.38,9.38,0,0,1-4.35,0,1,1,0,0,1-.55-1.48l3.16-5.47a2.55,2.55,0,0,0,1.65-.41l4.34,3.86A1.06,1.06,0,0,1,342.6,159.42Zm3.92-10.95a10.48,10.48,0,0,1,.25,1.31,10,10,0,0,1-1,5.89,1.1,1.1,0,0,1-1.67.42l-4.44-3.94a3.49,3.49,0,0,0,0-.79L345,148A1,1,0,0,1,346.52,148.47Z"></path><path class="m" d="M272.53,141.24a11.8,11.8,0,0,0-12.23,9.84,9.64,9.64,0,0,0,8.78,11.45,11.86,11.86,0,0,0,12.25-9.84A9.65,9.65,0,0,0,272.53,141.24Zm-1.82,2.25a1.16,1.16,0,0,1,1.17-1.27,8.74,8.74,0,0,1,5.93,2.42,1.06,1.06,0,0,1-.26,1.66l-5.39,3.43a1.92,1.92,0,0,0-.63-.24Zm1.56,8.51a1.67,1.67,0,0,1-1.69,1.36,1.35,1.35,0,0,1-1.23-1.58,1.64,1.64,0,0,1,1.7-1.37A1.35,1.35,0,0,1,272.27,152Zm-5-8.78a1,1,0,0,1,1.42.72l.81,6c-.06.06-.13.09-.19.16l-.23.22-7.28-1.1A11,11,0,0,1,267.27,143.22Zm-3.45,15.92a8.69,8.69,0,0,1-2.59-5.15,12.34,12.34,0,0,1-.08-1.48,1.17,1.17,0,0,1,1.3-1.12l5.9.91a2.53,2.53,0,0,0,.32,1l-3.19,5.55A1.09,1.09,0,0,1,263.82,159.14Zm12.37.28a10.35,10.35,0,0,1-4.1,1.9,9.37,9.37,0,0,1-4.35,0,1,1,0,0,1-.56-1.48l3.17-5.47a2.54,2.54,0,0,0,1.64-.41l4.35,3.86A1.06,1.06,0,0,1,276.19,159.42Zm3.13-3.75a1.09,1.09,0,0,1-1.66.42l-4.45-3.94a3.49,3.49,0,0,0,0-.79l5.34-3.38a1,1,0,0,1,1.53.49c.1.42.18.85.25,1.31A10,10,0,0,1,279.32,155.67Zm-6.79-14.43a11.8,11.8,0,0,0-12.23,9.84,9.64,9.64,0,0,0,8.78,11.45,11.86,11.86,0,0,0,12.25-9.84A9.65,9.65,0,0,0,272.53,141.24Zm-1.82,2.25a1.16,1.16,0,0,1,1.17-1.27,8.74,8.74,0,0,1,5.93,2.42,1.06,1.06,0,0,1-.26,1.66l-5.39,3.43a1.92,1.92,0,0,0-.63-.24Zm1.56,8.51a1.67,1.67,0,0,1-1.69,1.36,1.35,1.35,0,0,1-1.23-1.58,1.64,1.64,0,0,1,1.7-1.37A1.35,1.35,0,0,1,272.27,152Zm-5-8.78a1,1,0,0,1,1.42.72l.81,6c-.06.06-.13.09-.19.16l-.23.22-7.28-1.1A11,11,0,0,1,267.27,143.22Zm-3.45,15.92a8.69,8.69,0,0,1-2.59-5.15,12.34,12.34,0,0,1-.08-1.48,1.17,1.17,0,0,1,1.3-1.12l5.9.91a2.53,2.53,0,0,0,.32,1l-3.19,5.55A1.09,1.09,0,0,1,263.82,159.14Zm12.37.28a10.35,10.35,0,0,1-4.1,1.9,9.37,9.37,0,0,1-4.35,0,1,1,0,0,1-.56-1.48l3.17-5.47a2.54,2.54,0,0,0,1.64-.41l4.35,3.86A1.06,1.06,0,0,1,276.19,159.42Zm3.13-3.75a1.09,1.09,0,0,1-1.66.42l-4.45-3.94a3.49,3.49,0,0,0,0-.79l5.34-3.38a1,1,0,0,1,1.53.49c.1.42.18.85.25,1.31A10,10,0,0,1,279.32,155.67Zm8.49-5.29,1.61-.78a15.25,15.25,0,0,0-.15-1.79c-.07-.6-.19-1.16-.31-1.73l-1.75,0a2.39,2.39,0,0,1-1.7-3.95l1.1-1.48A16.14,16.14,0,0,0,284.4,138l-1.58.84a2.36,2.36,0,0,1-3.54-2.38l.26-1.74a16.35,16.35,0,0,0-3.32-1.09l-1,1.51a2.49,2.49,0,0,1-4.38-.21l-.64-1.56c-.6.07-1.21.19-1.8.31a16.15,16.15,0,0,0-1.78.48l-.18,1.75a2.72,2.72,0,0,1-4.1,2.05l-1.38-.95a18.63,18.63,0,0,0-2.84,2.43l.7,1.54a2.77,2.77,0,0,1-2.7,3.75l-1.73-.11A20.05,20.05,0,0,0,253,148l1.42.91a2.59,2.59,0,0,1-.59,4.43l-1.63.81c0,.57.08,1.17.15,1.76s.19,1.17.33,1.73l1.74,0a2.38,2.38,0,0,1,1.7,3.94L255,163.14a15.61,15.61,0,0,0,2.18,2.64l1.6-.84a2.35,2.35,0,0,1,3.53,2.38l-.26,1.76a17.8,17.8,0,0,0,3.31,1.08l1-1.5a2.5,2.5,0,0,1,4.4.18l.66,1.57c.58-.07,1.18-.18,1.77-.31s1.2-.29,1.78-.47l.19-1.77a2.72,2.72,0,0,1,4.1-2.05l1.38,1a22.7,22.7,0,0,0,2.83-2.45l-.69-1.54a2.76,2.76,0,0,1,2.69-3.76l1.74.11a20.11,20.11,0,0,0,1.37-3.43l-1.42-.91C285.62,153.78,286,151.27,287.81,150.38ZM283,152.81a13.67,13.67,0,0,1-14.16,11.38A11.14,11.14,0,0,1,258.64,151a13.69,13.69,0,0,1,14.16-11.4A11.17,11.17,0,0,1,283,152.81Zm-10.44-11.57a11.8,11.8,0,0,0-12.23,9.84,9.64,9.64,0,0,0,8.78,11.45,11.86,11.86,0,0,0,12.25-9.84A9.65,9.65,0,0,0,272.53,141.24Zm-1.82,2.25a1.16,1.16,0,0,1,1.17-1.27,8.74,8.74,0,0,1,5.93,2.42,1.06,1.06,0,0,1-.26,1.66l-5.39,3.43a1.92,1.92,0,0,0-.63-.24Zm1.56,8.51a1.67,1.67,0,0,1-1.69,1.36,1.35,1.35,0,0,1-1.23-1.58,1.64,1.64,0,0,1,1.7-1.37A1.35,1.35,0,0,1,272.27,152Zm-5-8.78a1,1,0,0,1,1.42.72l.81,6c-.06.06-.13.09-.19.16l-.23.22-7.28-1.1A11,11,0,0,1,267.27,143.22Zm-3.45,15.92a8.69,8.69,0,0,1-2.59-5.15,12.34,12.34,0,0,1-.08-1.48,1.17,1.17,0,0,1,1.3-1.12l5.9.91a2.53,2.53,0,0,0,.32,1l-3.19,5.55A1.09,1.09,0,0,1,263.82,159.14Zm12.37.28a10.35,10.35,0,0,1-4.1,1.9,9.37,9.37,0,0,1-4.35,0,1,1,0,0,1-.56-1.48l3.17-5.47a2.54,2.54,0,0,0,1.64-.41l4.35,3.86A1.06,1.06,0,0,1,276.19,159.42Zm3.93-10.95c.1.42.18.85.25,1.31a10,10,0,0,1-1.05,5.89,1.09,1.09,0,0,1-1.66.42l-4.45-3.94a3.49,3.49,0,0,0,0-.79l5.34-3.38A1,1,0,0,1,280.12,148.47Z"></path><path class="l" d="M201,179.29A25.58,25.58,0,0,1,181.86,171a26,26,0,0,1-6.62-19.85,28.86,28.86,0,0,1,28.53-26.21,25.59,25.59,0,0,1,19.12,8.3,26,26,0,0,1,6.62,19.85A28.86,28.86,0,0,1,201,179.29Z"></path><path class="m" d="M203.66,141.24a11.8,11.8,0,0,0-12.23,9.84,9.63,9.63,0,0,0,8.78,11.45,11.84,11.84,0,0,0,12.24-9.84A9.65,9.65,0,0,0,203.66,141.24Zm-1.82,2.25a1.15,1.15,0,0,1,1.16-1.27,8.75,8.75,0,0,1,5.94,2.42,1.06,1.06,0,0,1-.27,1.66l-5.38,3.43a2.06,2.06,0,0,0-.64-.24ZM203.4,152a1.67,1.67,0,0,1-1.69,1.36,1.34,1.34,0,0,1-1.23-1.58,1.63,1.63,0,0,1,1.69-1.37A1.35,1.35,0,0,1,203.4,152Zm-5-8.78a1,1,0,0,1,1.42.72l.81,6c-.06.06-.13.09-.19.16l-.24.22-7.28-1.1A10.94,10.94,0,0,1,198.4,143.22ZM195,159.14a8.69,8.69,0,0,1-2.59-5.15,12.37,12.37,0,0,1-.09-1.48,1.18,1.18,0,0,1,1.31-1.12l5.9.91a2.69,2.69,0,0,0,.31,1l-3.19,5.55A1.08,1.08,0,0,1,195,159.14Zm12.37.28a10.35,10.35,0,0,1-4.1,1.9,9.42,9.42,0,0,1-4.36,0,1,1,0,0,1-.55-1.48l3.16-5.47a2.55,2.55,0,0,0,1.65-.41l4.34,3.86A1.06,1.06,0,0,1,207.32,159.42Zm3.13-3.75a1.09,1.09,0,0,1-1.66.42l-4.45-3.94a3.49,3.49,0,0,0,0-.79l5.33-3.38a1,1,0,0,1,1.53.49,12.65,12.65,0,0,1,.26,1.31A10.12,10.12,0,0,1,210.45,155.67Zm-6.79-14.43a11.8,11.8,0,0,0-12.23,9.84,9.63,9.63,0,0,0,8.78,11.45,11.84,11.84,0,0,0,12.24-9.84A9.65,9.65,0,0,0,203.66,141.24Zm-1.82,2.25a1.15,1.15,0,0,1,1.16-1.27,8.75,8.75,0,0,1,5.94,2.42,1.06,1.06,0,0,1-.27,1.66l-5.38,3.43a2.06,2.06,0,0,0-.64-.24ZM203.4,152a1.67,1.67,0,0,1-1.69,1.36,1.34,1.34,0,0,1-1.23-1.58,1.63,1.63,0,0,1,1.69-1.37A1.35,1.35,0,0,1,203.4,152Zm-5-8.78a1,1,0,0,1,1.42.72l.81,6c-.06.06-.13.09-.19.16l-.24.22-7.28-1.1A10.94,10.94,0,0,1,198.4,143.22ZM195,159.14a8.69,8.69,0,0,1-2.59-5.15,12.37,12.37,0,0,1-.09-1.48,1.18,1.18,0,0,1,1.31-1.12l5.9.91a2.69,2.69,0,0,0,.31,1l-3.19,5.55A1.08,1.08,0,0,1,195,159.14Zm12.37.28a10.35,10.35,0,0,1-4.1,1.9,9.42,9.42,0,0,1-4.36,0,1,1,0,0,1-.55-1.48l3.16-5.47a2.55,2.55,0,0,0,1.65-.41l4.34,3.86A1.06,1.06,0,0,1,207.32,159.42Zm3.13-3.75a1.09,1.09,0,0,1-1.66.42l-4.45-3.94a3.49,3.49,0,0,0,0-.79l5.33-3.38a1,1,0,0,1,1.53.49,12.65,12.65,0,0,1,.26,1.31A10.12,10.12,0,0,1,210.45,155.67Zm8.48-5.29,1.62-.78a13.38,13.38,0,0,0-.16-1.79,16,16,0,0,0-.31-1.73l-1.74,0a2.39,2.39,0,0,1-1.7-3.95l1.1-1.48a16.66,16.66,0,0,0-2.21-2.63l-1.59.84a2.35,2.35,0,0,1-3.53-2.38l.26-1.74a16.35,16.35,0,0,0-3.32-1.09l-1,1.51a2.49,2.49,0,0,1-4.39-.21l-.63-1.56c-.61.07-1.21.19-1.8.31a15.58,15.58,0,0,0-1.78.48l-.19,1.75a2.72,2.72,0,0,1-4.1,2.05L192,137a19.05,19.05,0,0,0-2.83,2.43l.7,1.54a2.77,2.77,0,0,1-2.7,3.75l-1.73-.11A20.09,20.09,0,0,0,184.1,148l1.42.91a2.58,2.58,0,0,1-.59,4.43l-1.62.81c0,.57.08,1.17.15,1.76s.19,1.17.32,1.73l1.75,0a2.38,2.38,0,0,1,1.7,3.94l-1.09,1.47a15.67,15.67,0,0,0,2.19,2.64l1.59-.84a2.35,2.35,0,0,1,3.54,2.38l-.26,1.76a17.8,17.8,0,0,0,3.31,1.08l1-1.5a2.49,2.49,0,0,1,4.39.18l.67,1.57c.57-.07,1.18-.18,1.77-.31s1.2-.29,1.78-.47l.18-1.77a2.72,2.72,0,0,1,4.1-2.05l1.38,1a22.1,22.1,0,0,0,2.84-2.45l-.7-1.54a2.77,2.77,0,0,1,2.7-3.76l1.74.11a21.9,21.9,0,0,0,1.37-3.43l-1.43-.91A2.59,2.59,0,0,1,218.93,150.38Zm-4.83,2.43a13.67,13.67,0,0,1-14.16,11.38A11.14,11.14,0,0,1,189.77,151a13.69,13.69,0,0,1,14.16-11.4A11.17,11.17,0,0,1,214.1,152.81Zm-10.44-11.57a11.8,11.8,0,0,0-12.23,9.84,9.63,9.63,0,0,0,8.78,11.45,11.84,11.84,0,0,0,12.24-9.84A9.65,9.65,0,0,0,203.66,141.24Zm-1.82,2.25a1.15,1.15,0,0,1,1.16-1.27,8.75,8.75,0,0,1,5.94,2.42,1.06,1.06,0,0,1-.27,1.66l-5.38,3.43a2.06,2.06,0,0,0-.64-.24ZM203.4,152a1.67,1.67,0,0,1-1.69,1.36,1.34,1.34,0,0,1-1.23-1.58,1.63,1.63,0,0,1,1.69-1.37A1.35,1.35,0,0,1,203.4,152Zm-5-8.78a1,1,0,0,1,1.42.72l.81,6c-.06.06-.13.09-.19.16l-.24.22-7.28-1.1A10.94,10.94,0,0,1,198.4,143.22ZM195,159.14a8.69,8.69,0,0,1-2.59-5.15,12.37,12.37,0,0,1-.09-1.48,1.18,1.18,0,0,1,1.31-1.12l5.9.91a2.69,2.69,0,0,0,.31,1l-3.19,5.55A1.08,1.08,0,0,1,195,159.14Zm12.37.28a10.35,10.35,0,0,1-4.1,1.9,9.42,9.42,0,0,1-4.36,0,1,1,0,0,1-.55-1.48l3.16-5.47a2.55,2.55,0,0,0,1.65-.41l4.34,3.86A1.06,1.06,0,0,1,207.32,159.42Zm3.92-10.95a12.65,12.65,0,0,1,.26,1.31,10.12,10.12,0,0,1-1.05,5.89,1.09,1.09,0,0,1-1.66.42l-4.45-3.94a3.49,3.49,0,0,0,0-.79l5.33-3.38A1,1,0,0,1,211.24,148.47Z"></path><path class="m" d="M381,419.88a7.64,7.64,0,0,0-7.91,6.37,6.22,6.22,0,0,0,5.68,7.39,7.64,7.64,0,0,0,7.91-6.36A6.24,6.24,0,0,0,381,419.88Zm-1.18,1.45a.74.74,0,0,1,.75-.81,5.65,5.65,0,0,1,3.84,1.56.68.68,0,0,1-.17,1.07l-3.48,2.22a1.46,1.46,0,0,0-.41-.16Zm1,5.5a1.07,1.07,0,0,1-1.09.88.85.85,0,0,1-.79-1,1,1,0,0,1,1.09-.88A.87.87,0,0,1,380.8,426.83Zm-3.23-5.67a.63.63,0,0,1,.92.47l.52,3.86-.13.11-.14.14L374,425A7.06,7.06,0,0,1,377.57,421.16Zm-2.23,10.29a5.54,5.54,0,0,1-1.67-3.33,7.73,7.73,0,0,1-.06-1,.76.76,0,0,1,.84-.71l3.82.58a1.66,1.66,0,0,0,.2.63l-2.06,3.59A.7.7,0,0,1,375.34,431.45Zm8,.18a6.65,6.65,0,0,1-2.65,1.23,6.19,6.19,0,0,1-2.81,0,.63.63,0,0,1-.36-1l2.05-3.54a1.65,1.65,0,0,0,1.06-.26l2.81,2.49A.69.69,0,0,1,383.33,431.63Zm2-2.42a.72.72,0,0,1-1.08.27l-2.87-2.55a2.16,2.16,0,0,0,0-.51l3.45-2.18a.64.64,0,0,1,1,.32,7.34,7.34,0,0,1,.16.84A6.48,6.48,0,0,1,385.36,429.21ZM381,419.88a7.64,7.64,0,0,0-7.91,6.37,6.22,6.22,0,0,0,5.68,7.39,7.64,7.64,0,0,0,7.91-6.36A6.24,6.24,0,0,0,381,419.88Zm-1.18,1.45a.74.74,0,0,1,.75-.81,5.65,5.65,0,0,1,3.84,1.56.68.68,0,0,1-.17,1.07l-3.48,2.22a1.46,1.46,0,0,0-.41-.16Zm1,5.5a1.07,1.07,0,0,1-1.09.88.85.85,0,0,1-.79-1,1,1,0,0,1,1.09-.88A.87.87,0,0,1,380.8,426.83Zm-3.23-5.67a.63.63,0,0,1,.92.47l.52,3.86-.13.11-.14.14L374,425A7.06,7.06,0,0,1,377.57,421.16Zm-2.23,10.29a5.54,5.54,0,0,1-1.67-3.33,7.73,7.73,0,0,1-.06-1,.76.76,0,0,1,.84-.71l3.82.58a1.66,1.66,0,0,0,.2.63l-2.06,3.59A.7.7,0,0,1,375.34,431.45Zm8,.18a6.65,6.65,0,0,1-2.65,1.23,6.19,6.19,0,0,1-2.81,0,.63.63,0,0,1-.36-1l2.05-3.54a1.65,1.65,0,0,0,1.06-.26l2.81,2.49A.69.69,0,0,1,383.33,431.63Zm2-2.42a.72.72,0,0,1-1.08.27l-2.87-2.55a2.16,2.16,0,0,0,0-.51l3.45-2.18a.64.64,0,0,1,1,.32,7.34,7.34,0,0,1,.16.84A6.48,6.48,0,0,1,385.36,429.21Zm5.48-3.42,1-.51a7.34,7.34,0,0,0-.1-1.15,10.5,10.5,0,0,0-.2-1.12l-1.12,0a1.55,1.55,0,0,1-1.1-2.56l.71-.95a10.48,10.48,0,0,0-1.43-1.7l-1,.54a1.52,1.52,0,0,1-2.28-1.54l.17-1.12a10.43,10.43,0,0,0-2.15-.71l-.67,1a1.61,1.61,0,0,1-2.83-.14l-.41-1c-.4.05-.79.13-1.17.2s-.76.19-1.15.31l-.12,1.14a1.75,1.75,0,0,1-2.65,1.32l-.89-.61a12.28,12.28,0,0,0-1.83,1.56l.45,1a1.79,1.79,0,0,1-1.74,2.43l-1.12-.07a12.55,12.55,0,0,0-.89,2.22l.92.59a1.67,1.67,0,0,1-.38,2.86l-1.05.52c0,.37.05.76.09,1.14s.13.76.22,1.12l1.12,0a1.54,1.54,0,0,1,1.1,2.55l-.7,1a9.87,9.87,0,0,0,1.41,1.7l1-.54a1.52,1.52,0,0,1,2.28,1.54l-.16,1.14a11.63,11.63,0,0,0,2.14.69l.67-1a1.62,1.62,0,0,1,2.84.12l.43,1c.37-.05.76-.12,1.15-.2s.77-.19,1.15-.31l.11-1.14a1.76,1.76,0,0,1,2.65-1.33l.89.64a14.49,14.49,0,0,0,1.84-1.58l-.45-1a1.79,1.79,0,0,1,1.74-2.43l1.12.07a12.77,12.77,0,0,0,.89-2.21l-.92-.59A1.67,1.67,0,0,1,390.84,425.79Zm-3.12,1.57a8.84,8.84,0,0,1-9.15,7.36,7.21,7.21,0,0,1-6.58-8.55,8.84,8.84,0,0,1,9.15-7.37A7.21,7.21,0,0,1,387.72,427.36ZM381,419.88a7.64,7.64,0,0,0-7.91,6.37,6.22,6.22,0,0,0,5.68,7.39,7.64,7.64,0,0,0,7.91-6.36A6.24,6.24,0,0,0,381,419.88Zm-1.18,1.45a.74.74,0,0,1,.75-.81,5.65,5.65,0,0,1,3.84,1.56.68.68,0,0,1-.17,1.07l-3.48,2.22a1.46,1.46,0,0,0-.41-.16Zm1,5.5a1.07,1.07,0,0,1-1.09.88.85.85,0,0,1-.79-1,1,1,0,0,1,1.09-.88A.87.87,0,0,1,380.8,426.83Zm-3.23-5.67a.63.63,0,0,1,.92.47l.52,3.86-.13.11-.14.14L374,425A7.06,7.06,0,0,1,377.57,421.16Zm-2.23,10.29a5.54,5.54,0,0,1-1.67-3.33,7.73,7.73,0,0,1-.06-1,.76.76,0,0,1,.84-.71l3.82.58a1.66,1.66,0,0,0,.2.63l-2.06,3.59A.7.7,0,0,1,375.34,431.45Zm8,.18a6.65,6.65,0,0,1-2.65,1.23,6.19,6.19,0,0,1-2.81,0,.63.63,0,0,1-.36-1l2.05-3.54a1.65,1.65,0,0,0,1.06-.26l2.81,2.49A.69.69,0,0,1,383.33,431.63Zm2.54-7.07a7.34,7.34,0,0,1,.16.84,6.48,6.48,0,0,1-.67,3.81.72.72,0,0,1-1.08.27l-2.87-2.55a2.16,2.16,0,0,0,0-.51l3.45-2.18A.64.64,0,0,1,385.87,424.56Z"></path><path class="m" d="M281,419.88a7.64,7.64,0,0,0-7.91,6.37,6.22,6.22,0,0,0,5.68,7.39,7.64,7.64,0,0,0,7.91-6.36A6.24,6.24,0,0,0,281,419.88Zm-1.18,1.45a.74.74,0,0,1,.75-.81,5.65,5.65,0,0,1,3.84,1.56.68.68,0,0,1-.17,1.07l-3.48,2.22a1.46,1.46,0,0,0-.41-.16Zm1,5.5a1.07,1.07,0,0,1-1.09.88.85.85,0,0,1-.79-1,1,1,0,0,1,1.09-.88A.87.87,0,0,1,280.78,426.83Zm-3.23-5.67a.63.63,0,0,1,.92.47l.52,3.86a1.2,1.2,0,0,0-.12.11l-.15.14L274,425A7.06,7.06,0,0,1,277.55,421.16Zm-2.23,10.29a5.54,5.54,0,0,1-1.67-3.33,7.73,7.73,0,0,1-.06-1,.76.76,0,0,1,.84-.71l3.82.58a1.66,1.66,0,0,0,.2.63l-2.06,3.59A.7.7,0,0,1,275.32,431.45Zm8,.18a6.76,6.76,0,0,1-2.66,1.23,6.19,6.19,0,0,1-2.81,0,.63.63,0,0,1-.36-1l2.05-3.54a1.65,1.65,0,0,0,1.06-.26l2.81,2.49A.7.7,0,0,1,283.32,431.63Zm2-2.42a.72.72,0,0,1-1.08.27l-2.87-2.55a2.16,2.16,0,0,0,0-.51l3.45-2.18a.64.64,0,0,1,1,.32,7.34,7.34,0,0,1,.16.84A6.48,6.48,0,0,1,285.34,429.21ZM281,419.88a7.64,7.64,0,0,0-7.91,6.37,6.22,6.22,0,0,0,5.68,7.39,7.64,7.64,0,0,0,7.91-6.36A6.24,6.24,0,0,0,281,419.88Zm-1.18,1.45a.74.74,0,0,1,.75-.81,5.65,5.65,0,0,1,3.84,1.56.68.68,0,0,1-.17,1.07l-3.48,2.22a1.46,1.46,0,0,0-.41-.16Zm1,5.5a1.07,1.07,0,0,1-1.09.88.85.85,0,0,1-.79-1,1,1,0,0,1,1.09-.88A.87.87,0,0,1,280.78,426.83Zm-3.23-5.67a.63.63,0,0,1,.92.47l.52,3.86a1.2,1.2,0,0,0-.12.11l-.15.14L274,425A7.06,7.06,0,0,1,277.55,421.16Zm-2.23,10.29a5.54,5.54,0,0,1-1.67-3.33,7.73,7.73,0,0,1-.06-1,.76.76,0,0,1,.84-.71l3.82.58a1.66,1.66,0,0,0,.2.63l-2.06,3.59A.7.7,0,0,1,275.32,431.45Zm8,.18a6.76,6.76,0,0,1-2.66,1.23,6.19,6.19,0,0,1-2.81,0,.63.63,0,0,1-.36-1l2.05-3.54a1.65,1.65,0,0,0,1.06-.26l2.81,2.49A.7.7,0,0,1,283.32,431.63Zm2-2.42a.72.72,0,0,1-1.08.27l-2.87-2.55a2.16,2.16,0,0,0,0-.51l3.45-2.18a.64.64,0,0,1,1,.32,7.34,7.34,0,0,1,.16.84A6.48,6.48,0,0,1,285.34,429.21Zm5.48-3.42,1-.51a8.77,8.77,0,0,0-.09-1.15c0-.38-.13-.75-.21-1.12l-1.13,0a1.55,1.55,0,0,1-1.09-2.56l.71-.95a10.48,10.48,0,0,0-1.43-1.7l-1,.54a1.52,1.52,0,0,1-2.28-1.54l.17-1.12a10.63,10.63,0,0,0-2.15-.71l-.67,1a1.61,1.61,0,0,1-2.83-.14l-.41-1c-.39.05-.79.13-1.17.2s-.76.19-1.15.31l-.12,1.14a1.75,1.75,0,0,1-2.65,1.32l-.89-.61a12.81,12.81,0,0,0-1.83,1.56l.45,1a1.79,1.79,0,0,1-1.74,2.43l-1.12-.07a13.36,13.36,0,0,0-.89,2.22l.92.59a1.67,1.67,0,0,1-.38,2.86l-1.05.52c0,.37.05.76.09,1.14s.13.76.22,1.12l1.12,0a1.54,1.54,0,0,1,1.1,2.55l-.7,1a10.35,10.35,0,0,0,1.41,1.7l1-.54a1.52,1.52,0,0,1,2.28,1.54l-.16,1.14a11.63,11.63,0,0,0,2.14.69l.67-1a1.62,1.62,0,0,1,2.84.12l.43,1c.37-.05.76-.12,1.15-.2s.77-.19,1.14-.31l.12-1.14a1.76,1.76,0,0,1,2.65-1.33l.89.64a14.49,14.49,0,0,0,1.84-1.58l-.45-1a1.79,1.79,0,0,1,1.74-2.43l1.12.07a12.77,12.77,0,0,0,.89-2.21l-.92-.59A1.67,1.67,0,0,1,290.82,425.79Zm-3.12,1.57a8.84,8.84,0,0,1-9.15,7.36,7.21,7.21,0,0,1-6.58-8.55,8.84,8.84,0,0,1,9.15-7.37A7.21,7.21,0,0,1,287.7,427.36ZM281,419.88a7.64,7.64,0,0,0-7.91,6.37,6.22,6.22,0,0,0,5.68,7.39,7.64,7.64,0,0,0,7.91-6.36A6.24,6.24,0,0,0,281,419.88Zm-1.18,1.45a.74.74,0,0,1,.75-.81,5.65,5.65,0,0,1,3.84,1.56.68.68,0,0,1-.17,1.07l-3.48,2.22a1.46,1.46,0,0,0-.41-.16Zm1,5.5a1.07,1.07,0,0,1-1.09.88.85.85,0,0,1-.79-1,1,1,0,0,1,1.09-.88A.87.87,0,0,1,280.78,426.83Zm-3.23-5.67a.63.63,0,0,1,.92.47l.52,3.86a1.2,1.2,0,0,0-.12.11l-.15.14L274,425A7.06,7.06,0,0,1,277.55,421.16Zm-2.23,10.29a5.54,5.54,0,0,1-1.67-3.33,7.73,7.73,0,0,1-.06-1,.76.76,0,0,1,.84-.71l3.82.58a1.66,1.66,0,0,0,.2.63l-2.06,3.59A.7.7,0,0,1,275.32,431.45Zm8,.18a6.76,6.76,0,0,1-2.66,1.23,6.19,6.19,0,0,1-2.81,0,.63.63,0,0,1-.36-1l2.05-3.54a1.65,1.65,0,0,0,1.06-.26l2.81,2.49A.7.7,0,0,1,283.32,431.63Zm2.53-7.07a7.34,7.34,0,0,1,.16.84,6.48,6.48,0,0,1-.67,3.81.72.72,0,0,1-1.08.27l-2.87-2.55a2.16,2.16,0,0,0,0-.51l3.45-2.18A.64.64,0,0,1,285.85,424.56Z"></path><path class="n" d="M178.09,446.82a1.08,1.08,0,0,1-1.09-1.06,1,1,0,0,1,1-1.07h.05a18.25,18.25,0,0,0,2-.11,1.08,1.08,0,0,1,1.18.95,1.07,1.07,0,0,1-.95,1.17A19.82,19.82,0,0,1,178.09,446.82Zm-6.32-1.11a1.19,1.19,0,0,1-.37-.06,19.38,19.38,0,0,1-2.07-.92,1.06,1.06,0,1,1,1-1.89,18.8,18.8,0,0,0,1.83.81,1.06,1.06,0,0,1-.37,2.06Zm14.54-.68a1.07,1.07,0,0,1-.44-2c.62-.28,1.22-.59,1.81-.92a1.06,1.06,0,1,1,1.07,1.84,22.22,22.22,0,0,1-2,1A1.12,1.12,0,0,1,186.31,445Zm-21.48-4.12a1.08,1.08,0,0,1-.81-.37,17.53,17.53,0,0,1-1.37-1.81,1.07,1.07,0,0,1,1.78-1.18,17.11,17.11,0,0,0,1.2,1.6,1.06,1.06,0,0,1-.1,1.5A1.08,1.08,0,0,1,164.83,440.91Zm28.36-.83a1.09,1.09,0,0,1-.72-.28,1.06,1.06,0,0,1-.06-1.51c.46-.5.9-1,1.31-1.56a1.07,1.07,0,0,1,1.7,1.3,21.79,21.79,0,0,1-1.45,1.71A1,1,0,0,1,193.19,440.08Zm-32.11-6.74a1.06,1.06,0,0,1-1-.84,18.17,18.17,0,0,1-.35-2.23,1.07,1.07,0,0,1,1-1.16,1.08,1.08,0,0,1,1.17,1,16.3,16.3,0,0,0,.3,2,1.06,1.06,0,0,1-.81,1.27Zm36.55-.48a.92.92,0,0,1-.36-.07,1.06,1.06,0,0,1-.64-1.36c.23-.63.42-1.27.59-1.93a1.05,1.05,0,0,1,1.29-.78,1.06,1.06,0,0,1,.78,1.29,22.23,22.23,0,0,1-.65,2.15A1.08,1.08,0,0,1,197.63,432.86Zm-36.4-8a1.07,1.07,0,0,1-.25,0,1.06,1.06,0,0,1-.78-1.29,20.38,20.38,0,0,1,.64-2.15,1.07,1.07,0,0,1,2,.72,18.79,18.79,0,0,0-.58,1.94A1.07,1.07,0,0,1,161.23,424.88Zm37.51-.41a1.07,1.07,0,0,1-1.06-1,15.72,15.72,0,0,0-.3-2,1.06,1.06,0,0,1,.82-1.27,1,1,0,0,1,1.26.82,18.32,18.32,0,0,1,.34,2.24,1.06,1.06,0,0,1-1,1.15Zm-33.85-7.23a1.09,1.09,0,0,1-.64-.21,1.07,1.07,0,0,1-.21-1.5,21.34,21.34,0,0,1,1.44-1.71,1.06,1.06,0,1,1,1.56,1.45c-.45.49-.89,1-1.3,1.55A1.06,1.06,0,0,1,164.89,417.24Zm31.09-.75a1,1,0,0,1-.89-.49,18.39,18.39,0,0,0-1.2-1.59A1.06,1.06,0,1,1,195.5,413a18.68,18.68,0,0,1,1.37,1.81,1.07,1.07,0,0,1-.3,1.48A1.1,1.1,0,0,1,196,416.49Zm-24.74-4.87a1,1,0,0,1-.92-.53,1.06,1.06,0,0,1,.38-1.46c.65-.37,1.31-.72,2-1a1.07,1.07,0,0,1,.87,1.95c-.61.28-1.21.59-1.79.93A1.17,1.17,0,0,1,171.24,411.62Zm18.48-.79a1,1,0,0,1-.5-.13,17.62,17.62,0,0,0-1.82-.81,1.07,1.07,0,0,1-.63-1.37,1.08,1.08,0,0,1,1.37-.63,17.39,17.39,0,0,1,2.07.92,1.07,1.07,0,0,1,.46,1.44A1.08,1.08,0,0,1,189.72,410.83Zm-10.45-1.89a1.06,1.06,0,0,1-.11-2.12,20.88,20.88,0,0,1,2.24-.13,1.12,1.12,0,0,1,1.12,1.07,1,1,0,0,1-1,1.07h-.11a16.81,16.81,0,0,0-2,.11Z"></path><g class="b"><path class="c" d="M108,435.65l2.23-10.27s-3.43-7.53-6.86-7.25a17.22,17.22,0,0,0-5.43,1.24,8.41,8.41,0,0,0-2.29-8.67C91.58,407,81.25,403,72.35,398.14h0v0a65.88,65.88,0,0,1,9.09,23.51c2.27,14,21.49,1.72,22.62,37.27.47,15.07-6.46,20.58-5.88,28.87a17.77,17.77,0,0,0,1.81,6.38s17.37-26.21,12.42-60.52Z"></path><path class="d" d="M66.14,466.15a14.92,14.92,0,0,1,12.68,5.37c5.82,7.29,19.4,15.83,23.66,15.83,12.6,0-7.19-22.34-10.85-26.28C83.87,452.71,66.14,466.15,66.14,466.15Z"></path><path class="e" d="M66.14,466.15a14.92,14.92,0,0,1,12.68,5.37c5.82,7.29,19.4,15.83,23.66,15.83,12.6,0-7.19-22.34-10.85-26.28C83.87,452.71,66.14,466.15,66.14,466.15Z"></path><path class="f" d="M85.22,422.72c.38,1.41-2.07,6.18-2.07,6.18s-2.47-6.76-3.75-8.48-17.56-3.93-18.07-4c3.7,4.44,4.16,8.09,4.16,8.09s-5.59-8.27-14.12-7.8-19.78-4.24-19.78-4.24l0,0c15.93,18.8,18.69,18.9,28.58,24.63s20.7,7.12,26.49,11.41a37.87,37.87,0,0,1,14.15,19.38,36.1,36.1,0,0,1,1.55,13.41v0a22,22,0,0,1-.28,2.31c.12-.48.24-.95.35-1.43h0C112.47,440.28,84.86,421.33,85.22,422.72Z"></path><path class="h" d="M155.74,470.33c-30.36-9.54-53.42,16.16-53.42,16.16l6.34,5.52c2-8.51,23.89-18.93,39.55-18.93,18.18,0,30.92,15.56,30.92,15.56C173.68,477.7,161.37,472.11,155.74,470.33Z"></path><path class="h" d="M86.46,419.62c-4.51-10.14-13.6-20.95-14.11-21.47a65.88,65.88,0,0,1,9.09,23.51c2.27,14,21.49,1.72,22.62,37.27.47,15.07-6.46,20.58-5.88,28.87,3.07-7.45,10.18-26.84,8.07-41.6C103.59,427.55,91.71,431.41,86.46,419.62Z"></path><path class="c" d="M154.72,481.16c-26.51-12.21-49.88,11.31-49.88,11.31l3.74,4.37h2.24c4.69-7.7,23.63-14.93,36.83-13.62,16.43,1.62,26.42,18.25,26.42,18.25C170.23,490.1,159.64,483.43,154.72,481.16Z"></path><path class="c" d="M119.16,450c-4.4,5.19-29.22,41.28-13.27,40.54,5.39-.24,23.14-18.51,30.08-28.07,6-8.29,15.71-7.53,15.71-7.53S128.49,439,119.16,450Z"></path><path class="e" d="M93.27,485.63c3.9,4.69.24,9-2.38,11.21h15C106,487.19,93.27,485.63,93.27,485.63Z"></path><path class="c" d="M79.68,479.49s-.31-.12-.86-.27c-2.55-.73-10.27-2.31-17.45,2.26-8.73,5.56-10.14,16-4.63,27.55,0,0,0,.08,0,.12S72,500,80.88,489.56c8.31-9.83,23.82-.78,24.87,7.28h3.91C108.12,492.91,99.92,475.05,79.68,479.49Z"></path><path class="e" d="M61.37,481.48c-8.73,5.56-10.14,16-4.63,27.55.5-4.69-.53-12.72,5.43-21.48,2.61-3.85,9.41-5.44,16.65-8.33C76.27,478.49,68.55,476.91,61.37,481.48Z"></path><path class="c" d="M77.59,456.09s-4-4.07-11.44-.49-7.72,13.47-2.68,20.5c0,0,9.55-2.39,14.22-9.66s15.08-4.12,15.08-4.12l-3.29-2.91S86.35,453,77.59,456.09Z"></path><path class="h" d="M66.15,455.6c-7.46,3.58-7.72,13.47-2.68,20.5,5.27-20,14.12-20,14.12-20S73.61,452,66.15,455.6Z"></path><path class="f" d="M151.07,441.63c-9.65-4.1-14.45,1.29-14.45,1.29-11.11-4.62-18.83,8.76-18.83,8.76s13-4.57,19.3,4.34,18.56,11.39,18.56,11.39C161.62,458.22,160.71,445.73,151.07,441.63Z"></path><path class="h" d="M151.07,441.63c-9.65-4.1-14.45,1.29-14.45,1.29s11.2-.5,19,24.49C161.62,458.22,160.71,445.73,151.07,441.63Z"></path><path class="h" d="M62.9,429.18c-15.35-1.27-30.35-15.77-31.27-16.67,15.93,18.8,18.69,18.9,28.58,24.63s20.7,7.12,26.49,11.41a37.87,37.87,0,0,1,14.15,19.38C94.63,428.42,77.21,430.35,62.9,429.18Z"></path></g><path class="m" d="M472.77,319.59c-7.3-4.1-38.58-9.66-42.56-10.24-5.32-.78-6.25,8.16-4.63,10,2.12,2.47,7.74,5.61,17.4,8.06,7.45,1.89,21.87,8.28,26.73,3C472.85,327,480.64,324,472.77,319.59Z"></path><path class="a" d="M460.14,320.9c-7.4-1.84-13.34-2.19-26.42-4.17-3.94-.6-9.52,1.53-8.14,3.14,2.12,2.47,10.26,5.66,17.4,7.59,12.61,3.41,19.34,6.85,23.88,2.91C469.7,327.9,471.07,323.62,460.14,320.9Z"></path><path class="p" d="M408.18,287.19a20.56,20.56,0,0,0-4.92-6.43c-1.07-1-3-2.55-4-3.41-.81-.71-1.92,1.13-.92,2.21-.67.22-1.39,1.84-.77,2.52a2.09,2.09,0,0,0-.38,2.64c-.9.82-.79,2,.43,3s2.53,2.7,6,5.74c.57.51,1.48,1.75,2,2.23a48.8,48.8,0,0,1,5.31-5.7C410.29,289.42,408.71,288.44,408.18,287.19Z"></path><path class="q" d="M405.17,289.55c1.22-.18,1.68-1.77,1.06-2.92-1.44-2.68-6.05-6.52-6.07-5.48-.05,1.85-1.29,5.45-2.78,6.35v0a21.75,21.75,0,0,1,2,1.89,3.42,3.42,0,0,0,3.95.65A6.7,6.7,0,0,1,405.17,289.55Z"></path><path class="m" d="M436.31,313.71c-1-3.44-6.14-6.8-9.1-9.17-4.68-3.75-17.37-16.65-17.37-16.65a76.07,76.07,0,0,0-6.81,7.66s15.26,17.11,20.89,22.9C432.46,327.2,437.44,317.44,436.31,313.71Z"></path><path class="a" d="M436.47,317.14c-5.59-4.36-13.06-6-20.87-13.16-2.57-2.35-7.08-10-9.77-11.82-.87,1-1.81,2.13-2.8,3.39,0,0,15.26,17.11,20.89,22.9C430.91,325.61,436.54,322,436.47,317.14Z"></path><path class="r" d="M505.22,492.32c-.06-.44-8.79-2.92-9,0-.15,2.5.5,6.38-1.69,8.37-2.51,2.29-11.84,7.13-16.11,7.76-.22.63.52,1.16,1.15,1.37,3.16,1.08,6.6.61,9.91.26q5.76-.6,11.57-.66c1.71,0,3.75-.17,4.63-1.65.64-1.1.35-2.49.19-3.77C505.44,500.14,505.78,496.19,505.22,492.32Z"></path><path class="s" d="M505.22,492.32c0-.21-2.1-.91-4.25-1.23.14.27.29.55.41.83,3.44,8.36-4,14.84-11,18.11,3.56-.34,7.14-.55,10.73-.59,1.71,0,3.75-.17,4.63-1.65.64-1.1.35-2.49.19-3.77C505.44,500.14,505.78,496.19,505.22,492.32Z"></path><path class="l" d="M505.84,502.24c-1.08-.81-7.92,4.48-15.77,4.48,0-1-1-2.81-2.28-2.36-3.46,1.2-9.53,3.37-10.21,3.65-2.2.92-1.34,4.63,0,4.63h12.19c2.32,0,6-2.13,9.75-2.13,4.18,0,5.41-.15,5.93-.38C509.35,508.35,507.82,503.72,505.84,502.24Z"></path><path class="k" d="M499.16,508.1c-2.78.14-11.51,1.2-13,1.6a12.61,12.61,0,0,1-6.51,0,9.14,9.14,0,0,1-2.74-1.25c-1.32,1.32-.52,4.18.62,4.18h12.19c2.32,0,6-2.13,9.75-2.13,4.18,0,5.41-.15,5.93-.38,3.11-1.4,2.8-4.56,1.57-6.56A9.45,9.45,0,0,1,499.16,508.1Z"></path><path class="k" d="M498.09,512.64h7.66l1.93-4.91-9.06,2.6A4.49,4.49,0,0,1,498.09,512.64Z"></path><path class="r" d="M436.11,490.23c-1.23,2.19-2.32,6-5.16,6.81-3.25,1-13.76,1.28-17.88,0-.47.47,0,1.27.44,1.74,2.38,2.33,5.69,3.4,8.82,4.52q5.46,2,10.7,4.43c1.56.73,3.47,1.48,4.89.52,1.07-.72,1.4-2.09,1.82-3.31,1.26-3.7,3.28-7.11,4.46-10.84C444.34,493.67,437.55,487.66,436.11,490.23Z"></path><path class="s" d="M440.9,491.15c0,.31,0,.61,0,.92-.52,9-10,11.66-17.8,11.54q5.06,1.84,9.92,4.12c1.56.73,3.47,1.48,4.89.52,1.07-.72,1.4-2.09,1.82-3.31,1.26-3.7,3.28-7.11,4.46-10.84A12.25,12.25,0,0,0,440.9,491.15Z"></path><path class="l" d="M424.3,500.51c.45-.94.33-3-1-3.12-3.63-.42-10-1.1-10.78-1.14-2.39-.12-3.22,3.58-2,4.15l11,5.29c2.09,1,6.34.69,9.71,2.31,3.76,1.81,4.93,2.22,5.5,2.23,4.33.11,5-4.73,3.81-6.93C439.83,502.11,431.37,503.91,424.3,500.51Z"></path><path class="k" d="M431.89,505.69c-2.57-1.08-10.89-3.91-12.4-4.2a12.72,12.72,0,0,1-5.87-2.8,9.4,9.4,0,0,1-1.93-2.33c-1.76.62-2.27,3.54-1.24,4l11,5.29c2.09,1,6.34.69,9.71,2.31,3.76,1.81,4.93,2.22,5.5,2.23,3.41.09,4.5-2.89,4.26-5.24A9.45,9.45,0,0,1,431.89,505.69Z"></path><path class="k" d="M429,509.31l6.9,3.33,3.87-3.59-9.3-1.58A4.41,4.41,0,0,1,429,509.31Z"></path><path class="l" d="M460.68,376.25c-6.32,22.19-23.32,101.05-29,117.91,2.18,4,7.53,6.1,12.54,5.28,3.5-5.93,35.63-93,41.8-114.56C486.23,384.08,467.39,376.91,460.68,376.25Z"></path><path class="k" d="M475.17,380.24c-3,10.15-.07,22.53-7.38,30.71-4.55,5.09-4.7,12.72-4.68,19.52a28.49,28.49,0,0,1-4.28,15.36c-3.12,4.75-6.16,7.8-6.92,13.69s-3.31,13.8-4.55,19.5c-2.2,10.14-9.23,8.43-13.29,17.92a13.18,13.18,0,0,0,10.13,2.5c3.5-5.93,35.63-93,41.8-114.56C486.12,384.46,481,382.3,475.17,380.24Z"></path><path class="l" d="M502.36,387.31c-5.26-.95-28.51-3.63-31.05,1.07C467.47,395.45,491.13,491.3,493.4,499c4.56,1.77,10.49.64,13-.58-.73-20-4.43-35.88-5.07-53.23C500.61,424.58,502.94,403.12,502.36,387.31Z"></path><path class="k" d="M502.36,387.31c-1.72-.31-5.47-1.14-9.83-1.95,1.71,2.34,1.6,15.57,1.52,16.81-.57,9.19,3.41,19,3.13,21-1.63,11.64,1,19.22.91,22.68-.09,3.88-2,11.07-.91,20,.57,4.72,3.81,13.94,5.36,18.73.86,2.69-1.47,11.6-1,14.95,1.83-.31,3.52-.81,4.94-1.16-.73-20-4.43-35.88-5.07-53.23C500.61,424.58,502.94,403.12,502.36,387.31Z"></path><path class="m" d="M502.67,338.28c.16-10.2-5.91-23.49-21.56-23.49-6.57,0-18.36-1.07-22,8.18-1.74,4.38-4.21,66.95-3.5,68.71,1.43,3.52,47,3.06,47.41.57C503.46,389.37,502.5,349.65,502.67,338.28Z"></path><path class="m" d="M462.85,361.57c-1,5.28,6.3,5.71,8.65,4.9,3.07-1.06,8.37-5.07,14-13.3,9.93-14.53,12.37-18.51,12.37-18.51L484,325.45S463.87,356.3,462.85,361.57Z"></path><path class="a" d="M464,365.23c2,1.77,5.94,1.8,7.55,1.24,3.07-1.06,8.37-5.07,14-13.3,9.93-14.53,12.37-18.51,12.37-18.51l-1.36-7.91C493.83,337.75,476.81,357.76,464,365.23Z"></path><path class="a" d="M502.67,338.28c.16-10.2-5.91-23.49-21.56-23.49a29.16,29.16,0,0,0-5.63.7c10.93,4.16,22.33,7.62,21.79,19.59-.16,3.72-5,16.24-5,20,0,6.56,5.43,9.67,3,13.49-3.25,5.16-6,4-7.28,7.76-1.59,4.75,7.81,2.39,6,8.05-2,6.43-7.32,4.75-9.37,9.79,9.67-.14,18.14-.81,18.31-1.9C503.46,389.37,502.5,349.65,502.67,338.28Z"></path><path class="s" d="M478.06,307.29c-.38,3.5-5.23,4.78-5.23,8.9,0,3.46,15,4.71,15.15-.26s.61-14.26.61-14.26S478.45,303.78,478.06,307.29Z"></path><path class="r" d="M486.31,285.05a10.45,10.45,0,0,0-6.29-3.2,20.51,20.51,0,0,0-7.15.39,5.46,5.46,0,0,0-4.06,2.79c-2.36,4.78-3,10.2-3.54,15.5-.28,2.58-.55,5.28.43,7.69,1.57,3.87,6.29,7,10.26,5.7,9-2.93,12.78-11.79,12.76-12.68-.08-2.79.3-5.59.19-8.38A12.41,12.41,0,0,0,486.31,285.05Z"></path><path class="r" d="M474.75,313.85h0Z"></path><path class="r" d="M475.53,313.73h0Z"></path><path class="s" d="M482.42,282.48c-2.06-.36-8.07.5-9.42,6.44-.08.36-.5,3.3-.55,3.57-.3,1.6-3.41,4.64-3.71,6.62-.56,3.67,1.23,10.76,3.67,13.19a6.37,6.37,0,0,0,3,1.76,5.29,5.29,0,0,0,.54-.13c9-2.94,12.77-11.8,12.74-12.68-.08-2.8.3-5.61.21-8.39a12.5,12.5,0,0,0-2.61-7.81A7.12,7.12,0,0,0,482.42,282.48Z"></path><path class="l" d="M480.36,279.42c-8.49-1.16-11.9,4.4-14.21,4.95,6.29,4.64,16.21,2.26,16.05,3.83-1.07,10.05,2.48,10.48,3,12.21a10.47,10.47,0,0,0,3.94,4.83C495.65,289,490.43,280.8,480.36,279.42Z"></path><path class="k" d="M484.47,280.49a16.62,16.62,0,0,0-4.11-1.07c-6.62-.91-10.14,2.27-12.47,4,.11.08,8.22,3.34,16.09,1.9A2.51,2.51,0,0,0,484.47,280.49Z"></path><path class="r" d="M483.67,294.54c-3.51,1.18-7.11,5.93-2.25,8.13a4.66,4.66,0,0,0,4.6-.51,6,6,0,0,0,2-2.91c.49-1.43.53-3.21-.58-4.24A3.83,3.83,0,0,0,483.67,294.54Z"></path><path class="s" d="M481.87,297.76a4.6,4.6,0,0,1,1.54,1.05,8.49,8.49,0,0,1,.8,2.05s3.51-2.51,1.88-3.95S481.87,297.76,481.87,297.76Z"></path><path class="p" d="M472,309.62c-.78-1-2.51-.38-2.51,1.32-.75-.34-2.22.25-2.24,1.31a2.42,2.42,0,0,0-2.41,1.93c-1.4,0-2.21,1.05-2,2.87s0,4.28.51,9.57c.08.87-.33,9.09-.28,9.89a59.47,59.47,0,0,1,9.07-1.23c-.05-.95-.49-8.86.05-10.33a23.56,23.56,0,0,0,.91-9.31C472.94,314,472.83,310.68,472,309.62Z"></path><path class="q" d="M473.08,315.64c-.14-1.65-.25-5-1.1-6s-2.51-.38-2.51,1.32a1.81,1.81,0,0,0-2,.67,1.66,1.66,0,0,1,1.22,2.1c-.65,2.43.9,8.72,1.34,12.91a56.36,56.36,0,0,1,.55,8.72,12.78,12.78,0,0,1,1.52-.06c-.05-.95-.49-8.86.05-10.33A23.56,23.56,0,0,0,473.08,315.64Z"></path><path class="q" d="M471.46,309.18l-5.75-2.4a1.06,1.06,0,0,0-1.38.57c-.23.54.65,1.63,1.19,1.86l5.13,1.93a1.06,1.06,0,0,0,.81-2Z"></path><path class="t" d="M471.83,327a25.77,25.77,0,0,0-8.43.35.36.36,0,0,0-.27.27,9.32,9.32,0,0,0-.07,2.49.33.33,0,0,0,.42.29,20.75,20.75,0,0,1,8.31-.3.33.33,0,0,0,.4-.28,15.11,15.11,0,0,0-.07-2.52A.34.34,0,0,0,471.83,327Z"></path><path class="p" d="M400.55,289l-2.86-3.69a.8.8,0,0,0-1.14-.11.81.81,0,0,0-.12,1.14s2.6,3.31,3.67,3.39C400.38,289.72,400.83,289.31,400.55,289Z"></path><path class="p" d="M395.12,273.55l4.78,4.39a1.13,1.13,0,1,1-1.57,1.62s-4.29-4-4.28-5.47C394.05,273.69,394.67,273.11,395.12,273.55Z"></path><path class="p" d="M404,284.79l-4.81-4.36a1.13,1.13,0,1,0-1.47,1.71s4.37,3.91,5.84,3.77C403.93,285.87,404.45,285.2,404,284.79Z"></path><path class="p" d="M403.11,286.87l-4.39-4a1,1,0,0,0-1.44.11,1,1,0,0,0,.1,1.44s4,3.57,5.33,3.44C403.07,287.85,403.54,287.24,403.11,286.87Z"></path><path class="m" d="M472.38,332a31.16,31.16,0,0,0-9.43.38s-1.33,13.78-1.79,19.76a30.16,30.16,0,0,0,1.52,11.46c1.23,3.7,12.49,6.4,11.92-5.82C474.22,349.68,472.38,332,472.38,332Z"></path><path class="a" d="M472.38,332c-1.35-.12-2.56-.16-3.64-.16a5.48,5.48,0,0,1,.94,2.37c1.3,9.29,5.5,20.23-.44,28.8a8,8,0,0,1-3.88,3c3.69,1.62,9.66.7,9.24-8.28C474.22,349.68,472.38,332,472.38,332Z"></path><path class="u" d="M468.34,325.42a2.75,2.75,0,1,0,2.87,2.61A2.74,2.74,0,0,0,468.34,325.42Z"></path><path class="v" d="M468.38,326.15a2,2,0,1,0,2.11,1.92A2,2,0,0,0,468.38,326.15Z"></path></svg> 