<?xml version="1.0" encoding="UTF-8"?> <svg xmlns="http://www.w3.org/2000/svg" xmlns:xlink="http://www.w3.org/1999/xlink" width="620.544" height="468.888" viewBox="0 0 620.544 468.888"><defs><clipPath id="clip-path"><rect id="Rectangle_139" data-name="Rectangle 139" width="620.544" height="468.888" fill="none"></rect></clipPath><clipPath id="clip-path-3"><rect id="Rectangle_122" data-name="Rectangle 122" width="145.347" height="211.051" transform="translate(131.461 186.822)" fill="none"></rect></clipPath><clipPath id="clip-path-4"><rect id="Rectangle_123" data-name="Rectangle 123" width="252.127" height="245.725" transform="translate(357.593 151.668)" fill="none"></rect></clipPath><clipPath id="clip-path-5"><path id="Path_1047" data-name="Path 1047" d="M261.551,34.26,221.235,361.853a13.627,13.627,0,0,0,3.419,11.073c3.384,3.777,8.806,5.947,14.876,5.962l148.325.339c12.37,0,23.922-8.869,25.221-19.366L453.523,32.1a13.6,13.6,0,0,0-3.41-11.06c-3.379-3.767-8.8-5.934-14.86-5.946L286.776,14.87c-12.379,0-23.929,8.878-25.225,19.39" fill="none"></path></clipPath><clipPath id="clip-path-7"><rect id="Rectangle_132" data-name="Rectangle 132" width="3.264" height="2.761" transform="translate(328.376 6.702)" fill="none"></rect></clipPath><clipPath id="clip-path-8"><rect id="Rectangle_133" data-name="Rectangle 133" width="1.825" height="1.546" transform="translate(331.87 5.99)" fill="none"></rect></clipPath></defs><g id="Group_145" data-name="Group 145" clip-path="url(#clip-path)"><g id="Group_134" data-name="Group 134"><g id="Group_133" data-name="Group 133" clip-path="url(#clip-path)"><path id="Path_979" data-name="Path 979" d="M265.284,350.9c-101.789,0-231.929,10.829-231.929,24.193,0,8.961,37.132,16.788,92.3,20.969C49.959,400.39,0,407.828,0,416.272c0,9.567,64.081,17.836,157.075,21.761-4.6,2.116-7.07,4.349-7.07,6.661,0,13.361,82.515,24.194,184.3,24.194,174.615,0,286.234-38.825,286.234-65.476,0-33.078-79.422-52.511-355.26-52.511" fill="#f5f5f9"></path><g id="Group_129" data-name="Group 129" opacity="0.5"><g id="Group_128" data-name="Group 128"><g id="Group_127" data-name="Group 127" clip-path="url(#clip-path-3)"><path id="Path_980" data-name="Path 980" d="M146.416,270.517c-6.256,83.9,3.844,124.966,50.747,124.966,18.391,0-3.6-53.019-33.686-86.278-16.6-18.346-5.153-25.754-17.061-38.688" fill="#5656c7"></path><path id="Path_981" data-name="Path 981" d="M225.164,315.423c.13-12.651-4.259-70.366-19.914-105.206,8.641,60.211-15.005,56.16-15.114,127.037-.035,21.447,13.224,57.177,25.418,58.932,11.555,1.663,14.077-13.39,16.35-18.318,6.174-13.377,14.668-107.4,10.572-116.562-9.928,15.625-15.822,51.248-17.312,54.117" fill="#4545c1"></path><path id="Path_982" data-name="Path 982" d="M221.326,394.251c-.064,5.065,25.149,9.778,36.345-43.949,8.721-41.847,14.333-45.923,19.136-53.573-33.1.6-55.319,84.266-55.481,97.522" fill="#4545c1"></path><path id="Path_983" data-name="Path 983" d="M205.653,368.081c-1.413-2.924-4.953-5.274-6.138-7.995-.887-2.036.273-4.121.344-6.322.186-5.655-2.507-10.51-5.538-15.065-1.786-2.689-6.544-5.835-7.664-8.524-2.15-5.173,2.021-9.249-3.505-15.286-1.676-1.831-4.941-3.314-6.144-5.484-1.113-2.013-.634-4.453-1.047-6.829-1.144-6.6-6.691-10.933-10.01-16.449-.571,7.646,1.48,15.091.922,22.565-.449,6.032,3,11.265,3.308,16.63.334,5.762-2.285,10.364,1.12,16.735,1.586,2.973,3.741,4.969,5.017,7.759,1.587,3.472,1.986,7.309,3.989,10.837,1.4,2.464,3.525,4.365,4.953,6.655,4.012,6.443-.119,23.266,11.713,24.362,2.778,5.8,4.931,7.177,7.834,5.594,6.194-3.383,2.342-9.468,1.539-13.579-.924-4.746,2.038-9.941-.693-15.6" fill="#7171d0"></path><path id="Path_984" data-name="Path 984" d="M217.813,359.57c-6.745.31-14.7,7.4-18.573,14.795-.286-4.419-.439-8.85-.521-13.3,4.4-4.786,12.65-4.216,16.919-10.269,4.49-6.371-1.026-12.623-7.876-8.422-3.3,2.026-6.824,8.159-9.092,13.164-.022-3.158-.062-7.558-.077-10.732q-.015-4.125-.15-8.22c5.168-3.88,16.871-4.637,17.319-13.76.314-6.392-6.331-10.225-10.944-4.64a45.933,45.933,0,0,0-6.656,12.056c-.292-5.087-.745-10.143-1.394-15.16,5.586-5.217,19.39-5.036,21.282-14.109,1.546-7.409-7.784-8.289-12.706-4.279-4.839,3.947-6.909,10.488-8.836,16.48q-.786-5.605-1.932-11.152c4.113-4.986,13.26-8.9,14.477-16.531,1.186-7.422-5.341-14.923-11.677-6.871-3.328,4.229-4.268,10.412-4.454,16.332q-1.56-6.1-3.547-12.059a50.069,50.069,0,0,1,3.738-8.347c1.96-3.414,4.987-6.8,4.263-10.876-1.247-7.016-6.378-2.93-8.434,1.913-1.485,3.5-.874,10.424-.653,14.587-1.622-4.414-5.048-13.757-6.992-18.028,1.752-7.449,19.828-22.736,5.451-22.736-6.188,0-7.608,12.445-7.139,19.722-1.143-2.32-3.957-7.641-4.16-8.015,1.63-6.119,10.511-25.3,1.538-25.543-7.117-.19-6.041,11.591-4.969,17.343.135.728.273,1.79.469,2.932-2-3.462-4.112-6.921-6.348-10.319a33.24,33.24,0,0,0,3.319-8.54c.489-2.214,1.7-11.827-3.9-8.042-2.138,1.441-2.523,8.264-1.821,13.019q-2.472-3.551-5.145-6.934c-10.156-17.539-3.574-35.021-17.514-37.947-15.5-3.253-13.177,24.574,13.749,36.3,1.809,2.517,8.827,13.782,9.714,15.257-7.316-7.631-22.034-22.644-26.677-13.325-4.122,8.267,19.748,12.337,28.168,15.86,2.594,4.447,8.491,16,9.061,17.206-3.3-3.152-6.247-8.072-10.5-10.082-3.768-1.784-12.393-2.814-12.009,2.52.548,7.6,11.58,7.625,17.074,8.537,3.946.655,5.685,2.272,6.745,1.857q4.007,8.85,7.147,18.073c-4.749-7.178-18.232-22.286-23.412-13.1-6.678,11.827,15.921,10.2,23.972,14.761A195.24,195.24,0,0,1,189.4,300.09c.017.076.032.152.048.228-3.147-5.756-5.714-11.638-11.394-15.759-5.153-3.744-14.025-5.112-13.281,4.72.538,7.165,13.224,7.443,19.255,10.434,2.684,1.33,4.707,3.183,6.107,3.918a179.3,179.3,0,0,1,2.591,18.334c-10.823-7.929-20.507-32.686-28.48-20.38-7.027,10.842,17.3,11.051,28.67,22.537.459,5.616.7,11.263.808,16.939-1.541-4.5-4.18-8.523-6.665-12.546-1.865-3.022-11.384-11.549-14.895-4.3-3.462,7.147,9.636,11.854,13.63,13.738a18.387,18.387,0,0,1,7.982,7.1c.009,1.042-.036,13.988.066,19.433-3.274-9.116-27.4-41.8-34.562-22.29-4.594,12.514,21.721,13.256,27.934,17.066,4.215,2.582,5.784,5.028,6.683,7.641.085,3.154.232,6.3.475,9.427-5.721-8.3-19.574-24.065-25.131-10.948-6.57,15.511,14.128,9.914,18.22,11.828,3.571,1.666,7.524,2.6,7.809,7.383a92.058,92.058,0,0,0,2.194,10.884c.687,2.556,4.724,1.321,4.22-1.261a146.412,146.412,0,0,1-2.094-15.166c5.713-4.032,19-5.125,22.78-8.739,5.259-5.027,2.853-11.09-4.56-10.747" fill="#7c7cd3"></path></g></g></g><g id="Group_132" data-name="Group 132" opacity="0.5"><g id="Group_131" data-name="Group 131"><g id="Group_130" data-name="Group 130" clip-path="url(#clip-path-4)"><path id="Path_985" data-name="Path 985" d="M606.744,346.247c-11.317-7.339-30.573-8.615-40.864,2.354a62.827,62.827,0,0,0-14.932,4.872c3.63-2.516,7.377-5.481,8.25-10.112,1.023-5.448-3.433-5.879-6.795-3.658-3.564,2.354-2.833,4.523-3.709,8.47-.741,3.339-2.063,5.958-2.325,7.374-1.564.725-3.128,1.451-4.7,2.157q-3.537,1.593-7.093,3.133c.828-.849,1.644-1.663,1.986-2.071,3.2-3.811,7.565-8.268,8.584-13.742,1.017-5.438-3.062-9.524-7.6-6.88-3.82,2.231-2.289,8.084-2.426,12.3-.173,5.2-1.549,7.77-2.267,11.141q-6.008,2.576-12.066,4.975c3.994-3.392,7.706-8.178,9.1-11.77,2.471-6.389-4.266-7.805-8.3-6.044-4.41,1.923-4.463,7-5.261,11.521a51.082,51.082,0,0,1-2.612,9.014q-3.17,1.188-6.356,2.322-2.477.875-4.963,1.71a24.5,24.5,0,0,0,6.124-10.668c.523-2.172,1.682-6.243,0-8.061-2.137-2.313-5.457-.13-6.925,1.882-3.636,4.975-2.395,13.528-4.693,18.656q-6.327,2.029-12.717,3.782a34.026,34.026,0,0,0,8.563-9.847c1.355-2.55,2.162-6.073.562-8.407-1.76-2.576-5.456-1.926-7.485.37s-2.869,5.639-3.81,8.762c-1,3.322-3.271,7.307-3.72,10.653-2.012.5-4.029.981-6.052,1.424-.372.083-.744.153-1.115.229.887-.976,1.673-1.992,2.234-2.7,1.781-2.221,3.364-4.955,3.376-8.005s-2.19-6.218-4.755-5.8c-2.147.351-3.565,2.921-4.013,5.423s-.222,5.109-.627,7.624A22.389,22.389,0,0,1,465.9,383.1c-4.571.807-9.149,1.437-13.736,2a35.367,35.367,0,0,0,5.9-8.892,11.834,11.834,0,0,0,.653-7.159c-.656-2.331-2.729-4.209-4.764-3.684-2.112.542-3.3,3.278-3.528,5.81-.145,1.59-1.622,11.663-1.439,14.31-4.468.53-8.943,1.033-13.429,1.622-1.65.219-1.739,2.962-.02,3.092a91.907,91.907,0,0,0,17.731-.58c.875,1.41,2.552,2.654,3.291,4.251a35.625,35.625,0,0,1,1.347,3.522h9.477c-.036-.057-.071-.117-.108-.174a23.044,23.044,0,0,0-9.684-8.185c3.733-.56,7.448-1.248,11.108-1.983.344.169.688.33,1.026.5a12.4,12.4,0,0,1,4.567,3.151,21.723,21.723,0,0,1,2.3,4.279,26.565,26.565,0,0,0,1.351,2.414h12.146a10.516,10.516,0,0,0-1.207-2.065,21.78,21.78,0,0,0-11.394-7.678,35.616,35.616,0,0,0-5.836-1.207q7.016-1.467,13.956-3.389a16.277,16.277,0,0,1,4.272,3.978q2.466,3.2,4.926,6.408a38.132,38.132,0,0,0,3.365,3.953h14.7a3.775,3.775,0,0,0,.5-1.4c.236-1.91-1.017-3.6-2.254-4.855a32.262,32.262,0,0,0-12.664-8.043,41.951,41.951,0,0,0-6.907-1.748q6.249-1.876,12.428-4.058c4.668,1.523,9.015,3.431,12.907,7.076,2.182,2.047,4.122,4.441,6.349,6.424s4.838,3.57,7.631,3.649c2.184.06,4.7-1.27,5.067-3.807a6.268,6.268,0,0,0-.208-2.43c-1.407-5.388-6.371-8.242-11.01-9.61-4.754-1.4-11.566-2.975-17.243-2.55q7.945-2.9,15.779-6.225c2.955,1.128,5.7,3.469,8.067,5.573,4.121,3.661,7.9,7.9,12.479,10.785,2.887,1.815,6.292,3.069,9.477,2.071a2.76,2.76,0,0,0,1.383-.839,3.688,3.688,0,0,0,.26-3.212,14.721,14.721,0,0,0-4.35-6.556,31.892,31.892,0,0,0-16.619-7.872,50.146,50.146,0,0,0-9-.674q7.557-3.232,15.026-6.729c.341-.155.685-.322,1.029-.487,2.517,2.743,5.282,5.261,7.888,7.871s5.547,5.372,8.973,5.3a4.212,4.212,0,0,0,2.981-1.194c1.384-1.422,1.556-4.013.8-5.984a10.419,10.419,0,0,0-3.8-4.549,30.98,30.98,0,0,0-10.762-4.415c2.838-1.406,5.7-2.809,8.6-4.083a1.762,1.762,0,0,0-.09.2c4.244,3.338,7.575,8.213,11.928,11.342a13.954,13.954,0,0,0,11.511,2.316,3.191,3.191,0,0,0,2.623-2.2,4.043,4.043,0,0,0-.878-2.9,21.854,21.854,0,0,0-12.216-8.666,35.136,35.136,0,0,0-9.2-1.612,44.62,44.62,0,0,1,15.207-3.355.482.482,0,0,0,.18-.044,36.983,36.983,0,0,1,9,2.062c3.585,1.382,7.036,3.237,10.686,4.378s7.6,1.523,11.136-.045c2.524-1.121,4.979-4.254,3.889-7.155a6.244,6.244,0,0,0-2.71-2.889" fill="#4545c1"></path><path id="Path_986" data-name="Path 986" d="M391.55,388.267a21.544,21.544,0,0,0,1.217,9.126h66.408c76.81-46.3,16.508-127.075,119.52-187.417C517.324,197.81,394.407,368.065,391.55,388.267" fill="#5656c7"></path><path id="Path_987" data-name="Path 987" d="M540.9,288.059c-3.637,2.6-5.743,7.887-9.836,8.979-3.065.818-6.392-.835-10.126,1.014a32.967,32.967,0,0,0-9.088,7.251c-5.211,5.676-7.182,12.071-10.952,18.492-3.483,5.933-10.8,6.667-17.016,9.772-9.218,4.605-16.681,11.679-22.845,19.851-3.507,4.647-6.175,13.035-10.612,15.844-3.122,1.98-7.71,2.056-11.011,4.377-3.8,2.677-6.613,7.1-8.737,11.182-2.667,5.128-2.075,9.312.593,12.572h26.4c7.352-2.712,14.343-6.411,18.159-11.172,3.2-3.991,1.706-4.9,5.911-6.256,7.188-2.315,13.778-1.647,19.611-7.519a46.3,46.3,0,0,0,10.51-16.8c1.443-4.33.382-6.8,3.889-9.613,5.529-4.441,11.9-5.706,16.721-11.518,3.338-4.019,5.651-8.989,7.7-13.814,1.375-3.243.764-5.843,1.533-8.811,1.378-5.334,7.558-7.061,11.024-11.511,3.785-4.862,5.974-11.4,7.987-17.216-6.048-2.588-14.816,1.325-19.806,4.891" fill="#7171d0"></path><path id="Path_988" data-name="Path 988" d="M398.251,317.3c-1.9-8.406-3.789-19.03-9.408-25.847-.855,4.153-1.913,8.374-2.517,12.578-.418,2.93.11,6.1-.482,8.882a113.731,113.731,0,0,0-11.834-29.559c-4.655-8.027-8.823-19.215-15.749-25.495-1.274,9.081-.54,20.151.644,29.254,1.663,12.775,3.423,25.584,5.158,38.346,2.617,19.287,7.731,37.4,13.516,55.968,1.189,3.816,2.3,10.2,4.3,15.971h20.694c.253-2.015.475-4.027.781-5.879,2.113-12.8,2.933-27,.891-39.823-1.829-11.479-3.431-23.063-5.994-34.4" fill="#3cb6d5"></path><path id="Path_989" data-name="Path 989" d="M521.093,152.8c-16.925-7.567-14.085,24.469-31.1,44.628-2.8,2.476-5.521,5.055-8.172,7.709,1.985-5.93,3.048-14.761.636-17.1-6.317-6.126-6.954,6.465-6.834,9.42a43.3,43.3,0,0,0,2.3,11.7c-3.638,3.842-7.132,7.792-10.484,11.777.509-1.423.927-2.75,1.269-3.652,2.685-7.127,6.75-21.974-2.413-23.355-11.552-1.732-4.547,24.868-3.853,33.082-.349.431-5.166,6.605-7.159,9.315,2.26-9.213,3.253-25.343-4.65-26.9-16.682-3.272,1.251,20.428,1.8,30.374-3.462,5.029-8.342,12.964-11.425,18.247,1.231-5.283,1.952-10.757.846-15.581-1.528-6.677-7.172-13.084-10.367-4.377-1.857,5.056,1.248,10.089,2.981,14.909a65.312,65.312,0,0,1,2.885,11.546q-3.9,7.189-7.3,14.644c1.111-7.627,1.315-15.765-1.983-21.942-6.282-11.764-16.356-3.639-16.532,6.139-.178,10.051,10.648,17.158,14.779,24.481q-2.744,6.848-5.016,13.852c-1.105-8.118-2.262-16.971-7.564-23.129-5.391-6.266-17.548-7.26-17.257,2.578.356,12.059,18.085,14.977,24.052,22.934-1.979,6.284-3.71,12.657-5.245,19.106a59.857,59.857,0,0,0-5.781-16.963c-4.637-8.21-14.023-4.81-15.08,3.451-1.505,11.789,13.317,15.428,19.054,21.577q-1.105,5.222-2.07,10.5c-.741,4.064-1.795,9.689-2.544,13.734-1.763-6.934-4.88-15.594-8.65-18.941-7.817-6.947-16.311-.191-12.008,8.992,4.087,8.729,14.786,9.883,19.334,17.016-1.121,5.683-2.327,11.328-3.7,16.921-3.27-10.361-11.85-21.257-20.421-23.2-9.425-2.129-13.888,5.094-8.294,12.733,4.02,5.494,20.793,9.921,27.2,16.392-1.091,4.026-2.341,8.008-3.677,11.968H405.2c.468-1.292.962-2.572,1.393-3.877,1.455-6.067,6.732-6.36,11.689-7.682,5.679-1.513,30.924,10.377,26.044-11-4.128-18.073-25.474-1.035-34.7,8.3,1.024-3.953,1.929-7.95,2.758-11.97,1.748-3.142,4.315-5.92,10.3-8.27,8.832-3.462,42.718,1.59,39.69-15.489-4.728-26.639-43.1,9.74-49.372,20.674,1.371-6.953,4.27-23.55,4.516-24.887A23.992,23.992,0,0,1,429.37,335.9c5.552-1.5,23.407-4.54,20.6-14.492-2.845-10.086-16.982-1.334-20.064,2.116-4.1,4.586-8.4,9.145-11.4,14.554,1.427-7.253,3.028-14.433,4.9-21.519,17.188-12.126,48.406-6.842,41.878-22.338-7.412-17.586-25.466,11.926-41.142,19.613a234.257,234.257,0,0,1,7.5-22.9c1.962-.624,4.976-2.535,8.717-3.627,8.413-2.455,24.729.079,27.055-8.978,3.2-12.429-8.485-12.7-15.942-9.077-8.218,3.987-12.847,10.94-18.194,17.592.038-.092.075-.187.116-.281a253.791,253.791,0,0,1,11.151-23.327c11.354-4.016,39.94,3.235,34.082-13.443-4.547-12.948-25.265,3.336-32.988,11.451q6.123-11.094,13.278-21.533c1.266.776,3.862-.9,9.07-.836,7.247.085,21.386,2.565,23.821-7.045,1.71-6.747-9.577-7.4-14.814-5.971-5.9,1.61-10.8,7.242-15.75,10.526,1.006-1.419,11.2-14.871,15.539-19.978,11.591-2.593,43.1-2.362,39.709-13.895-3.826-13-26.108,2.879-37.223,10.984,1.473-1.687,13.036-14.516,15.93-17.329A85.292,85.292,0,0,0,523.815,182.6c6.758-5.125,17.358-20.811-2.722-29.794" fill="#7c7cd3"></path></g></g></g><path id="Path_990" data-name="Path 990" d="M462.809,19.256,455.1,7.862l-9.075,4.546-146.1-.228c-15.254-.022-29.078,10.843-30.716,24.143L227.716,372.8c-.032.279-.029.545-.051.821l-.917-.485-4.466,5.528L233.759,389.9a26.628,26.628,0,0,0,18.723,7.152l144.333.339c15.26.038,29.089-10.817,30.732-24.121L468.671,40.624c.842-6.8-2.9-15.058-5.862-21.365Z" fill="#346790"></path><path id="Path_991" data-name="Path 991" d="M385.51,388.03c-.937,0-1.063.617-.281,1.381a5.23,5.23,0,0,0,3.108,1.39c.938,0,1.063-.618.28-1.38a5.235,5.235,0,0,0-3.107-1.391" fill="#143549"></path><path id="Path_992" data-name="Path 992" d="M380.192,388.014c-.935,0-1.062.614-.28,1.381a5.222,5.222,0,0,0,3.11,1.387c.935.006,1.061-.615.28-1.378a5.26,5.26,0,0,0-3.11-1.39" fill="#143549"></path><path id="Path_993" data-name="Path 993" d="M374.876,388c-.937-.007-1.062.611-.28,1.378a5.235,5.235,0,0,0,3.107,1.387c.938,0,1.065-.612.28-1.378A5.188,5.188,0,0,0,374.876,388" fill="#143549"></path><path id="Path_994" data-name="Path 994" d="M369.558,387.979c-.935,0-1.061.614-.28,1.381a5.245,5.245,0,0,0,3.11,1.39c.935,0,1.062-.618.28-1.38a5.253,5.253,0,0,0-3.11-1.391" fill="#143549"></path><path id="Path_995" data-name="Path 995" d="M364.242,387.966c-.937-.007-1.061.614-.28,1.378a5.261,5.261,0,0,0,3.107,1.391c.938,0,1.065-.615.284-1.381a5.228,5.228,0,0,0-3.111-1.388" fill="#143549"></path><path id="Path_996" data-name="Path 996" d="M358.928,387.948c-.937,0-1.063.617-.28,1.381a5.239,5.239,0,0,0,3.106,1.39c.939,0,1.062-.615.281-1.381a5.242,5.242,0,0,0-3.107-1.39" fill="#143549"></path><path id="Path_997" data-name="Path 997" d="M353.61,387.931c-.935,0-1.062.615-.28,1.378a5.2,5.2,0,0,0,3.11,1.391c.935,0,1.061-.615.28-1.378a5.231,5.231,0,0,0-3.11-1.391" fill="#143549"></path><path id="Path_998" data-name="Path 998" d="M389.813,392.246c-.936,0-1.062.614-.28,1.378a5.227,5.227,0,0,0,3.11,1.391c.935,0,1.062-.615.28-1.381a5.233,5.233,0,0,0-3.11-1.388" fill="#143549"></path><path id="Path_999" data-name="Path 999" d="M384.5,392.23c-.937-.007-1.061.614-.28,1.378A5.225,5.225,0,0,0,387.326,395c.936,0,1.061-.616.278-1.382a5.214,5.214,0,0,0-3.107-1.387" fill="#143549"></path><path id="Path_1000" data-name="Path 1000" d="M379.179,392.211c-.935,0-1.061.615-.278,1.378a5.2,5.2,0,0,0,3.109,1.391c.934,0,1.061-.615.28-1.378a5.246,5.246,0,0,0-3.111-1.391" fill="#143549"></path><path id="Path_1001" data-name="Path 1001" d="M373.865,392.2c-.937,0-1.062.614-.28,1.381a5.23,5.23,0,0,0,3.108,1.388c.937.005,1.062-.615.278-1.378a5.214,5.214,0,0,0-3.106-1.391" fill="#143549"></path><path id="Path_1002" data-name="Path 1002" d="M368.546,392.179c-.935,0-1.062.611-.279,1.378a5.23,5.23,0,0,0,3.109,1.391c.938,0,1.063-.616.28-1.381a5.23,5.23,0,0,0-3.11-1.388" fill="#143549"></path><path id="Path_1003" data-name="Path 1003" d="M363.231,392.16c-.937,0-1.061.615-.28,1.382a5.219,5.219,0,0,0,3.11,1.387c.935.006,1.062-.615.279-1.378a5.265,5.265,0,0,0-3.109-1.391" fill="#143549"></path><path id="Path_1004" data-name="Path 1004" d="M357.915,392.147c-.937-.006-1.061.615-.28,1.378a5.255,5.255,0,0,0,3.107,1.391c.938,0,1.064-.615.28-1.381a5.21,5.21,0,0,0-3.107-1.388" fill="#143549"></path><path id="Path_1005" data-name="Path 1005" d="M348.511,387.915c-.937,0-1.062.615-.28,1.379a5.219,5.219,0,0,0,3.107,1.391c.938,0,1.062-.615.28-1.378a5.213,5.213,0,0,0-3.107-1.392" fill="#143549"></path><path id="Path_1006" data-name="Path 1006" d="M352.815,392.128c-.935,0-1.062.614-.28,1.381a5.232,5.232,0,0,0,3.11,1.39c.935,0,1.061-.614.28-1.38a5.237,5.237,0,0,0-3.11-1.391" fill="#143549"></path><path id="Path_1007" data-name="Path 1007" d="M343.41,387.9c-.935,0-1.062.614-.28,1.378a5.244,5.244,0,0,0,3.11,1.391c.936,0,1.061-.616.28-1.378a5.243,5.243,0,0,0-3.11-1.391" fill="#143549"></path><path id="Path_1008" data-name="Path 1008" d="M347.716,392.113c-.937,0-1.061.614-.28,1.378a5.2,5.2,0,0,0,3.107,1.391c.938,0,1.063-.616.28-1.378a5.214,5.214,0,0,0-3.107-1.391" fill="#143549"></path><path id="Path_1009" data-name="Path 1009" d="M287.411,387.608c-.937,0-1.062.615-.28,1.382a5.224,5.224,0,0,0,3.108,1.387c.937,0,1.062-.612.28-1.378a5.225,5.225,0,0,0-3.108-1.391" fill="#143549"></path><path id="Path_1010" data-name="Path 1010" d="M282.1,387.592c-.935,0-1.062.615-.281,1.378a5.24,5.24,0,0,0,3.109,1.391c.936,0,1.063-.615.282-1.378a5.256,5.256,0,0,0-3.11-1.391" fill="#143549"></path><path id="Path_1011" data-name="Path 1011" d="M276.78,387.577c-.937,0-1.062.614-.282,1.378a5.227,5.227,0,0,0,3.109,1.391c.936,0,1.061-.615.28-1.381a5.207,5.207,0,0,0-3.107-1.388" fill="#143549"></path><path id="Path_1012" data-name="Path 1012" d="M271.462,387.558c-.936,0-1.061.614-.28,1.381a5.229,5.229,0,0,0,3.109,1.39c.937,0,1.062-.615.28-1.381a5.247,5.247,0,0,0-3.109-1.39" fill="#143549"></path><path id="Path_1013" data-name="Path 1013" d="M266.146,387.542c-.936,0-1.062.614-.28,1.378a5.219,5.219,0,0,0,3.109,1.391c.934,0,1.061-.615.28-1.378a5.247,5.247,0,0,0-3.109-1.391" fill="#143549"></path><path id="Path_1014" data-name="Path 1014" d="M260.829,387.526c-.937,0-1.062.614-.28,1.381a5.235,5.235,0,0,0,3.108,1.388c.937,0,1.062-.615.28-1.378a5.191,5.191,0,0,0-3.108-1.391" fill="#143549"></path><path id="Path_1015" data-name="Path 1015" d="M255.513,387.507c-.937,0-1.062.614-.279,1.381a5.222,5.222,0,0,0,3.107,1.39c.938,0,1.063-.614.28-1.38a5.253,5.253,0,0,0-3.108-1.391" fill="#143549"></path><path id="Path_1016" data-name="Path 1016" d="M291.716,391.825c-.935,0-1.062.614-.28,1.378a5.239,5.239,0,0,0,3.11,1.39c.935,0,1.062-.615.28-1.378a5.211,5.211,0,0,0-3.11-1.39" fill="#143549"></path><path id="Path_1017" data-name="Path 1017" d="M286.4,391.8c-.937,0-1.062.614-.28,1.381a5.215,5.215,0,0,0,3.107,1.388c.938.005,1.061-.615.28-1.378A5.214,5.214,0,0,0,286.4,391.8" fill="#143549"></path><path id="Path_1018" data-name="Path 1018" d="M281.082,391.79c-.935,0-1.06.614-.28,1.378a5.219,5.219,0,0,0,3.11,1.391c.935,0,1.062-.616.28-1.378a5.222,5.222,0,0,0-3.11-1.391" fill="#143549"></path><path id="Path_1019" data-name="Path 1019" d="M275.768,391.774c-.937,0-1.063.614-.28,1.378a5.247,5.247,0,0,0,3.108,1.391c.936,0,1.06-.616.28-1.378a5.214,5.214,0,0,0-3.108-1.391" fill="#143549"></path><path id="Path_1020" data-name="Path 1020" d="M270.449,391.757c-.934,0-1.059.615-.278,1.378a5.224,5.224,0,0,0,3.109,1.391c.936,0,1.061-.615.28-1.381a5.223,5.223,0,0,0-3.111-1.388" fill="#143549"></path><path id="Path_1021" data-name="Path 1021" d="M265.134,391.739c-.937,0-1.062.614-.28,1.378a5.217,5.217,0,0,0,3.108,1.391c.937,0,1.064-.615.281-1.378a5.237,5.237,0,0,0-3.109-1.391" fill="#143549"></path><path id="Path_1022" data-name="Path 1022" d="M259.818,391.723c-.937,0-1.062.614-.28,1.378a5.231,5.231,0,0,0,3.11,1.391c.934,0,1.06-.616.278-1.378a5.212,5.212,0,0,0-3.108-1.391" fill="#143549"></path><path id="Path_1023" data-name="Path 1023" d="M250.412,387.495c-.936,0-1.061.611-.279,1.377a5.247,5.247,0,0,0,3.109,1.392c.935,0,1.061-.616.279-1.382a5.237,5.237,0,0,0-3.109-1.387" fill="#143549"></path><path id="Path_1024" data-name="Path 1024" d="M254.717,391.708c-.934,0-1.059.614-.278,1.381a5.23,5.23,0,0,0,3.107,1.387c.936,0,1.063-.615.28-1.377a5.217,5.217,0,0,0-3.109-1.391" fill="#143549"></path><path id="Path_1025" data-name="Path 1025" d="M245.315,387.479c-.937-.007-1.062.614-.282,1.378a5.263,5.263,0,0,0,3.109,1.39c.938,0,1.063-.615.28-1.381a5.228,5.228,0,0,0-3.107-1.387" fill="#143549"></path><path id="Path_1026" data-name="Path 1026" d="M249.617,391.691c-.936,0-1.061.614-.28,1.382a5.27,5.27,0,0,0,3.11,1.39c.935,0,1.062-.615.281-1.381a5.228,5.228,0,0,0-3.111-1.391" fill="#143549"></path><path id="Path_1027" data-name="Path 1027" d="M435.909.229,287.474,0C272.221-.024,258.4,10.84,256.757,24.144L215.271,360.621c-1.638,13.3,9.506,24.216,24.766,24.251l148.263.342c15.259.032,29.092-10.82,30.736-24.117L460.653,24.451c1.646-13.3-9.492-24.2-24.744-24.222" fill="#29293d"></path><path id="Path_1028" data-name="Path 1028" d="M435.252,15.094l-148.477-.225c-12.377,0-23.928,8.879-25.224,19.392L221.235,361.853a13.627,13.627,0,0,0,3.419,11.074c3.384,3.776,8.806,5.946,14.875,5.961l148.326.339c12.371,0,23.921-8.869,25.22-19.366L453.523,32.1a13.608,13.608,0,0,0-3.41-11.06c-3.38-3.767-8.8-5.933-14.861-5.946" fill="#143549"></path></g></g><g id="Group_136" data-name="Group 136"><g id="Group_135" data-name="Group 135" clip-path="url(#clip-path-5)"><path id="Path_1029" data-name="Path 1029" d="M243.794,380.4h95.8l.7-97.55h-96.5Z" fill="#f3f3f3"></path><path id="Path_1030" data-name="Path 1030" d="M247.462,287.011l.3,89.229h88.856l-.315-89.229Z" fill="#7bc3f4"></path><path id="Path_1031" data-name="Path 1031" d="M263.688,287.011l72.933,88.177-.313-88.177Z" fill="#7bc3f4"></path><path id="Path_1032" data-name="Path 1032" d="M247.622,333.975l34.955,42.265h27.232l-62.3-75.324Z" fill="#7bc3f4"></path><path id="Path_1033" data-name="Path 1033" d="M274.578,380.4H276.8l.689-97.547h-2.224Z" fill="#f3f3f3"></path><path id="Path_1034" data-name="Path 1034" d="M307.56,380.4h2.226l.69-97.547H308.25Z" fill="#f3f3f3"></path><rect id="Rectangle_125" data-name="Rectangle 125" width="26.017" height="67.754" transform="translate(414.582 312.67)" fill="#e80"></rect><rect id="Rectangle_126" data-name="Rectangle 126" width="84.185" height="67.754" transform="translate(330.398 312.67)" fill="#fec230"></rect><rect id="Rectangle_127" data-name="Rectangle 127" width="42.416" height="47.573" transform="translate(350.9 332.851)" fill="#143549"></rect><rect id="Rectangle_128" data-name="Rectangle 128" width="7.733" height="47.573" transform="translate(350.9 332.851)" fill="#e80"></rect><rect id="Rectangle_129" data-name="Rectangle 129" width="29.95" height="47.573" transform="translate(363.366 332.851)" fill="#f3f3f3"></rect><rect id="Rectangle_130" data-name="Rectangle 130" width="25.882" height="43.651" transform="translate(365.401 334.812)" fill="#7bc3f4"></rect><path id="Path_1035" data-name="Path 1035" d="M391.283,354.438V334.812H370.906Z" fill="#7bc3f4"></path><path id="Path_1036" data-name="Path 1036" d="M365.4,352.655l25.882,24.925v-6.512L365.4,346.139Z" fill="#7bc3f4"></path><path id="Path_1037" data-name="Path 1037" d="M365.4,364.137q7.438,7.16,14.876,14.326H385l-19.6-18.878Z" fill="#7bc3f4"></path><rect id="Rectangle_131" data-name="Rectangle 131" width="2.035" height="46.528" transform="translate(377.324 333.374)" fill="#f3f3f3"></rect><path id="Path_1038" data-name="Path 1038" d="M398.9,315.046h41.7V151.928H361.917Z" fill="#d1d9e8"></path><path id="Path_1039" data-name="Path 1039" d="M401.912,310.887h35.247v-154.8H365.844Z" fill="#3cb6d5"></path><path id="Path_1040" data-name="Path 1040" d="M266.122,151.928,303.1,315.046H398.9l-36.98-163.118Z" fill="#f3f3f3"></path><path id="Path_1041" data-name="Path 1041" d="M270.05,156.087l36.063,154.8H394.97L358.9,156.087Z" fill="#7bc3f4"></path><path id="Path_1042" data-name="Path 1042" d="M342.41,156.087H314.656q28.842,28.84,57.685,57.684l-8.434-36.189q-10.751-10.743-21.5-21.495" fill="#7bc3f4"></path><path id="Path_1043" data-name="Path 1043" d="M297.626,273.311,335.2,310.884H361.78L289.3,238.405Z" fill="#7bc3f4"></path><path id="Path_1044" data-name="Path 1044" d="M295.6,151.928l36.99,163.115h2.224L297.827,151.928Z" fill="#f3f3f3"></path><path id="Path_1045" data-name="Path 1045" d="M328.583,151.928l36.99,163.115H367.8L330.806,151.928Z" fill="#f3f3f3"></path><path id="Path_1046" data-name="Path 1046" d="M391.479,151.928l36.99,163.115H430.7L393.7,151.928Z" fill="#d1d9e8"></path></g></g><g id="Group_144" data-name="Group 144"><g id="Group_143" data-name="Group 143" clip-path="url(#clip-path)"><path id="Path_1048" data-name="Path 1048" d="M435.779,16.094,287.3,15.869c-12.377,0-23.928,8.879-25.223,19.392L221.76,362.853a13.631,13.631,0,0,0,3.421,11.074c3.382,3.776,8.806,5.946,14.873,5.961l148.329.339c12.37,0,23.92-8.869,25.217-19.366L454.05,33.1a13.608,13.608,0,0,0-3.41-11.06c-3.382-3.767-8.8-5.933-14.861-5.946" fill="#14141f"></path><path id="Path_1049" data-name="Path 1049" d="M274.383,158.418H333.2l7.441-60.284H281.8Z" fill="#29293d"></path><path id="Path_1050" data-name="Path 1050" d="M351.845,158.418H410.66L418.1,98.134H359.265Z" fill="#29293d"></path><path id="Path_1051" data-name="Path 1051" d="M264.939,237.977h58.815l7.439-60.284H272.359Z" fill="#29293d"></path><path id="Path_1052" data-name="Path 1052" d="M342.4,237.977h58.813l7.439-60.284H349.823Z" fill="#29293d"></path><path id="Path_1053" data-name="Path 1053" d="M387.284,252.551H271.892A16.329,16.329,0,0,0,256.134,266.6a12.17,12.17,0,0,0,12.327,14.045H383.85A16.326,16.326,0,0,0,399.609,266.6a12.17,12.17,0,0,0-12.325-14.045" fill="#66c"></path><path id="Path_1054" data-name="Path 1054" d="M382.479,291.867H267.09a16.331,16.331,0,0,0-15.761,14.045,12.173,12.173,0,0,0,12.329,14.045h115.39a16.328,16.328,0,0,0,15.759-14.045,12.172,12.172,0,0,0-12.328-14.045" fill="#f5f5f9"></path><path id="Path_1055" data-name="Path 1055" d="M270.509,360.067a1,1,0,0,1-1.006-.982.964.964,0,0,1,.96-.982h.046a7.41,7.41,0,0,0,1.8-.225.984.984,0,0,1,.476,1.91,9.627,9.627,0,0,1-2.277.279m-5.576-2.575a.992.992,0,0,1-.769-.367,7.917,7.917,0,0,1-1.192-2.075.982.982,0,1,1,1.831-.713,5.886,5.886,0,0,0,.9,1.558.983.983,0,0,1-.155,1.381.958.958,0,0,1-.612.216m12.772-1.1a1,1,0,0,1-.6-.2.982.982,0,0,1-.181-1.378,8.527,8.527,0,0,0,.971-1.612.983.983,0,1,1,1.784.824,10.4,10.4,0,0,1-1.2,1.983.981.981,0,0,1-.781.386m-13.537-6.854a1.022,1.022,0,0,1-.4-.085.986.986,0,0,1-.492-1.3,10.142,10.142,0,0,1,1.188-1.992.982.982,0,1,1,1.564,1.188,8.233,8.233,0,0,0-.959,1.612.99.99,0,0,1-.9.58m14.942-1.086a.985.985,0,0,1-.921-.634,5.793,5.793,0,0,0-.884-1.561.982.982,0,1,1,1.54-1.22,7.8,7.8,0,0,1,1.185,2.084.983.983,0,0,1-.571,1.266.958.958,0,0,1-.349.065m-8.719-4.169a.983.983,0,0,1-.244-1.936,9.392,9.392,0,0,1,2.325-.294.984.984,0,1,1-.032,1.964,7.371,7.371,0,0,0-1.806.234,1.119,1.119,0,0,1-.243.032" fill="#fff"></path><path id="Path_1056" data-name="Path 1056" d="M271.9,347.7a3.9,3.9,0,0,0-3.77,3.357,2.909,2.909,0,0,0,2.948,3.358,3.9,3.9,0,0,0,3.767-3.358A2.906,2.906,0,0,0,271.9,347.7" fill="#66c"></path><path id="Path_1057" data-name="Path 1057" d="M290.954,355.645a4.137,4.137,0,0,1-3.148-1.378,4.183,4.183,0,0,1-.993-3.329,5.2,5.2,0,0,1,5.02-4.467,4.133,4.133,0,0,1,3.148,1.378,4.182,4.182,0,0,1,.991,3.329,5.2,5.2,0,0,1-5.018,4.467m.879-7.206a3.225,3.225,0,0,0-3.068,2.736,2.249,2.249,0,0,0,.513,1.79,2.2,2.2,0,0,0,1.676.713,3.224,3.224,0,0,0,3.067-2.74,2.241,2.241,0,0,0-.512-1.786,2.2,2.2,0,0,0-1.676-.713" fill="#fff"></path><path id="Path_1058" data-name="Path 1058" d="M310.857,355.645a4.14,4.14,0,0,1-3.148-1.378,4.184,4.184,0,0,1-.99-3.329,5.2,5.2,0,0,1,5.018-4.467,4.132,4.132,0,0,1,3.148,1.378,4.183,4.183,0,0,1,.992,3.329,5.2,5.2,0,0,1-5.02,4.467m.88-7.206a3.225,3.225,0,0,0-3.068,2.736,2.249,2.249,0,0,0,.513,1.79,2.2,2.2,0,0,0,1.675.713,3.225,3.225,0,0,0,3.068-2.74,2.238,2.238,0,0,0-.513-1.786,2.2,2.2,0,0,0-1.675-.713" fill="#fff"></path><path id="Path_1059" data-name="Path 1059" d="M330.761,355.645a4.1,4.1,0,0,1-4.139-4.707,5.2,5.2,0,0,1,5.019-4.467,4.131,4.131,0,0,1,3.147,1.378,4.179,4.179,0,0,1,.992,3.329,5.2,5.2,0,0,1-5.019,4.467m.88-7.206a3.226,3.226,0,0,0-3.069,2.736,2.249,2.249,0,0,0,.513,1.79,2.2,2.2,0,0,0,1.676.713,3.227,3.227,0,0,0,3.068-2.74,2.241,2.241,0,0,0-.512-1.786,2.2,2.2,0,0,0-1.676-.713" fill="#fff"></path><path id="Path_1060" data-name="Path 1060" d="M350.665,355.645a4.106,4.106,0,0,1-4.14-4.707,5.2,5.2,0,0,1,5.019-4.467,4.133,4.133,0,0,1,3.148,1.378,4.183,4.183,0,0,1,.991,3.329,5.2,5.2,0,0,1-5.018,4.467m.879-7.206a3.224,3.224,0,0,0-3.067,2.736,2.251,2.251,0,0,0,.51,1.79,2.208,2.208,0,0,0,1.678.713,3.226,3.226,0,0,0,3.067-2.74,2.237,2.237,0,0,0-.512-1.786,2.2,2.2,0,0,0-1.676-.713" fill="#fff"></path><path id="Path_1061" data-name="Path 1061" d="M370.569,355.645a4.1,4.1,0,0,1-4.139-4.707,5.2,5.2,0,0,1,5.018-4.467,4.13,4.13,0,0,1,3.148,1.378,4.183,4.183,0,0,1,.991,3.329,5.2,5.2,0,0,1-5.018,4.467m.879-7.206a3.225,3.225,0,0,0-3.068,2.736,2.249,2.249,0,0,0,.513,1.79,2.2,2.2,0,0,0,1.676.713,3.224,3.224,0,0,0,3.067-2.74,2.237,2.237,0,0,0-.512-1.786,2.2,2.2,0,0,0-1.676-.713" fill="#fff"></path><path id="Path_1062" data-name="Path 1062" d="M328.492,4.895c-2.455,1.926-3.082,4.821-1.411,6.455s5.023,1.41,7.475-.519,3.085-4.824,1.412-6.462-5.02-1.407-7.476.526" fill="#143549"></path><path id="Path_1063" data-name="Path 1063" d="M329.318,5.7c-1.865,1.467-2.417,3.595-1.235,4.751s3.66.916,5.525-.551,2.419-3.6,1.235-4.761-3.656-.909-5.525.561" fill="#143549"></path><path id="Path_1064" data-name="Path 1064" d="M380.055,4.707c-.066-.016-.131-.016-.217-.031h-.1c-.017,0-.037-.016-.054-.016l-34.242-.047c-.047,0-.108.016-.157.016a4.733,4.733,0,0,0-2.756,1.044c-1.541,1.211-1.994,2.982-1,3.964a2.325,2.325,0,0,0,1.1.548,2.227,2.227,0,0,0,.353.066h.917l33.379.146c.034,0,.094-.019.143-.019a4.649,4.649,0,0,0,2.946-1.065,3.6,3.6,0,0,0,1.532-2.688,1.85,1.85,0,0,0-.585-1.335,2.332,2.332,0,0,0-1.269-.583" fill="#143549"></path><path id="Path_1065" data-name="Path 1065" d="M348.187,6.592a4.659,4.659,0,0,0-2.758,1.045,3.624,3.624,0,0,0-1.52,2.614l33.38.145c.033,0,.093-.019.142-.019a4.653,4.653,0,0,0,2.946-1.064,3.605,3.605,0,0,0,1.533-2.689l-33.567-.048a.508.508,0,0,0-.156.016" fill="#143549"></path><g id="Group_139" data-name="Group 139" opacity="0.2"><g id="Group_138" data-name="Group 138"><g id="Group_137" data-name="Group 137" clip-path="url(#clip-path-7)"><path id="Path_1066" data-name="Path 1066" d="M329.131,7.226c-.761.6-.982,1.467-.5,1.938a1.82,1.82,0,0,0,2.253-.224c.762-.6.988-1.467.5-1.939a1.823,1.823,0,0,0-2.254.225" fill="#fff"></path></g></g></g><g id="Group_142" data-name="Group 142" opacity="0.2"><g id="Group_141" data-name="Group 141"><g id="Group_140" data-name="Group 140" clip-path="url(#clip-path-8)"><path id="Path_1067" data-name="Path 1067" d="M332.293,6.282c-.424.339-.551.824-.283,1.086a1.014,1.014,0,0,0,1.262-.127c.424-.335.551-.82.281-1.085a1.021,1.021,0,0,0-1.26.126" fill="#fff"></path></g></g></g><path id="Path_1068" data-name="Path 1068" d="M330.887,388.682a1.331,1.331,0,0,0-.971-.472h-24.19c-.8,0-1.066.877-.477,1.552l3.372,3.846a1.321,1.321,0,0,0,.971.474h24.189c.8,0,1.067-.877.476-1.551Z" fill="#143549"></path><path id="Path_1069" data-name="Path 1069" d="M378.426,320.941h-1.945a.984.984,0,0,1,0-1.967h1.945a.984.984,0,1,1,0,1.967m-7.785,0H368.7a.984.984,0,0,1,0-1.967h1.946a.984.984,0,1,1,0,1.967m-7.784,0h-1.946a.984.984,0,0,1,0-1.967h1.946a.984.984,0,0,1,0,1.967m-7.784,0h-1.946a.984.984,0,1,1,0-1.967h1.946a.984.984,0,0,1,0,1.967m-7.784,0h-1.947a.984.984,0,0,1,0-1.967h1.947a.984.984,0,0,1,0,1.967m-7.787,0h-1.945a.984.984,0,0,1,0-1.967H339.5a.984.984,0,0,1,0,1.967m-7.784,0h-1.947a.984.984,0,0,1,0-1.967h1.947a.984.984,0,0,1,0,1.967m-7.785,0h-1.946a.984.984,0,0,1,0-1.967h1.946a.984.984,0,0,1,0,1.967m-7.784,0H314.2a.984.984,0,1,1,0-1.967h1.946a.984.984,0,0,1,0,1.967m-7.786,0h-1.946a.984.984,0,0,1,0-1.967h1.946a.984.984,0,0,1,0,1.967m-7.785,0h-1.947a.984.984,0,1,1,0-1.967h1.947a.984.984,0,0,1,0,1.967m-7.784,0h-1.948a.984.984,0,0,1,0-1.967h1.948a.984.984,0,0,1,0,1.967m-7.784,0h-1.948a.984.984,0,0,1,0-1.967h1.948a.984.984,0,0,1,0,1.967m-7.786,0h-1.946a.984.984,0,0,1,0-1.967h1.946a.984.984,0,0,1,0,1.967m-7.787,0h-1.944a.984.984,0,0,1,0-1.967h1.944a.984.984,0,1,1,0,1.967m-7.776-.146a1.164,1.164,0,0,1-.144-.009,14.364,14.364,0,0,1-2.039-.456.983.983,0,1,1,.573-1.881,11.948,11.948,0,0,0,1.75.392.982.982,0,0,1-.14,1.954m122.495-.769a.983.983,0,0,1-.336-1.907,15.329,15.329,0,0,0,1.673-.729.983.983,0,0,1,.894,1.752,16.486,16.486,0,0,1-1.895.823,1.042,1.042,0,0,1-.336.061m-129.362-2.6a.994.994,0,0,1-.691-.282,12.5,12.5,0,0,1-1.368-1.6.981.981,0,1,1,1.593-1.147,11.027,11.027,0,0,0,1.158,1.35.982.982,0,0,1,.008,1.389.972.972,0,0,1-.7.292m135.787-1.67a.982.982,0,0,1-.717-1.653,15.2,15.2,0,0,0,1.172-1.409.984.984,0,0,1,1.582,1.169,18.044,18.044,0,0,1-1.317,1.584.989.989,0,0,1-.72.309m-139.216-5.166a.985.985,0,0,1-.971-.842,14.716,14.716,0,0,1-.153-2.078.984.984,0,0,1,.98-.985h0a.982.982,0,0,1,.982.982,12.707,12.707,0,0,0,.135,1.8.981.981,0,0,1-.831,1.115,1.168,1.168,0,0,1-.145.012m143.016-1.542a1.03,1.03,0,0,1-.261-.032.987.987,0,0,1-.688-1.21,13.756,13.756,0,0,0,.37-1.776.982.982,0,1,1,1.946.271,16.515,16.515,0,0,1-.418,2.028.986.986,0,0,1-.949.719m-142.012-6.085a.962.962,0,0,1-.372-.073.984.984,0,0,1-.537-1.282,16.409,16.409,0,0,1,.9-1.857.983.983,0,1,1,1.712.966,14.47,14.47,0,0,0-.8,1.638.982.982,0,0,1-.911.608m141.983-1.593a.986.986,0,0,1-.94-.694,11.032,11.032,0,0,0-.657-1.663.983.983,0,0,1,1.765-.864,13.475,13.475,0,0,1,.773,1.95.988.988,0,0,1-.653,1.23,1.034,1.034,0,0,1-.288.041M256.92,296.732a.969.969,0,0,1-.749-.346.981.981,0,0,1,.112-1.384,17.837,17.837,0,0,1,1.638-1.242.982.982,0,1,1,1.1,1.629,16.537,16.537,0,0,0-1.461,1.108.965.965,0,0,1-.636.235M389.9,295.151a.964.964,0,0,1-.572-.184,11.1,11.1,0,0,0-1.529-.915.982.982,0,1,1,.867-1.762,13.015,13.015,0,0,1,1.8,1.078.982.982,0,0,1-.571,1.783m-126.114-1.919a.984.984,0,0,1-.22-1.942,16.23,16.23,0,0,1,2.046-.333.993.993,0,0,1,1.072.884.98.98,0,0,1-.883,1.071,14.069,14.069,0,0,0-1.794.294,1.065,1.065,0,0,1-.221.026m118.807-.381h-2.063a.984.984,0,0,1,0-1.967h1.947a1.038,1.038,0,0,1,1.042.983.934.934,0,0,1-.926.984m-7.9,0h-1.947a.984.984,0,1,1,0-1.967H374.7a.984.984,0,0,1,0,1.967m-7.785,0h-1.946a.984.984,0,1,1,0-1.967h1.946a.984.984,0,0,1,0,1.967m-7.787,0h-1.945a.984.984,0,0,1,0-1.967h1.945a.984.984,0,0,1,0,1.967m-7.784,0h-1.947a.984.984,0,0,1,0-1.967h1.947a.984.984,0,0,1,0,1.967m-7.785,0h-1.946a.984.984,0,0,1,0-1.967h1.946a.984.984,0,0,1,0,1.967m-7.784,0h-1.946a.984.984,0,0,1,0-1.967h1.946a.984.984,0,0,1,0,1.967m-7.787,0h-1.945a.984.984,0,0,1,0-1.967h1.945a.984.984,0,1,1,0,1.967m-7.784,0h-1.946a.984.984,0,0,1,0-1.967H320.2a.984.984,0,0,1,0,1.967m-7.784,0h-1.946a.984.984,0,1,1,0-1.967h1.946a.984.984,0,0,1,0,1.967m-7.784,0h-1.948a.984.984,0,0,1,0-1.967h1.948a.984.984,0,0,1,0,1.967m-7.785,0H294.9a.984.984,0,0,1,0-1.967h1.947a.984.984,0,0,1,0,1.967m-7.788,0h-1.943a.984.984,0,0,1,0-1.967h1.943a.984.984,0,1,1,0,1.967m-7.784,0h-1.946a.984.984,0,0,1,0-1.967h1.946a.984.984,0,1,1,0,1.967m-7.784,0h-1.946a.984.984,0,1,1,0-1.967h1.946a.984.984,0,1,1,0,1.967" fill="#66c"></path><path id="Path_1070" data-name="Path 1070" d="M245.589,43.469l196.242.215,6.787,27.437,4.55-33.556L262,37.628Z" fill="#7c7cd3"></path><path id="Path_1071" data-name="Path 1071" d="M245.589,43.469,234.133,64.717H426.944l19.919,20.975,1.755-14.571-6.787-27.437Z" fill="#7171d0"></path><path id="Path_1072" data-name="Path 1072" d="M234.133,64.716V89.287h187.9l21.786,21.7,3.048-25.3L426.945,64.716Z" fill="#66c"></path><path id="Path_1073" data-name="Path 1073" d="M245.58,43.465l27.3.155,16.139-5.876L262,37.627Z" fill="#fff"></path><path id="Path_1074" data-name="Path 1074" d="M234.14,64.716H261.5l11.381-21.1-27.3-.155Z" fill="#e9f6ff"></path><rect id="Rectangle_134" data-name="Rectangle 134" width="27.364" height="24.571" transform="translate(234.14 64.716)" fill="#d4eeff"></rect><path id="Path_1075" data-name="Path 1075" d="M298.659,43.465l27.3.155L342.1,37.744l-27.029-.117Z" fill="#fff"></path><path id="Path_1076" data-name="Path 1076" d="M287.218,64.716h27.364l11.381-21.1-27.3-.155Z" fill="#e9f6ff"></path><rect id="Rectangle_135" data-name="Rectangle 135" width="27.364" height="24.571" transform="translate(287.218 64.716)" fill="#d4eeff"></rect><path id="Path_1077" data-name="Path 1077" d="M352.344,43.465l27.3.155,16.138-5.876-27.028-.117Z" fill="#fff"></path><path id="Path_1078" data-name="Path 1078" d="M340.9,64.716h27.364l11.381-21.1-27.3-.155Z" fill="#e9f6ff"></path><rect id="Rectangle_136" data-name="Rectangle 136" width="27.364" height="24.571" transform="translate(340.903 64.716)" fill="#d4eeff"></rect><path id="Path_1079" data-name="Path 1079" d="M406.029,43.465l27.3.155,16.139-5.876-27.03-.117Z" fill="#fff"></path><path id="Path_1080" data-name="Path 1080" d="M394.588,64.716H421.95l11.383-21.1-27.305-.155Z" fill="#e9f6ff"></path><rect id="Rectangle_137" data-name="Rectangle 137" width="27.362" height="24.571" transform="translate(394.588 64.716)" fill="#d4eeff"></rect><path id="Path_1081" data-name="Path 1081" d="M234.151,89.078c0,.121-.018.244-.018.368a13.421,13.421,0,1,0,26.842,0c0-.124-.014-.247-.017-.368Z" fill="#d4eeff"></path><path id="Path_1082" data-name="Path 1082" d="M260.995,89.078c-.005.121-.021.244-.021.368a13.422,13.422,0,1,0,26.844,0c0-.124-.013-.247-.019-.368Z" fill="#66c"></path><path id="Path_1083" data-name="Path 1083" d="M287.835,89.078c0,.121-.017.244-.017.368a13.421,13.421,0,1,0,26.841,0c0-.124-.013-.247-.018-.368Z" fill="#d4eeff"></path><path id="Path_1084" data-name="Path 1084" d="M314.679,89.078c0,.121-.02.244-.02.368a13.422,13.422,0,1,0,26.844,0c0-.124-.014-.247-.019-.368Z" fill="#66c"></path><path id="Path_1085" data-name="Path 1085" d="M341.521,89.078c0,.121-.018.244-.018.368a13.421,13.421,0,1,0,26.842,0c0-.124-.014-.247-.019-.368Z" fill="#d4eeff"></path><path id="Path_1086" data-name="Path 1086" d="M368.364,89.078c0,.121-.019.244-.019.368a13.421,13.421,0,1,0,26.843,0c0-.124-.013-.247-.018-.368Z" fill="#66c"></path><path id="Path_1087" data-name="Path 1087" d="M395.2,89.078c0,.121-.018.244-.018.368a13.421,13.421,0,1,0,26.842,0c0-.124-.015-.247-.018-.368Z" fill="#d4eeff"></path><path id="Path_1088" data-name="Path 1088" d="M390.741,230.417l1.731.016L394,220.949l-1.731-.012Z" fill="#d4eeff"></path><path id="Path_1089" data-name="Path 1089" d="M387.462,226.523l9.607.032.206-1.714-9.607-.028Z" fill="#d4eeff"></path><path id="Path_1090" data-name="Path 1090" d="M312.954,230.417l1.73.016,1.528-9.484-1.734-.012Z" fill="#d4eeff"></path><path id="Path_1091" data-name="Path 1091" d="M309.674,226.523l9.608.032.206-1.714-9.606-.028Z" fill="#d4eeff"></path><path id="Path_1092" data-name="Path 1092" d="M399.1,151.656l1.731.016,1.527-9.487-1.731-.012Z" fill="#d4eeff"></path><path id="Path_1093" data-name="Path 1093" d="M395.827,147.763l9.6.032.208-1.714-9.606-.031Z" fill="#d4eeff"></path><path id="Path_1094" data-name="Path 1094" d="M321.317,151.656l1.73.016,1.528-9.487-1.733-.012Z" fill="#d4eeff"></path><path id="Path_1095" data-name="Path 1095" d="M318.039,147.763l9.6.032.208-1.714-9.608-.031Z" fill="#d4eeff"></path><path id="Path_1096" data-name="Path 1096" d="M473,268.889c-1.253,2.04-2.129,4.223-3.426,6.187-3.841,5.808-4.279,10.953-6.65,13.756a3.212,3.212,0,0,1-2.048,1.311,7.721,7.721,0,0,0-4.675,2.772c-1.122,1.276,1.134.836.008,2.521-.667.992-2.943,3.675-2.666,4.061.565.791,1.28-.009,2.05-.972a.909.909,0,0,0,1.534.171,1.23,1.23,0,0,0,1.815-.1c.783.644,1.5.289,2.2-.839.749-1.2,2.309-2.829,4.394-6.044,2.736-4.206,5.172-6.515,7.047-9.591,1.633-2.683,4.359-6.044,5.477-10.909.205-.9-4.546-2.046-5.059-2.325" fill="#e8d7b9" fill-rule="evenodd"></path><path id="Path_1097" data-name="Path 1097" d="M476.218,269.972c-.983,2.677-2.534,5.088-3.771,7.768-1.25,2.7-2.4,4.728-3.831,7.361-2.3,4.225-4.553,7.411-9.2,8.182a4.525,4.525,0,0,1-2.929,1.57,1.937,1.937,0,0,1-.273.583c-.667.992-2.943,3.675-2.666,4.061.566.791,1.28-.009,2.05-.972a.909.909,0,0,0,1.534.171,1.231,1.231,0,0,0,1.816-.1c.782.644,1.5.289,2.2-.839.749-1.2,2.309-2.829,4.394-6.044,2.736-4.206,5.172-6.515,7.047-9.591,1.633-2.683,4.36-6.044,5.477-10.909.09-.4-.789-.843-1.841-1.242" fill="#f0bf97" fill-rule="evenodd"></path><path id="Path_1098" data-name="Path 1098" d="M459.546,295.664h-3.27a4.849,4.849,0,0,0-4.844,4.843v10.048h12.954V300.507a4.848,4.848,0,0,0-4.84-4.843m3.717,13.766H452.555v-8.923a3.726,3.726,0,0,1,3.721-3.722h3.27a3.724,3.724,0,0,1,3.717,3.722Z" fill="#5656c7"></path><path id="Path_1099" data-name="Path 1099" d="M442.9,304.669l-2.651,49.753h35.315l-2.689-49.753Z" fill="#5656c7" fill-rule="evenodd"></path><path id="Path_1100" data-name="Path 1100" d="M460.262,296.1l-3.171-.8a4.851,4.851,0,0,0-5.882,3.513l-2.458,9.741,12.563,3.17,2.456-9.741a4.846,4.846,0,0,0-3.508-5.881m2.42,5.606-2.185,8.654-10.38-2.623,2.182-8.65a3.728,3.728,0,0,1,4.518-2.7l3.17.8a3.72,3.72,0,0,1,2.7,4.517" fill="#66c"></path><path id="Path_1101" data-name="Path 1101" d="M417.413,333.266l59.757,15.081,4.215-35.873-50.721-12.8Z" fill="#66c" fill-rule="evenodd"></path><path id="Path_1102" data-name="Path 1102" d="M452.689,294.882c.832.525,1.846.285,2.705-.767a4.459,4.459,0,0,0,2.484-1.188l.824-2.062-3.56,1.831a13.665,13.665,0,0,1-2.453,2.186" fill="#e8d7b9" fill-rule="evenodd"></path><path id="Path_1103" data-name="Path 1103" d="M455.821,296.2a28.336,28.336,0,0,0-1.9,2.452c-.319.446-.286.859-.043.982s.535.168.947-.371a20.442,20.442,0,0,0,1.772-2.711c.449-.795.069-1.353-.778-.352" fill="#e8d7b9" fill-rule="evenodd"></path><path id="Path_1104" data-name="Path 1104" d="M458.174,294.708c-.82,1.121-1.444,2.236-2.252,3.349-.32.443-.122.659.145.779s.579.151.95-.415a28.091,28.091,0,0,0,1.92-3.418c.378-.833.008-1.35-.763-.295" fill="#e8d7b9" fill-rule="evenodd"></path><path id="Path_1105" data-name="Path 1105" d="M459.361,295.069c-.687,1.032-1.148,2.005-1.826,3.034-.27.412-.011.65.254.767s.563.158.871-.367a23.192,23.192,0,0,0,1.546-3.174c.294-.774-.194-1.239-.845-.26" fill="#e8d7b9" fill-rule="evenodd"></path><path id="Path_1106" data-name="Path 1106" d="M460.889,295.37c-.687,1.036-1,1.571-1.674,2.6-.27.408-.065.618.2.735s.563.158.871-.368a16.762,16.762,0,0,0,1.353-2.673c.292-.776-.1-1.271-.749-.3" fill="#e8d7b9" fill-rule="evenodd"></path><path id="Path_1107" data-name="Path 1107" d="M509.074,256.8c.4,4.631,2.231,10.4,6.648,13.466-4.685-21.91-1.673-42.914-10.435-56.522-6.659-10.342-15.483-10.206-20.6-8.838-18.078,4.834-11.172,27.207-9.845,32.4,2.608,10.2,19.747,42.214,43.54,52.068-4.248-9.708-11.105-22.8-9.311-32.578" fill="#29293d" fill-rule="evenodd"></path><path id="Path_1108" data-name="Path 1108" d="M509.074,256.8c.4,4.631,2.231,10.4,6.648,13.466-4.685-21.91-1.673-42.914-10.435-56.522-6.659-10.342-15.483-10.206-20.6-8.838-1.907.51,12.122.327,16.618,11.087,1.7,4.079,13.721,8.318,3.622,22.841-9.881,14.219.956,45.368,13.455,50.544-4.248-9.708-11.105-22.8-9.311-32.578" fill="#14141f" fill-rule="evenodd"></path><path id="Path_1109" data-name="Path 1109" d="M497.155,384.894a34.254,34.254,0,0,1-1.966-4.735c-2.338-8.132-.073-14.654-2.214-25.322-.418-2.09-1.512-3.953-1.278-6.38.084-2.28.426-4.05.306-5.808-.118-1.676-.69-3.343-.851-5.36a294.192,294.192,0,0,1-.171-32.271l-16.281-8.21c.308,10.092,4.129,35.15,4.338,36.233,1.8,9.344,1.14,10.846,2.154,18.809,1.067,8.4,6.37,21.584,8.723,30.421.814,3.054,1.691,16.981,1.53,19.43-.1,1.546-1.157,4.047,1.009,4.047,1.813,0,6.671-2.036,7.295-4.142.66-2.218-1.276-6.24-2-10.212-.56-3.066-.059-4.958-.594-6.5" fill="#f0bf97" fill-rule="evenodd"></path><path id="Path_1110" data-name="Path 1110" d="M486.2,354.945c-2.6-8.255-4.509-16.684-2.493-25.194,2.128-8.981.47-18.252,2.113-27.333l-11.126-5.61c.308,10.092,4.129,35.151,4.338,36.234,1.806,9.343,1.141,10.845,2.154,18.808,1.068,8.4,6.37,21.584,8.723,30.421.814,3.054,1.691,16.982,1.53,19.43-.1,1.546-1.157,4.048,1.009,4.048a10.962,10.962,0,0,0,4.106-1.286c-.265-7.492-4.191-15.037-4.544-22.546-.456-9.763-2.9-17.729-5.81-26.972" fill="#e8d7b9" fill-rule="evenodd"></path><path id="Path_1111" data-name="Path 1111" d="M498.429,394.634a11.907,11.907,0,0,1-1.739,4.957c-1.6,2.189-4.907,1.3-5.258-.374.037,1.141.044,2.018.013,2.483-.1,1.546-1.158,4.048,1.008,4.048,1.814,0,6.671-2.036,7.295-4.142.492-1.651-.453-4.3-1.266-7.178-.015.069-.041.136-.053.206" fill="#29293d" fill-rule="evenodd"></path><path id="Path_1112" data-name="Path 1112" d="M498.429,394.634a11.907,11.907,0,0,1-1.739,4.957,2.785,2.785,0,0,1-.511.522,1.983,1.983,0,0,1-.073.489,5.554,5.554,0,0,1-4.982,3.971,1.154,1.154,0,0,0,1.329,1.175c1.814,0,6.671-2.036,7.295-4.142.492-1.651-.453-4.3-1.266-7.178-.015.069-.041.136-.053.206" fill="#14141f" fill-rule="evenodd"></path><path id="Path_1113" data-name="Path 1113" d="M496.166,237.16c-4.859,1.334-3.77-4.051-4.4-8.764l-6.6,2.325c.818,4.428,1.447,7.57-2.129,8.958-2.063.8-5.6,1.38-7.193,2.192-6.434,3.259-2.891,22.229-2.891,27.37l5.112,1.974a51.711,51.711,0,0,0,1.658-14.337l21.381-2.813-1.762-7.244,7.2-2.565c-1.812-7.6-4.58-8.686-10.375-7.1" fill="#e8d7b9" fill-rule="evenodd"></path><path id="Path_1114" data-name="Path 1114" d="M496.166,237.16c-4.859,1.334-3.77-4.051-4.4-8.764l-6.6,2.325c.161.865.312,1.682.428,2.442,1.785,2.685,5.327,6.842,8.449,6.459,1.687-.21,3.227-2.151,5.173-2.389a10.166,10.166,0,0,1,4.124.387c-1.7-1.395-3.974-1.334-7.168-.46" fill="#f0bf97" fill-rule="evenodd"></path><path id="Path_1115" data-name="Path 1115" d="M476.845,257.534c-.072,1.058-.146,2.141-.174,3.266-.089,3.262.141,6.639-.635,9.632l2.023.783a46.466,46.466,0,0,0,1.6-11.268,10.734,10.734,0,0,1-2.814-2.413" fill="#f0bf97" fill-rule="evenodd"></path><path id="Path_1116" data-name="Path 1116" d="M492.173,210.315a9.013,9.013,0,0,0-5.726-.569c-5.762,1.019-7.053,5.983-6.673,10.9.216,2.771.392,5.179,1.685,7.354.625,1.034,4.433,5.478,7.136,5.478,2.953-.013,6.5-4.977,7.018-6.348a20.006,20.006,0,0,0,.91-6.306c.013-.206.013-.4.013-.586.04-4.3-1.1-8.309-4.363-9.928" fill="#e8d7b9" fill-rule="evenodd"></path><path id="Path_1117" data-name="Path 1117" d="M492.173,210.315a12.9,12.9,0,0,0-7.751.517s2.651,8.948,12.114,9.411c.04-4.3-1.1-8.309-4.363-9.928" fill="#f0bf97" fill-rule="evenodd"></path><path id="Path_1118" data-name="Path 1118" d="M491.34,290.631c-5.186,10.681-4.045,17.449-3.885,31.717a161.164,161.164,0,0,1-.489,18.519c-.159,2.019-.73,3.685-.848,5.361-.122,1.755.22,3.525.3,5.808.233,2.427-.859,4.289-1.279,6.38-2.138,10.665.232,18.356-2.107,26.49-.763,2.655-1.674,2.416-2.071,3.567-.536,1.543-.035,3.43-.594,6.5-.724,3.969-2.705,8-2,10.212.451,1.416,3.841,5.337,5.656,5.337,2.1,0,1.919-3.7,2.1-5.236.174-1.508.361-12.686.431-13.563.256-3.231,8.86-26.934,9.93-35.331,1.013-7.96.489-11.657,2.294-21,2.417-12.506,4.3-23.96,4.639-35.008l-1.276-9.715Z" fill="#e8d7b9" fill-rule="evenodd"></path><path id="Path_1119" data-name="Path 1119" d="M484.454,405.2c-3.738,0-4.729-6.557-4.854-7.086-.818,2.845-1.746,5.451-1.228,7.073.451,1.416,3.841,5.337,5.655,5.337,2.1,0,1.92-3.7,2.1-5.235.028-.235.054-.723.08-1.353-.5.45-1.009,1.264-1.751,1.264" fill="#29293d" fill-rule="evenodd"></path><path id="Path_1120" data-name="Path 1120" d="M484.454,405.2a3,3,0,0,1-1.2-.257,4.816,4.816,0,0,1-.031,1.309,2.053,2.053,0,0,1-2.509,1.425,5.613,5.613,0,0,1-.985-.368c1.271,1.553,3.12,3.215,4.3,3.215,2.1,0,1.92-3.7,2.1-5.235.028-.235.054-.723.08-1.353-.5.45-1.009,1.264-1.751,1.264" fill="#14141f" fill-rule="evenodd"></path><path id="Path_1121" data-name="Path 1121" d="M502.9,254.562c.231-.966-2.909-8.2-2.909-8.2-7.328.219-14.216-.155-20.019,2.335-2.208.946-4.315,3.623-4.315,5.945a7.593,7.593,0,0,0,2.562,6.1c.679,4.1-.028,8.2-.163,10.471-.518,9.081-7.078,14.945-7.078,23.906,0,22.28,4.147,30.2,6.159,44.988a27.035,27.035,0,0,0,6.908,1.7c6.457.459,14.111-.342,16.409-2.312,3.917-18.844,8.5-32.933,6.893-47.181-1.019-9.053-7.614-25.121-4.447-37.754" fill="#fff" fill-rule="evenodd"></path><path id="Path_1122" data-name="Path 1122" d="M502.881,254.119c.232-.966-2.888-7.757-2.888-7.757-.94.028-11.71-.048-15.555.988.356,1.682,6.582,5.182,6.582,7.336,0,3.373-5.317,6.389-2.9,9.031.833.906,6.891,3.5,6.125,6.851-1.03,4.5,1.75,9.085,2.311,13.785.516,4.318-6.7,7.079-5.739,11.312,2.245,9.879-2,4.824-2.7,10.709-.947,8.087,1.981,27.519.607,35.55,5.088-.1,9.971-.922,11.726-2.427,3.917-18.844,8.5-32.933,6.894-47.181-1.02-9.052-7.637-25.564-4.469-38.2" fill="#f5f5f9" fill-rule="evenodd"></path><path id="Path_1123" data-name="Path 1123" d="M486.944,226.758c-.214.288.369.449.66.469a4.178,4.178,0,0,1,.488.075,1.593,1.593,0,0,0,.752,0,4.224,4.224,0,0,1,.489-.075c.291-.02.8-.14.662-.469a2.637,2.637,0,0,0-1.6-.45,2.126,2.126,0,0,0-1.446.45" fill="#f0bf97" fill-rule="evenodd"></path><path id="Path_1124" data-name="Path 1124" d="M498.961,245.833s6.882,15.889,9.63,19.468l4.841-2.075c-1.286-3.282-4.517-16.456-8.033-22.6Z" fill="#e8d7b9" fill-rule="evenodd"></path><path id="Path_1125" data-name="Path 1125" d="M537.686,241.376c-.393-.269-3.021,2.065-4,2.756-1.656,1.163-1.268-1.1-2.518.048a7.1,7.1,0,0,0-2.666,4.732c-.193,2.277-10.21,6.234-16.5,8.986-2.156.945-4.328,7.774-2.549,7.774,4.992,0,8.644-3.184,11.289-4.879,3.033-1.941,5.287-4.428,9.433-7.253,3.166-2.157,4.82-3.675,5.946-4.53,1.034-.785,1.447-1.447.792-2.217a1.231,1.231,0,0,0,.053-1.814.912.912,0,0,0-.2-1.534c.946-.792,1.729-1.52.927-2.069" fill="#e8d7b9" fill-rule="evenodd"></path><path id="Path_1126" data-name="Path 1126" d="M509.468,309.364l41.029,4.593L553.84,255.8l-34.825-3.893Z" fill="#4545c1" fill-rule="evenodd"></path><path id="Path_1127" data-name="Path 1127" d="M537.569,245.664l-2.856-.319a4.265,4.265,0,0,0-4.707,3.76l-.98,8.777,11.317,1.267.982-8.778a4.264,4.264,0,0,0-3.756-4.707m2.774,4.6-.87,7.8-9.358-1.048.874-7.8a3.277,3.277,0,0,1,3.613-2.886l2.857.321a3.27,3.27,0,0,1,2.884,3.614" fill="#4545c1"></path><path id="Path_1128" data-name="Path 1128" d="M536.681,245.275h-2.873a4.264,4.264,0,0,0-4.258,4.26v8.828l11.386,0,0-8.831a4.263,4.263,0,0,0-4.257-4.26m3.27,12.106-9.415,0,0-7.843a3.273,3.273,0,0,1,3.27-3.271h2.873a3.274,3.274,0,0,1,3.271,3.271Z" fill="#66c"></path><path id="Path_1129" data-name="Path 1129" d="M512.222,254.686l-4.073,31.485,54.183.006L558.208,254.7Z" fill="#66c" fill-rule="evenodd"></path><path id="Path_1130" data-name="Path 1130" d="M530.92,243.122l-1.895,3.785,2.191-1.052a4.5,4.5,0,0,0,1.131-2.508c1.032-.884,1.25-1.9.705-2.724a13.337,13.337,0,0,1-2.132,2.5" fill="#e8d7b9" fill-rule="evenodd"></path><path id="Path_1131" data-name="Path 1131" d="M536.853,241.772a28.672,28.672,0,0,0-2.41,1.954c-.983.868-.417,1.235.368.77a20.774,20.774,0,0,0,2.671-1.83c.53-.425.477-.726.351-.957s-.543-.263-.98.063" fill="#e8d7b9" fill-rule="evenodd"></path><path id="Path_1132" data-name="Path 1132" d="M536.3,243.787c-1.1.833-2.194,1.482-3.3,2.321-1.042.8-.516,1.157.308.758a27.819,27.819,0,0,0,3.446-1.875c.559-.387.545-.786.423-1.043a.532.532,0,0,0-.881-.161" fill="#e8d7b9" fill-rule="evenodd"></path><path id="Path_1133" data-name="Path 1133" d="M536.606,245.186c-1.014.7-2.142,1.395-3.161,2.1-.961.671-.487,1.15.28.839a23.244,23.244,0,0,0,3.225-1.54.8.8,0,0,0,.342-1.06c-.125-.263-.282-.621-.686-.343" fill="#e8d7b9" fill-rule="evenodd"></path><path id="Path_1134" data-name="Path 1134" d="M536.432,247c-1.014.7-1.543,1.02-2.563,1.729-.961.672-.456,1.053.31.746a16.69,16.69,0,0,0,2.644-1.412c.519-.321.47-.625.35-.878s-.338-.463-.741-.185" fill="#e8d7b9" fill-rule="evenodd"></path><path id="Path_1135" data-name="Path 1135" d="M483.571,208.732s3.177,10.671,14.9,9.313c0,0-1.39-13.8-14.9-9.313" fill="#29293d" fill-rule="evenodd"></path></g></g></g></svg> 