<?xml version="1.0" encoding="UTF-8"?> <svg xmlns="http://www.w3.org/2000/svg" xmlns:xlink="http://www.w3.org/1999/xlink" id="Group_164" data-name="Group 164" width="533.757" height="406.016" viewBox="0 0 533.757 406.016"><defs><clipPath id="clip-path"><rect id="Rectangle_151" data-name="Rectangle 151" width="533.757" height="406.016" fill="none"></rect></clipPath><clipPath id="clip-path-3"><rect id="Rectangle_148" data-name="Rectangle 148" width="196.852" height="191.851" fill="none"></rect></clipPath><clipPath id="clip-path-4"><rect id="Rectangle_149" data-name="Rectangle 149" width="182.742" height="177.237" fill="none"></rect></clipPath></defs><g id="Group_163" data-name="Group 163" clip-path="url(#clip-path)"><g id="Group_162" data-name="Group 162"><g id="Group_161" data-name="Group 161" clip-path="url(#clip-path)"><path id="Path_1217" data-name="Path 1217" d="M337.121,73.707a7.666,7.666,0,1,0,7.666,7.668,7.665,7.665,0,0,0-7.666-7.668" transform="translate(-71.502 -15.997)" fill="#66c"></path><rect id="Rectangle_146" data-name="Rectangle 146" width="3.307" height="30.245" transform="translate(263.966 10.752)" fill="#14141f"></rect><path id="Path_1218" data-name="Path 1218" d="M317.432,49.62l-36.8,26.526h91.781L335.62,49.62Z" transform="translate(-60.906 -10.769)" fill="#29293d"></path><rect id="Rectangle_147" data-name="Rectangle 147" width="86.824" height="10.752" transform="translate(222.208)" fill="#f5f5f9"></rect><path id="Path_1219" data-name="Path 1219" d="M301.524,386.107c-95.359,0-172.661,9.734-172.661,21.741s77.3,21.739,172.661,21.739,172.664-9.732,172.664-21.739-77.3-21.741-172.664-21.741" transform="translate(-27.967 -83.797)" fill="#e9f6ff"></path><path id="Path_1220" data-name="Path 1220" d="M261.611,418.72C117.127,418.72,0,428.454,0,440.461S117.127,462.2,261.611,462.2s261.61-9.733,261.61-21.74S406.094,418.72,261.611,418.72" transform="translate(0 -90.875)" fill="#f5f5f9"></path><path id="Path_1221" data-name="Path 1221" d="M369.185,457.369c-95.357,0-172.662,9.733-172.662,21.74s77.305,21.74,172.662,21.74,172.662-9.733,172.662-21.74-77.3-21.74-172.662-21.74" transform="translate(-42.651 -99.263)" fill="#f5f5f9"></path><path id="Path_1222" data-name="Path 1222" d="M210.315,463.027c-95.36,0-172.662,9.734-172.662,21.741s77.3,21.739,172.662,21.739,172.662-9.732,172.662-21.739-77.3-21.741-172.662-21.741" transform="translate(-8.172 -100.49)" fill="#f5f5f9"></path><g id="Group_157" data-name="Group 157" transform="translate(336.904 166.085)" opacity="0.5"><g id="Group_156" data-name="Group 156"><g id="Group_155" data-name="Group 155" clip-path="url(#clip-path-3)"><path id="Path_1223" data-name="Path 1223" d="M641.416,404.218c-8.835-5.727-23.868-6.727-31.905,1.836a49.147,49.147,0,0,0-11.658,3.806c2.836-1.964,5.762-4.277,6.441-7.894.8-4.255-2.679-4.592-5.3-2.857-2.783,1.835-2.211,3.53-2.9,6.612-.578,2.606-1.609,4.65-1.813,5.756q-1.836.851-3.667,1.687-2.76,1.239-5.537,2.444c.647-.664,1.285-1.3,1.551-1.618,2.5-2.974,5.9-6.455,6.7-10.727.793-4.248-2.391-7.436-5.932-5.37-2.984,1.741-1.787,6.308-1.895,9.6-.135,4.064-1.209,6.066-1.77,8.7q-4.692,2.014-9.421,3.888c3.117-2.65,6.017-6.386,7.1-9.189,1.932-4.991-3.332-6.094-6.481-4.721-3.444,1.5-3.483,5.47-4.107,9a39.652,39.652,0,0,1-2.04,7.037q-2.476.931-4.962,1.812-1.934.684-3.875,1.338a19.116,19.116,0,0,0,4.78-8.328c.41-1.7,1.313-4.875,0-6.3-1.669-1.8-4.261-.1-5.407,1.468-2.84,3.888-1.87,10.562-3.664,14.568q-4.943,1.583-9.931,2.951a26.567,26.567,0,0,0,6.687-7.69c1.058-1.989,1.687-4.739.44-6.562-1.377-2.009-4.261-1.5-5.845.29s-2.242,4.4-2.976,6.839c-.78,2.593-2.553,5.706-2.9,8.318-1.572.389-3.146.767-4.725,1.114-.29.064-.581.117-.87.178.692-.762,1.3-1.56,1.744-2.105a10.338,10.338,0,0,0,2.634-6.254c.009-2.379-1.708-4.85-3.711-4.525-1.676.272-2.783,2.278-3.131,4.232s-.175,3.992-.492,5.951a17.365,17.365,0,0,1-1.124,3.487c-3.569.632-7.144,1.125-10.724,1.564a27.633,27.633,0,0,0,4.605-6.94,9.247,9.247,0,0,0,.511-5.592c-.512-1.82-2.132-3.286-3.721-2.876-1.647.424-2.574,2.559-2.754,4.537-.113,1.239-1.267,9.1-1.121,11.173-3.49.413-6.985.8-10.484,1.268-1.29.171-1.36,2.311-.02,2.412a71.69,71.69,0,0,0,13.845-.453c.684,1.1,1.993,2.071,2.57,3.318a28.169,28.169,0,0,1,1.05,2.751h7.4c-.027-.043-.054-.091-.081-.136a18.024,18.024,0,0,0-7.563-6.391c2.914-.437,5.814-.975,8.673-1.546q.4.195.8.384A9.762,9.762,0,0,1,538,438.927a16.852,16.852,0,0,1,1.792,3.339,21.289,21.289,0,0,0,1.055,1.885h9.482a8.15,8.15,0,0,0-.943-1.613,16.979,16.979,0,0,0-8.894-5.994,28.093,28.093,0,0,0-4.556-.943c3.649-.763,7.282-1.653,10.9-2.644a12.7,12.7,0,0,1,3.336,3.1q1.923,2.507,3.846,5.006a29.851,29.851,0,0,0,2.626,3.086h11.481a2.936,2.936,0,0,0,.391-1.093c.185-1.49-.793-2.807-1.759-3.792a25.27,25.27,0,0,0-9.889-6.28,33.414,33.414,0,0,0-5.395-1.364q4.881-1.468,9.7-3.166a25.55,25.55,0,0,1,10.076,5.522c1.705,1.6,3.221,3.468,4.96,5.016a9.762,9.762,0,0,0,5.957,2.849,3.757,3.757,0,0,0,3.955-2.975,4.787,4.787,0,0,0-.162-1.895c-1.1-4.206-4.973-6.437-8.6-7.5-3.711-1.1-9.029-2.322-13.462-1.991q6.2-2.263,12.32-4.861a22.192,22.192,0,0,1,6.3,4.35c3.22,2.862,6.17,6.171,9.744,8.422,2.254,1.418,4.913,2.4,7.4,1.618a2.133,2.133,0,0,0,1.081-.653,2.876,2.876,0,0,0,.2-2.51,11.548,11.548,0,0,0-3.4-5.12,24.912,24.912,0,0,0-12.976-6.144,38.827,38.827,0,0,0-7.029-.528q5.9-2.521,11.73-5.251c.266-.125.536-.256.8-.381,1.966,2.14,4.126,4.107,6.16,6.143s4.332,4.2,7.007,4.134a3.3,3.3,0,0,0,2.329-.931,4.644,4.644,0,0,0,.624-4.669,8.147,8.147,0,0,0-2.967-3.555,24.157,24.157,0,0,0-8.4-3.447c2.218-1.1,4.453-2.2,6.715-3.187-.024.051-.049.1-.07.152,3.314,2.607,5.916,6.416,9.314,8.857a10.9,10.9,0,0,0,8.987,1.806,2.48,2.48,0,0,0,2.047-1.719,3.146,3.146,0,0,0-.685-2.26,17.036,17.036,0,0,0-9.538-6.766,27.362,27.362,0,0,0-7.185-1.258,34.87,34.87,0,0,1,11.875-2.62.405.405,0,0,0,.14-.034,28.777,28.777,0,0,1,7.026,1.612c2.8,1.077,5.495,2.524,8.343,3.415a12.326,12.326,0,0,0,8.7-.034c1.971-.875,3.887-3.319,3.036-5.587a4.863,4.863,0,0,0-2.116-2.255" transform="translate(-446.888 -252.3)" fill="#4545c1"></path><path id="Path_1224" data-name="Path 1224" d="M464.128,409.33a16.821,16.821,0,0,0,.949,7.127h51.851c59.969-36.154,12.888-99.216,93.315-146.329-47.915-9.5-143.885,123.431-146.115,139.2" transform="translate(-437.615 -224.606)" fill="#5656c7"></path><path id="Path_1225" data-name="Path 1225" d="M588.852,346.885c-2.839,2.029-4.483,6.159-7.679,7.009-2.394.64-4.991-.65-7.907.792a25.81,25.81,0,0,0-7.1,5.663c-4.067,4.432-5.607,9.421-8.55,14.438-2.72,4.632-8.428,5.2-13.285,7.63-7.2,3.593-13.025,9.117-17.838,15.5-2.737,3.631-4.818,10.175-8.284,12.372-2.438,1.54-6.02,1.6-8.6,3.416-2.969,2.09-5.161,5.539-6.821,8.729-2.082,4.006-1.618,7.271.464,9.816h20.607c5.738-2.12,11.2-5,14.177-8.72,2.5-3.119,1.333-3.828,4.617-4.888,5.612-1.807,10.755-1.288,15.313-5.87a36.155,36.155,0,0,0,8.2-13.112c1.128-3.379.3-5.306,3.037-7.506,4.317-3.467,9.288-4.456,13.055-8.995a42.888,42.888,0,0,0,6.009-10.783c1.073-2.532.6-4.561,1.195-6.879,1.078-4.165,5.9-5.514,8.609-8.99,2.956-3.8,4.664-8.9,6.236-13.44-4.721-2.018-11.567,1.034-15.464,3.819" transform="translate(-445.733 -240.399)" fill="#66c"></path><path id="Path_1226" data-name="Path 1226" d="M462.034,364.418c-1.486-6.567-2.957-14.863-7.343-20.186-.669,3.243-1.5,6.54-1.966,9.824-.328,2.287.085,4.76-.378,6.935a88.722,88.722,0,0,0-9.241-23.08c-3.634-6.264-6.887-15-12.3-19.9-.993,7.089-.42,15.732.5,22.838,1.3,9.976,2.674,19.978,4.027,29.942,2.045,15.058,6.038,29.206,10.554,43.7.927,2.983,1.8,7.967,3.358,12.471h16.157c.2-1.575.37-3.143.609-4.589,1.649-9.992,2.289-21.08.7-31.093-1.429-8.963-2.679-18.009-4.681-26.853" transform="translate(-430.29 -235.102)" fill="#3cb6d5"></path><path id="Path_1227" data-name="Path 1227" d="M561.208,213.008c-13.214-5.908-11,19.1-24.283,34.84q-3.274,2.9-6.382,6.023c1.551-4.632,2.382-11.528.5-13.353-4.932-4.782-5.431,5.048-5.336,7.354a33.8,33.8,0,0,0,1.8,9.133c-2.841,3-5.568,6.084-8.186,9.2.4-1.109.725-2.148.991-2.854,2.1-5.563,5.269-17.157-1.885-18.231-9.02-1.357-3.548,19.413-3.008,25.826-.272.335-4.035,5.157-5.59,7.273,1.763-7.193,2.54-19.786-3.631-21-13.026-2.556.978,15.948,1.4,23.715-2.7,3.926-6.512,10.12-8.92,14.245.961-4.125,1.524-8.4.659-12.167-1.193-5.211-5.6-10.213-8.1-3.417-1.448,3.947.976,7.876,2.329,11.642a51.122,51.122,0,0,1,2.253,9.014q-3.047,5.614-5.7,11.434c.868-5.957,1.027-12.308-1.549-17.132-4.9-9.184-12.768-2.841-12.9,4.795-.14,7.846,8.313,13.4,11.539,19.112-1.43,3.563-2.727,7.172-3.92,10.813-.857-6.335-1.764-13.249-5.9-18.057-4.21-4.89-13.7-5.666-13.474,2.015.277,9.414,14.119,11.693,18.781,17.908-1.548,4.9-2.9,9.877-4.1,14.914a46.7,46.7,0,0,0-4.513-13.243c-3.62-6.409-10.947-3.758-11.774,2.7-1.175,9.205,10.4,12.044,14.876,16.846q-.863,4.074-1.617,8.2c-.578,3.175-1.4,7.569-1.985,10.725-1.377-5.413-3.813-12.177-6.754-14.79-6.1-5.421-12.736-.146-9.377,7.022,3.193,6.816,11.546,7.716,15.1,13.286-.875,4.435-1.818,8.841-2.889,13.212-2.554-8.089-9.251-16.6-15.944-18.11-7.36-1.666-10.845,3.974-6.477,9.939,3.141,4.288,16.236,7.747,21.233,12.8-.85,3.142-1.827,6.25-2.87,9.342h5.116c.366-1.008.752-2.008,1.088-3.028,1.138-4.733,5.258-4.966,9.128-6,4.432-1.183,24.142,8.1,20.332-8.585-3.223-14.115-19.889-.81-27.09,6.473.8-3.086,1.506-6.2,2.155-9.343,1.362-2.455,3.369-4.622,8.044-6.455,6.9-2.708,33.355,1.241,30.987-12.1-3.691-20.8-33.647,7.6-38.545,16.142,1.07-5.43,3.332-18.388,3.525-19.43a18.729,18.729,0,0,1,9.25-5.687c4.332-1.171,18.275-3.548,16.084-11.314-2.223-7.875-13.262-1.044-15.669,1.647-3.2,3.584-6.558,7.143-8.9,11.367,1.114-5.663,2.364-11.271,3.823-16.8,13.419-9.467,37.795-5.338,32.7-17.438-5.786-13.731-19.883,9.31-32.125,15.315a183.323,183.323,0,0,1,5.86-17.882c1.531-.485,3.882-1.978,6.8-2.831,6.569-1.916,19.308.064,21.125-7.007,2.493-9.7-6.626-9.914-12.447-7.089-6.416,3.113-10.033,8.54-14.207,13.736.031-.071.059-.146.089-.222a198.193,198.193,0,0,1,8.707-18.211c8.867-3.134,31.183,2.524,26.612-10.5-3.551-10.109-19.726,2.6-25.756,8.939q4.779-8.659,10.367-16.812c.987.608,3.014-.7,7.08-.654,5.659.07,16.7,2.005,18.6-5.5,1.334-5.266-7.48-5.773-11.566-4.659-4.61,1.255-8.435,5.653-12.3,8.216.785-1.108,8.743-11.612,12.131-15.6,9.051-2.026,33.654-1.844,31-10.85-2.986-10.15-20.385,2.249-29.062,8.579,1.152-1.319,10.179-11.336,12.438-13.531a66.667,66.667,0,0,0,22.346-10.6c5.275-4,13.551-16.252-2.127-23.262" transform="translate(-433.553 -212.122)" fill="#7c7cd3"></path></g></g></g><path id="Path_1228" data-name="Path 1228" d="M402.914,110.293H199.8a35.176,35.176,0,0,0-35.137,35.138V348.545A35.176,35.176,0,0,0,199.8,383.681H402.914a35.176,35.176,0,0,0,35.136-35.136V145.431a35.176,35.176,0,0,0-35.136-35.138" transform="translate(-35.736 -23.937)" fill="#29293d"></path><path id="Path_1229" data-name="Path 1229" d="M340.984,128.116H336.9V252.9H460.982v-4.086h-120Z" transform="translate(-73.117 -27.805)" fill="#f5f5f9"></path><path id="Path_1230" data-name="Path 1230" d="M431.543,125.079H341.715V248.244H464.187V157.725a32.647,32.647,0,0,0-32.644-32.646" transform="translate(-74.162 -27.146)" fill="#fff"></path><path id="Path_1231" data-name="Path 1231" d="M402.249,125.079H206.883a27.436,27.436,0,0,0-27.433,27.436V347.878a27.433,27.433,0,0,0,27.433,27.433H402.249a27.434,27.434,0,0,0,27.433-27.433V152.515a27.436,27.436,0,0,0-27.433-27.436M425.6,346.732a24.5,24.5,0,0,1-24.5,24.494H208.032a24.5,24.5,0,0,1-24.5-24.494V153.664a24.5,24.5,0,0,1,24.5-24.5H401.1a24.5,24.5,0,0,1,24.5,24.5Z" transform="translate(-38.946 -27.146)" fill="#14141f"></path><path id="Path_1232" data-name="Path 1232" d="M478.8,217.182c1.387,2.9,2.66,5.872,3.793,8.838l3.829-1.429c-1.177-3.083-2.5-6.17-3.952-9.2Z" transform="translate(-103.913 -46.747)" fill="#66c"></path><path id="Path_1233" data-name="Path 1233" d="M488.721,244.393c.815,3.089,1.513,6.24,2.076,9.395l4.03-.7c-.587-3.286-1.315-6.564-2.164-9.768Z" transform="translate(-106.067 -52.808)" fill="#66c"></path><path id="Path_1234" data-name="Path 1234" d="M493.435,273c.188,2.633.289,5.285.3,7.9l4.084.008c-.012-2.732-.121-5.493-.32-8.23Z" transform="translate(-107.09 -59.18)" fill="#e80"></path><path id="Path_1235" data-name="Path 1235" d="M447.688,167.6l-2.768,3c2.338,2.188,4.605,4.49,6.759,6.852l3.04-2.729c-2.233-2.455-4.594-4.846-7.032-7.124" transform="translate(-96.561 -36.374)" fill="#66c"></path><path id="Path_1236" data-name="Path 1236" d="M340.3,128.54c3.2.021,6.434.171,9.623.442l.376-4.067c-3.317-.286-6.672-.44-10-.461Z" transform="translate(-73.855 -27.01)" fill="#66c"></path><path id="Path_1237" data-name="Path 1237" d="M396.556,139.591c2.946,1.178,5.894,2.5,8.79,3.923l1.835-3.651c-2.971-1.472-6.037-2.841-9.133-4.078Z" transform="translate(-86.064 -29.469)" fill="#66c"></path><path id="Path_1238" data-name="Path 1238" d="M368.938,131.409c3.1.605,6.246,1.348,9.372,2.215l1.117-3.927c-3.216-.9-6.483-1.671-9.73-2.3Z" transform="translate(-80.07 -27.648)" fill="#66c"></path><path id="Path_1239" data-name="Path 1239" d="M422.171,152.813c2.682,1.706,5.334,3.55,7.908,5.493l2.483-3.249c-2.636-1.988-5.4-3.9-8.221-5.7Z" transform="translate(-91.624 -32.414)" fill="#66c"></path><path id="Path_1240" data-name="Path 1240" d="M464.018,192.3c1.891,2.569,3.7,5.248,5.377,7.98l3.5-2.114c-1.72-2.8-3.6-5.589-5.594-8.31Z" transform="translate(-100.706 -41.204)" fill="#66c"></path><path id="Path_1241" data-name="Path 1241" d="M304.563,370.6a121.031,121.031,0,0,1-.828-242.06v-4.086A125.116,125.116,0,1,0,429.678,250.39h-4.085A121.176,121.176,0,0,1,304.563,370.6" transform="translate(-38.946 -27.01)" fill="#14141f"></path><path id="Path_1242" data-name="Path 1242" d="M287.835,150.541,206.711,360.9h50.257l16.312-41.286h74.987L363.946,360.9h50.3l-80.9-210.36ZM291.2,272.493l19.61-50.181,19.5,50.181Z" transform="translate(-44.862 -32.672)" fill="#14141f"></path><path id="Path_1243" data-name="Path 1243" d="M293.244,156.88l-77.3,200.434H255.6l16.311-41.287h81.786l15.679,41.287h39.651L331.942,156.88Zm-7.31,121.949,26.893-68.807,26.735,68.807Z" transform="translate(-46.867 -34.048)" fill="#66c"></path><path id="Path_1244" data-name="Path 1244" d="M304.565,202.4l35.073-35.074H318.09Z" transform="translate(-66.1 -36.315)" fill="#7c7cd3"></path><path id="Path_1245" data-name="Path 1245" d="M360.066,243.979,365.4,257.7l15.8-15.808-5.287-13.752Z" transform="translate(-78.145 -49.512)" fill="#7c7cd3"></path><path id="Path_1246" data-name="Path 1246" d="M279.726,315.4l-36.072,36.071-11.954,31c12.222-12.22,61.055-61.054,61.055-61.054h-15.38Z" transform="translate(-50.285 -68.451)" fill="#7c7cd3"></path><path id="Path_1247" data-name="Path 1247" d="M360.1,280.367l11.665,30.024H330.075l-20.84,20.836h70.349l15.681,41.287h22.1L375.862,264.6Z" transform="translate(-67.113 -57.426)" fill="#7c7cd3"></path><g id="Group_160" data-name="Group 160" transform="translate(29.466 182.448)" opacity="0.5"><g id="Group_159" data-name="Group 159"><g id="Group_158" data-name="Group 158" clip-path="url(#clip-path-4)"><path id="Path_1248" data-name="Path 1248" d="M76.4,355.39C51.9,334.575,43.957,317.981,37.633,311.464c8.825,49.715,54.563,131.145,80.333,112.084,18.48-13.664-7.722-39.411-41.564-68.158" transform="translate(-37.634 -250.045)" fill="#5656c7"></path><path id="Path_1249" data-name="Path 1249" d="M142.922,346.761c.108-10.645-3.584-59.21-16.755-88.525,7.269,50.665-12.628,47.255-12.72,106.894-.029,18.044,11.13,48.11,21.388,49.583,9.723,1.4,11.843-11.263,13.758-15.412,5.2-11.254,12.34-90.37,8.9-98.075-8.354,13.145-13.314,43.117-14.566,45.534" transform="translate(-54.087 -238.493)" fill="#66c"></path><path id="Path_1250" data-name="Path 1250" d="M146.966,439.809c-.11,3.181,44.032,6.146,63.633-27.628,15.268-26.305,25.095-28.867,33.5-33.675-57.956.373-96.851,52.968-97.138,61.3" transform="translate(-61.362 -264.595)" fill="#4545c1"></path><path id="Path_1251" data-name="Path 1251" d="M170.971,355.015c-3.442,3.747-3.893,9-6.483,12.705-2.785,3.981-6.912,5.655-7.986,11.636-.5,2.793-.12,5.233-.731,7.743-.761,3.118-2.5,5.861-3.011,9.234-.362,2.356.051,4.718-.2,6.979-.709,6.348-12.206,15.3-4.963,22.195-1.186,5.277-.484,7.311,2.259,7.777,5.856,1,6.482-5.029,8.1-8.163,1.864-3.62,6.53-5.5,7.676-10.669.594-2.665-.521-6.063.113-8.478.478-1.81,2.331-2.581,3.525-4,3.07-3.638,3.822-8.247,4.2-12.836.222-2.708-1.282-7.265-.617-9.624,1.274-4.539,6.154-5.056,5.652-11.926-.151-2.082-1.535-4.765-1.2-6.823.314-1.909,1.9-3.27,2.866-5.056,2.684-4.953,1.281-10.709,1.964-16.082-4.362,4.749-6.887,10.738-11.154,15.386" transform="translate(-60.981 -256.157)" fill="#7171d0"></path><path id="Path_1252" data-name="Path 1252" d="M122.764,378.431c-5.677.264-12.372,6.229-15.63,12.452-.24-3.718-.367-7.449-.437-11.191,3.7-4.024,10.642-3.548,14.235-8.641,3.778-5.357-.862-10.618-6.626-7.084-2.777,1.7-5.742,6.864-7.652,11.077-.018-2.661-.049-6.359-.063-9.032q-.014-3.467-.128-6.917c4.348-3.265,14.194-3.9,14.573-11.575.262-5.379-5.326-8.6-9.207-3.9a38.708,38.708,0,0,0-5.6,10.141c-.245-4.28-.625-8.531-1.174-12.756,4.7-4.389,16.318-4.237,17.909-11.871,1.3-6.232-6.55-6.975-10.691-3.6-4.073,3.321-5.814,8.823-7.436,13.866-.442-3.143-.976-6.272-1.624-9.385,3.458-4.2,11.156-7.489,12.182-13.908,1-6.244-4.5-12.558-9.827-5.78-2.8,3.555-3.591,8.758-3.749,13.741q-1.311-5.129-2.985-10.148a42.429,42.429,0,0,1,3.145-7.023c1.651-2.87,4.2-5.725,3.587-9.151-1.047-5.906-5.364-2.465-7.1,1.607-1.25,2.949-1.41,6.514-1.227,10.017-1.364-3.713-3.571-9.317-5.2-12.91,1.472-6.266,15.575-19.32,4.587-19.129-5.208.091-6.4,10.472-6.009,16.591-.96-1.951-3.328-6.426-3.5-6.741,1.373-5.149,8.846-21.289,1.3-21.492-5.987-.163-5.082,9.752-4.182,14.59.114.612.232,1.507.395,2.47-1.683-2.916-3.458-5.826-5.34-8.684a27.921,27.921,0,0,0,2.791-7.185c.412-1.865,1.432-9.952-3.282-6.77-1.8,1.213-2.124,6.957-1.532,10.957q-2.08-2.987-4.327-5.837c-8.549-14.757-3.11-34.827-14.74-31.926-13.8,3.438-8.828,14.627-5.109,18.654A55.144,55.144,0,0,0,69.762,263.84c1.523,2.121,7.429,11.6,8.177,12.838-6.158-6.42-18.541-19.054-22.449-11.21-3.468,6.956,16.616,10.381,23.7,13.342,2.184,3.742,7.149,13.462,7.627,14.48-2.778-2.652-5.258-6.794-8.834-8.486-3.169-1.5-10.429-2.368-10.1,2.124.461,6.391,9.742,6.415,14.364,7.183,3.322.549,4.786,1.91,5.678,1.559q3.371,7.448,6.013,15.21c-4-6.041-15.34-18.753-19.7-11.026-5.617,9.952,13.4,8.577,20.17,12.417a163.329,163.329,0,0,1,4.455,16.111c.014.063.028.131.042.194-2.649-4.84-4.809-9.792-9.588-13.261-4.338-3.148-11.8-4.3-11.176,3.974.454,6.026,11.127,6.263,16.2,8.776,2.26,1.121,3.96,2.679,5.139,3.3a151.393,151.393,0,0,1,2.181,15.428c-9.108-6.674-17.255-27.5-23.964-17.148-5.913,9.126,14.559,9.3,24.124,18.963.386,4.723.592,9.475.679,14.254-1.3-3.785-3.517-7.172-5.607-10.557-1.571-2.545-9.579-9.717-12.534-3.62-2.912,6.016,8.107,9.976,11.471,11.559a15.5,15.5,0,0,1,6.715,5.978c.007.879-.029,11.772.055,16.354C99.843,374.9,79.543,347.4,73.515,363.821c-3.864,10.527,18.278,11.15,23.506,14.357,3.544,2.174,4.866,4.232,5.621,6.431.074,2.651.2,5.3.4,7.931-4.812-6.986-16.47-20.251-21.146-9.211-5.528,13.051,11.888,8.342,15.332,9.949,3,1.4,6.328,2.191,6.569,6.214a77.721,77.721,0,0,0,1.846,9.158c.578,2.151,3.973,1.109,3.551-1.061a123.357,123.357,0,0,1-1.763-12.762c4.807-3.4,15.985-4.314,19.167-7.353,4.427-4.233,2.4-9.331-3.835-9.046" transform="translate(-40.116 -233.02)" fill="#7c7cd3"></path></g></g></g><path id="Path_1253" data-name="Path 1253" d="M484.8,295.995c-5.653-3.182-29.9-7.489-32.985-7.94-4.121-.6-4.838,6.327-3.583,7.788,1.642,1.91,5.994,4.346,13.48,6.25,5.773,1.466,16.947,6.417,20.718,2.316,2.433-2.65,8.471-4.981,2.369-8.414" transform="translate(-97.157 -62.508)" fill="#fff"></path><path id="Path_1254" data-name="Path 1254" d="M473.042,301.578c-5.738-1.428-6.759-3.209-16.9-4.742-3.053-.463-8.872,0-7.8,1.25,1.642,1.91,7.944,4.385,13.48,5.882,9.771,2.644,14.99,5.306,18.505,2.249,2.2-1.914,1.174-2.532-7.292-4.641" transform="translate(-97.276 -64.384)" fill="#f5f5f9"></path><path id="Path_1255" data-name="Path 1255" d="M428.667,263.985A15.807,15.807,0,0,0,424.851,259c-.821-.749-2.333-1.981-3.1-2.65-.633-.551-1.491.879-.711,1.719-.524.168-1.081,1.419-.6,1.951a1.627,1.627,0,0,0-.294,2.047c-.694.631-.607,1.524.334,2.322,1,.852,1.961,2.094,4.624,4.454.443.388,1.15,1.351,1.543,1.724a37.6,37.6,0,0,1,4.118-4.416c-.457-.446-1.685-1.2-2.093-2.17" transform="translate(-91.084 -55.61)" fill="#e8d7b9" fill-rule="evenodd"></path><path id="Path_1256" data-name="Path 1256" d="M422.617,260.113c-.035,1.434-1,4.226-2.154,4.923a.125.125,0,0,1,0,.023A18.163,18.163,0,0,1,422,266.528a2.648,2.648,0,0,0,3.062.5,5.012,5.012,0,0,1,1.442-.4,1.508,1.508,0,0,0,.818-2.26c-1.12-2.08-4.69-5.059-4.708-4.254" transform="translate(-91.253 -56.423)" fill="#f0bf97" fill-rule="evenodd"></path><path id="Path_1257" data-name="Path 1257" d="M444.794,279.727c-3.628-2.907-13.456-12.9-13.456-12.9a59.585,59.585,0,0,0-5.284,5.935s11.831,13.263,16.2,17.743c6.615,6.788,10.478-.776,9.6-3.67-.809-2.663-4.761-5.266-7.059-7.109" transform="translate(-92.466 -57.91)" fill="#fff"></path><path id="Path_1258" data-name="Path 1258" d="M428.229,271.053c-.67.767-1.406,1.649-2.174,2.627,0,0,11.831,13.263,16.2,17.743,5.409,5.551,9.13,3.633,9.083-.144-4.334-3.376-9.485-5.525-15.536-11.066-1.991-1.824-5.487-7.776-7.572-9.16" transform="translate(-92.466 -58.826)" fill="#f5f5f9"></path><path id="Path_1259" data-name="Path 1259" d="M521.1,468.873c-.049-.346-6.812-2.266-6.952.009-.121,1.943.389,4.951-1.31,6.495-1.95,1.769-9.179,5.522-12.489,6.008-.168.489.4.9.893,1.066,2.448.828,5.113.467,7.68.2q4.466-.465,8.963-.513c1.333-.013,2.911-.131,3.588-1.279a4.652,4.652,0,0,0,.155-2.919c-.36-3.007-.1-6.068-.529-9.067" transform="translate(-108.585 -101.523)" fill="#e8d7b9"></path><path id="Path_1260" data-name="Path 1260" d="M523.666,468.909a9.269,9.269,0,0,0-3.3-.954c.108.214.225.418.317.641,2.672,6.481-3.064,11.505-8.549,14.037,2.765-.266,5.538-.429,8.315-.459,1.333-.013,2.911-.131,3.588-1.279a4.652,4.652,0,0,0,.155-2.919c-.36-3.007-.1-6.068-.529-9.067" transform="translate(-111.149 -101.56)" fill="#f0bf97"></path><path id="Path_1261" data-name="Path 1261" d="M521.112,478.967c-.834-.621-6.136,3.475-12.219,3.475,0-.8-.768-2.174-1.77-1.828-2.675.927-7.384,2.609-7.912,2.831-1.705.714-1.038,3.582-.028,3.582h9.443c1.8,0,4.667-1.653,7.56-1.653,3.234,0,4.19-.106,4.592-.288,3.059-1.374,1.874-4.973.334-6.119" transform="translate(-108.116 -103.936)" fill="#29293d"></path><path id="Path_1262" data-name="Path 1262" d="M515.935,483.81c-2.155.114-8.923.933-10.064,1.243a9.8,9.8,0,0,1-5.045.013,7.242,7.242,0,0,1-2.13-.973c-1.022,1.021-.4,3.236.486,3.236h9.443c1.8,0,4.667-1.653,7.56-1.653,3.234,0,4.19-.106,4.593-.287,2.411-1.085,2.173-3.534,1.216-5.091a7.292,7.292,0,0,1-6.059,3.512" transform="translate(-108.117 -104.239)" fill="#14141f"></path><path id="Path_1263" data-name="Path 1263" d="M519.8,488.224h5.94l1.494-3.8-7.023,2.021a3.429,3.429,0,0,1-.41,1.783" transform="translate(-112.812 -105.133)" fill="#14141f"></path><path id="Path_1264" data-name="Path 1264" d="M453.81,466.958c-.951,1.7-1.8,4.63-4,5.283-2.523.749-10.666,1-13.859,0-.365.369-.027.987.343,1.349,1.845,1.807,4.4,2.639,6.835,3.513q4.226,1.515,8.3,3.424c1.206.566,2.682,1.144,3.789.406a4.652,4.652,0,0,0,1.4-2.564c.981-2.865,2.545-5.511,3.458-8.4.106-.334-5.156-4.995-6.268-3.007" transform="translate(-94.581 -101.237)" fill="#e8d7b9"></path><path id="Path_1265" data-name="Path 1265" d="M459.722,468.013c.005.238.02.474.005.712-.4,7-7.748,9.038-13.79,8.942,2.607.957,5.175,2.015,7.69,3.192,1.206.566,2.682,1.144,3.789.406a4.659,4.659,0,0,0,1.4-2.564c.981-2.865,2.545-5.511,3.458-8.4a9.3,9.3,0,0,0-2.557-2.287" transform="translate(-96.782 -101.573)" fill="#f0bf97"></path><path id="Path_1266" data-name="Path 1266" d="M444.024,476.358c.351-.728.254-2.293-.8-2.418-2.81-.323-7.783-.85-8.354-.879-1.849-.1-2.489,2.777-1.581,3.215.755.364,5.719,2.755,8.51,4.1,1.621.781,4.92.536,7.527,1.791,2.913,1.4,3.821,1.719,4.262,1.73,3.353.087,3.844-3.665,2.955-5.368-.481-.919-7.036.472-12.518-2.166" transform="translate(-93.947 -102.668)" fill="#29293d"></path><path id="Path_1267" data-name="Path 1267" d="M449.9,480.4c-1.988-.833-8.44-3.032-9.6-3.251a9.792,9.792,0,0,1-4.551-2.175,7.159,7.159,0,0,1-1.5-1.8c-1.365.478-1.766,2.743-.967,3.127l8.511,4.1c1.62.781,4.92.536,7.527,1.791,2.913,1.4,3.822,1.719,4.262,1.73,2.644.069,3.493-2.239,3.3-4.059a7.314,7.314,0,0,1-6.986.54" transform="translate(-93.947 -102.693)" fill="#14141f"></path><path id="Path_1268" data-name="Path 1268" d="M451.725,485.592l5.352,2.575,3-2.778-7.2-1.228a3.431,3.431,0,0,1-1.143,1.431" transform="translate(-98.038 -105.077)" fill="#14141f"></path><path id="Path_1269" data-name="Path 1269" d="M476.893,354.279c-4.9,17.2-18.081,78.317-22.494,91.382,1.69,3.071,5.838,4.728,9.717,4.093,2.712-4.6,27.617-72.077,32.4-88.783.178-.626-14.429-6.175-19.62-6.693" transform="translate(-98.618 -76.889)" fill="#29293d"></path><path id="Path_1270" data-name="Path 1270" d="M488.64,358.232c-2.341,7.865-.06,17.463-5.724,23.8-3.52,3.941-3.638,9.861-3.629,15.136a22.13,22.13,0,0,1-3.31,11.9c-2.418,3.684-4.772,6.042-5.366,10.611-.58,4.442-2.563,10.7-3.523,15.108-1.71,7.86-7.151,6.533-10.3,13.891a10.218,10.218,0,0,0,7.845,1.937c2.712-4.6,27.617-72.077,32.4-88.783.093-.326-3.858-2-8.392-3.6" transform="translate(-99.137 -77.747)" fill="#14141f"></path><path id="Path_1271" data-name="Path 1271" d="M517.614,364.884c-4.072-.741-22.09-2.815-24.063.824-2.971,5.486,15.365,79.762,17.123,85.708a14.555,14.555,0,0,0,10.107-.451c-.571-15.514-3.436-27.8-3.931-41.252-.588-15.946,1.214-32.577.764-44.829" transform="translate(-107.045 -78.917)" fill="#29293d"></path><path id="Path_1272" data-name="Path 1272" d="M522.262,364.815c-1.331-.243-4.241-.882-7.618-1.511,1.328,1.81,1.244,12.068,1.184,13.028-.442,7.124,2.643,14.7,2.419,16.308-1.254,9.019.766,14.893.708,17.567-.063,3.014-1.542,8.584-.708,15.493.442,3.654,2.955,10.8,4.154,14.512.674,2.084-1.143,9.12-.81,11.714a15.485,15.485,0,0,0,3.839-1.03c-.571-15.514-3.436-27.8-3.931-41.252-.588-15.946,1.214-32.577.764-44.829" transform="translate(-111.693 -78.848)" fill="#14141f"></path><path id="Path_1273" data-name="Path 1273" d="M514.545,311.645c.119-7.9-4.585-18.206-16.715-18.206-5.088,0-14.226-.821-17.069,6.34-1.348,3.393-3.26,51.886-2.708,53.248,1.1,2.732,36.422,2.377,36.74.442.365-2.228-.381-33.008-.249-41.826" transform="translate(-103.731 -63.679)" fill="#fff"></path><path id="Path_1274" data-name="Path 1274" d="M485.245,332c-.792,4.089,4.883,4.419,6.706,3.793,2.383-.821,6.489-3.934,10.848-10.309,7.7-11.258,9.592-14.345,9.592-14.345L501.649,304s-15.612,23.91-16.4,28" transform="translate(-105.296 -65.978)" fill="#fff"></path><path id="Path_1275" data-name="Path 1275" d="M486.361,335.111c1.548,1.369,4.6,1.391,5.849.962,2.383-.821,6.488-3.934,10.847-10.309,7.7-11.258,9.592-14.345,9.592-14.345l-1.055-6.13c-2.08,8.521-15.27,24.035-25.234,29.822" transform="translate(-105.555 -66.257)" fill="#f5f5f9"></path><path id="Path_1276" data-name="Path 1276" d="M518.846,311.656c.119-7.906-4.585-18.209-16.715-18.209a22.641,22.641,0,0,0-4.359.543c8.474,3.228,16.89.882,16.89,15.181,0,2.89-3.856,12.588-3.856,15.49,0,5.081,4.212,7.492,2.343,10.45-2.522,4-4.656,3.071-5.641,6.013-1.232,3.681,3.128,2.985,4.655,6.244,1.729,3.694-5.671,3.678-7.263,7.583,7.5-.1,14.057-.633,14.2-1.474.365-2.228-.381-33.009-.249-41.822" transform="translate(-108.031 -63.687)" fill="#f5f5f9"></path><path id="Path_1277" data-name="Path 1277" d="M499.2,284.814c-.3,2.718-4.06,3.715-4.06,6.9,0,2.679,11.6,3.652,11.744-.2s.477-11.054.477-11.054-7.868,1.632-8.161,4.35" transform="translate(-107.461 -60.869)" fill="#f0bf97"></path><path id="Path_1278" data-name="Path 1278" d="M503.914,263.3a8.064,8.064,0,0,0-4.874-2.484,16.008,16.008,0,0,0-5.543.3,4.22,4.22,0,0,0-3.143,2.162c-1.829,3.7-2.3,7.91-2.746,12.015a12.274,12.274,0,0,0,.333,5.954c1.218,3,4.879,5.424,7.956,4.425,6.99-2.276,9.9-9.14,9.883-9.829-.06-2.165.234-4.331.152-6.5a9.62,9.62,0,0,0-2.018-6.045" transform="translate(-105.782 -56.576)" fill="#e8d7b9"></path><path id="Path_1279" data-name="Path 1279" d="M497.045,292.523l.082-.008-.082.008" transform="translate(-107.873 -63.484)" fill="#e8d7b9"></path><path id="Path_1280" data-name="Path 1280" d="M497.821,292.4l.03-.005h-.005a.084.084,0,0,0-.025.005" transform="translate(-108.042 -63.459)" fill="#e8d7b9"></path><path id="Path_1281" data-name="Path 1281" d="M501.68,261.452c-1.593-.277-6.25.392-7.3,4.992-.065.279-.388,2.559-.43,2.769-.231,1.236-2.644,3.593-2.875,5.134-.431,2.844.954,8.331,2.842,10.22a5.026,5.026,0,0,0,2.346,1.362c.138-.032.277-.059.413-.1,6.986-2.276,9.9-9.144,9.88-9.827-.066-2.169.229-4.342.157-6.5a9.682,9.682,0,0,0-2.023-6.049,5.547,5.547,0,0,0-3.012-1.993" transform="translate(-106.561 -56.731)" fill="#f0bf97"></path><path id="Path_1282" data-name="Path 1282" d="M499.551,258.407c-6.586-.9-9.222,3.414-11.016,3.837,4.879,3.6,12.566,1.751,12.438,2.965-.828,7.8,1.922,8.125,2.348,9.465a8.232,8.232,0,0,0,3.054,3.748c5.02-12.618.976-18.947-6.823-20.016" transform="translate(-106.026 -56.055)" fill="#29293d"></path><path id="Path_1283" data-name="Path 1283" d="M503.11,259.232a13.157,13.157,0,0,0-3.184-.826c-5.135-.7-7.865,1.759-9.671,3.084.091.064,6.377,2.593,12.477,1.471a1.948,1.948,0,0,0,.379-3.729" transform="translate(-106.399 -56.055)" fill="#14141f"></path><path id="Path_1284" data-name="Path 1284" d="M504.887,273.355c-2.72.906-5.511,4.591-1.744,6.292a3.612,3.612,0,0,0,3.569-.395A4.7,4.7,0,0,0,508.251,277a3.11,3.11,0,0,0-.447-3.286,2.959,2.959,0,0,0-2.917-.359" transform="translate(-108.8 -59.28)" fill="#e8d7b9"></path><path id="Path_1285" data-name="Path 1285" d="M504.1,276.308a3.581,3.581,0,0,1,1.192.816,6.612,6.612,0,0,1,.616,1.586s2.722-1.943,1.459-3.065-3.268.664-3.268.664" transform="translate(-109.404 -59.743)" fill="#f0bf97"></path><path id="Path_1286" data-name="Path 1286" d="M492.334,288.233c-.6-.759-1.946-.3-1.95,1.026a1.325,1.325,0,0,0-1.735,1.012,1.877,1.877,0,0,0-1.863,1.5c-1.086-.014-1.716.807-1.553,2.222.174,1.511.005,3.318.4,7.412.064.68-.256,7.044-.222,7.668a45.6,45.6,0,0,1,7.033-.954c-.035-.735-.381-6.863.038-8a18.192,18.192,0,0,0,.705-7.22c-.1-1.283-.2-3.84-.849-4.662" transform="translate(-105.304 -62.476)" fill="#e8d7b9" fill-rule="evenodd"></path><path id="Path_1287" data-name="Path 1287" d="M493.345,288.233c-.6-.759-1.946-.3-1.95,1.026a1.4,1.4,0,0,0-1.531.511,1.293,1.293,0,0,1,.946,1.632c-.5,1.884.694,6.756,1.043,10a44.059,44.059,0,0,1,.42,6.765,8.791,8.791,0,0,1,1.178-.051c-.035-.735-.381-6.863.038-8a18.192,18.192,0,0,0,.705-7.22c-.1-1.283-.2-3.84-.849-4.662" transform="translate(-106.315 -62.476)" fill="#f0bf97" fill-rule="evenodd"></path><path id="Path_1288" data-name="Path 1288" d="M492.254,287.366l-4.454-1.857a.82.82,0,0,0-1.075.442c-.174.419.506,1.264.925,1.437l3.97,1.5a.823.823,0,0,0,.633-1.519" transform="translate(-105.627 -61.95)" fill="#f0bf97" fill-rule="evenodd"></path><path id="Path_1289" data-name="Path 1289" d="M492.262,305.455a19.6,19.6,0,0,0-6.535.272.261.261,0,0,0-.205.2,7.291,7.291,0,0,0-.055,1.935.259.259,0,0,0,.327.221,16.022,16.022,0,0,1,6.442-.232.256.256,0,0,0,.306-.224,11.571,11.571,0,0,0-.053-1.943.263.263,0,0,0-.228-.234" transform="translate(-105.352 -66.257)" fill="#29293d" fill-rule="evenodd"></path><path id="Path_1290" data-name="Path 1290" d="M420.464,264.171a.627.627,0,1,0-.972.794s2.015,2.567,2.838,2.633c.22.016.568-.3.349-.571Z" transform="translate(-91.011 -57.283)" fill="#e8d7b9" fill-rule="evenodd"></path><path id="Path_1291" data-name="Path 1291" d="M418,252.593c-.345-.336-.827.11-.829.419,0,1.149,3.323,4.245,3.323,4.245A.873.873,0,0,0,421.706,256Z" transform="translate(-90.538 -54.794)" fill="#e8d7b9" fill-rule="evenodd"></path><path id="Path_1292" data-name="Path 1292" d="M421.832,259.379a.874.874,0,0,0-1.139,1.325s3.38,3.032,4.526,2.924c.308-.03.707-.55.343-.864Z" transform="translate(-91.237 -56.247)" fill="#e8d7b9" fill-rule="evenodd"></path><path id="Path_1293" data-name="Path 1293" d="M421.433,261.818a.8.8,0,1,0-1.039,1.2s3.083,2.764,4.127,2.665c.28-.024.644-.5.312-.786Z" transform="translate(-91.178 -56.78)" fill="#e8d7b9" fill-rule="evenodd"></path><path id="Path_1294" data-name="Path 1294" d="M484.967,310.712s-1.03,10.684-1.383,15.316a23.329,23.329,0,0,0,1.176,8.877c.951,2.871,9.678,4.96,9.235-4.508-.29-6.25-1.72-19.979-1.72-19.979a24,24,0,0,0-7.308.294" transform="translate(-104.94 -67.343)" fill="#fff"></path><path id="Path_1295" data-name="Path 1295" d="M493.193,310.419c-1.042-.09-1.979-.122-2.819-.122a4.29,4.29,0,0,1,.727,1.838c1.008,7.2,4.266,15.674-.338,22.313a6.247,6.247,0,0,1-3,2.376c2.854,1.246,7.48.532,7.154-6.426-.29-6.25-1.72-19.979-1.72-19.979" transform="translate(-105.858 -67.344)" fill="#f5f5f9"></path><path id="Path_1296" data-name="Path 1296" d="M490.142,303.971A2.128,2.128,0,1,0,492.369,306a2.127,2.127,0,0,0-2.227-2.026" transform="translate(-105.935 -65.97)" fill="#f5f5f9" fill-rule="evenodd"></path><path id="Path_1297" data-name="Path 1297" d="M490.326,304.69a1.563,1.563,0,1,0,1.636,1.489,1.565,1.565,0,0,0-1.636-1.489" transform="translate(-106.091 -66.126)" fill="#66c" fill-rule="evenodd"></path></g></g></g></svg> 