<?xml version="1.0" encoding="UTF-8"?> <svg xmlns="http://www.w3.org/2000/svg" viewBox="0 0 1040.8 608.5"><defs><style>.a{fill:#f5f5f9;}.b{fill:#7c7cd3;}.c{fill:#4545c1;}.d{fill:#7171d0;}.e{fill:#5656c7;}.f{fill:#4af6d1;}.g{fill:#7bc3f4;}.h{fill:#29293d;}.i,.q{fill:#14141f;}.j,.r{fill:#fff;}.k,.s{fill:#66c;}.l{fill:#143549;}.m,.o{fill:#e8d7b9;}.m,.n,.q,.r,.s{fill-rule:evenodd;}.n,.p{fill:#f0bf97;}</style></defs><path class="a" d="M777.48,505c7.71-2.51,11.85-5.16,11.85-7.91,0-15.88-138.33-28.75-309-28.75C187.62,468.29.5,514.42.5,546.09c0,39.31,133.14,62.41,595.57,62.41,170.64,0,388.81-12.87,388.81-28.76,0-10.65-62.25-19.94-154.74-24.91,126.91-5.15,210.66-14,210.66-24C1040.8,519.44,933.38,509.62,777.48,505Z"></path><path class="b" d="M799.55,245.45c-13,11.75-7.35,27.78-7.35,27.78s-6.46-3-17.44-4-22,23.25-22,23.25l7.15,32.92-14.16-6.38C729.86,429.13,785.57,513.2,785.57,513.2a56.81,56.81,0,0,0,5.81-20.47c1.87-26.58-20.37-44.27-18.85-92.61,3.62-114,65.28-74.55,72.55-119.52,6.63-41.1,28-73.7,29.15-75.43a.21.21,0,0,0,0-.07l0,0C845.69,220.69,812.56,233.7,799.55,245.45Z"></path><path class="c" d="M812.4,407c-11.74,12.64-57,90.33-16.62,90.33,13.68,0,39-33.42,57.71-56.81,16.21-20.28,40.65-17.24,40.65-17.24S837.3,380.19,812.4,407Z"></path><path class="d" d="M949.62,264.7c-27.35-1.5-45.29,25-45.29,25s1.48-11.71,13.35-25.93c-1.64.19-53.94,7.38-58,12.81s-12,27.2-12,27.2S839.84,288.52,841,284s-94.4,73.41-62.32,208c0,0,9.87-11.5,9.86-11.53-2.66-8.58-11.77-68.74,47.74-113.62,18.45-13.92,53.23-18.19,85-36.61s40.58-18.71,91.65-79l.15-.14S977,266.22,949.62,264.7Z"></path><path class="e" d="M606.77,436.71c-18.06,5.69-57.57,23.63-75,58.74,0,0,40.87-49.94,99.18-49.94,50.23,0,120.32,33.42,126.86,60.75l20.33-17.73S704.14,406.09,606.77,436.71Z"></path><path class="e" d="M765.49,359.29c-6.75,47.35,7.49,107.24,17.32,131.13,1.88-26.58-11.8-42-10.28-90.3,3.62-114,65.28-74.55,72.55-119.52,6.63-41.1,28-73.7,29.15-75.43C872.6,206.85,843.45,241.52,829,274,812.14,311.86,774,299.47,765.49,359.29Z"></path><path class="b" d="M620.57,466.15c-16.27,5.13-38.42,19.3-33.62,42.28-.64-5.15-.29-25.84,45.77-30.39,42.33-4.18,103.07,19,118.11,43.69H758l12-14S704.22,439.82,620.57,466.15Z"></path><path class="f" d="M587.16,509.6c-.1-.4-.13-.77-.21-1.17A10.69,10.69,0,0,0,587.16,509.6Z"></path><path class="b" d="M619.76,387.45s31.1-2.43,50.41,24.16c22.27,30.67,75.71,93.05,93,93.05,53,0-25-116.38-39.09-133.06C694.16,336.24,619.76,387.45,619.76,387.45Z"></path><path class="c" d="M766.7,521.73H824c-8.43-7.1-12.5-34.71,0-49.75C824,472,766.33,490.78,766.7,521.73Z"></path><path class="b" d="M909.46,472.45c-23-14.65-47.51-6.44-56-7.24-86.8-8.25-94,43.91-98.93,56.52h12.55c3.35-25.86,57.31-66.19,80.41-21.37,24.61,47.74,76.62,60.85,76.62,60.85s.13-.25.18-.38C942,524,937.44,490.28,909.46,472.45Z"></path><path class="e" d="M909.46,472.46c-23-14.66-47.79-9.58-56-7.25,20.79,1.73,45,14.38,53.41,26.72,19.11,28.11,21.32,48.69,17.42,68.9C942,524,937.44,490.28,909.46,472.46Z"></path><path class="d" d="M894.13,389.45C870.2,378,857.43,391,857.43,391c-28.1-9.89-48.68,20-48.68,20s33.35-10.07,48.35,13.23,45.64,31,45.64,31C918.9,432.66,918.06,400.94,894.13,389.45Z"></path><path class="e" d="M894.13,389.45C870.2,378,857.43,391,857.43,391s28.4.05,45.31,64.19C918.9,432.66,918.06,400.94,894.13,389.45Z"></path><path class="g" d="M668.07,348.78s-15.39-17.28-46.32-4.14S587.9,397.86,607,427.32c0,0,39.22-7.9,59.54-36.53s61.91-13.91,61.91-13.91S703.71,334,668.07,348.78Z"></path><path class="e" d="M621.75,344.64c-30.94,13.15-33.85,53.22-14.72,82.68,25.12-80.13,61-78.54,61-78.54S652.68,331.5,621.75,344.64Z"></path><path class="e" d="M790.9,429c6.18-19.95,19.15-42.65,45.41-62.15,18.57-13.77,53.23-18.19,85-36.61s40.58-18.71,91.65-79c-2.95,2.89-51,49.41-100.3,53.45C866.73,308.44,790.9,333.53,790.9,429Z"></path><path class="b" d="M207.55,358.41l5.86-27s-9-19.81-18-19.05-14.31,3.24-14.31,3.24,4.65-13.15-6-22.78-37.83-20.3-61.24-33.06h0s0,0,0,.05c.93,1.42,18.46,28.15,23.9,61.84,6,36.86,56.5,4.51,59.47,98,1.25,39.63-17,54.13-15.45,75.92a46.51,46.51,0,0,0,4.76,16.78s45.67-68.92,32.65-159.15Z"></path><path class="c" d="M97.51,438.62s20-2.49,33.31,14.14c15.32,19.17,36.11,46.57,47.32,46.57,33.14,0-4-63.69-13.63-74.05C144.1,403.29,97.51,438.62,97.51,438.62Z"></path><path class="d" d="M141,324.44c1,3.7-5.46,16.22-5.46,16.22s-6.49-17.77-9.86-22.29S79.55,308,78.21,307.86c9.73,11.66,10.94,21.26,10.94,21.26S74.44,307.38,52,308.61,0,297.46,0,297.46l.12.12C42,347,49.27,347.26,75.25,362.33s54.53,18.61,69.66,30c48.78,36.8,41.32,86.11,39.14,93.14,0,0,8.08,9.46,8.08,9.46C218.43,384.62,140.07,320.77,141,324.44Z"></path><path class="e" d="M333.09,449.63c-79.83-25.11-140.46,42.48-140.46,42.48l16.66,14.53c5.36-22.4,62.82-49.8,104-49.8,47.8,0,81.31,40.94,81.31,40.94C380.29,469,347.88,454.29,333.09,449.63Z"></path><path class="e" d="M150.93,316.26c-11.87-26.65-35.76-55.07-37.1-56.45.93,1.42,18.46,28.15,23.9,61.84,6,36.86,56.5,4.51,59.47,98,1.25,39.63-10,52.23-8.43,74,8.06-19.58,19.74-68.67,14.2-107.49C196,337.12,164.72,347.27,150.93,316.26Z"></path><path class="b" d="M321.77,473.76c-68.57-21.59-122.52,34.07-122.52,34.07l9.83,11.49H215c12.33-20.25,62.13-39.24,96.82-35.81,37.76,3.73,38.05,20.68,37.52,24.91C353.27,489.59,335.11,478,321.77,473.76Z"></path><path class="f" d="M349.33,508.42c-.07.32-.09.63-.17,1A8.92,8.92,0,0,0,349.33,508.42Z"></path><path class="b" d="M236.9,396.25c-11.57,13.67-75.48,109.08-32,109.08,14.19,0,58-51.14,76.25-76.28,15.84-21.81,41.32-19.81,41.32-19.81S261.45,367.25,236.9,396.25Z"></path><path class="c" d="M155,478.54c10.24,12.33,6.91,35,0,40.78h47C202.28,494,155,478.54,155,478.54Z"></path><path class="b" d="M130.82,473c-6.93.66-27-6.07-45.87,5.95-23,14.61-26.67,42.21-12.19,72.45a3,3,0,0,1,.15.31s42.64-10.75,62.81-49.89c18.94-36.74,63.17-3.68,65.92,17.52h10.29C207.87,509,202,466.23,130.82,473Z"></path><path class="e" d="M85,478.93c-23,14.61-26.67,42.21-12.19,72.45-3.19-16.57-1.38-33.45,14.28-56.49,6.89-10.12,26.75-20.48,43.78-21.91C124.13,471.08,103.84,466.91,85,478.93Z"></path><path class="d" d="M127.6,412.18s-10.47-10.72-30.09-1.3S77.2,446.3,90.46,464.8c0,0,25.12-6.29,37.42-25.4s39.63-10.85,39.63-10.85S150.63,404.07,127.6,412.18Z"></path><path class="e" d="M97.51,410.88C77.89,420.3,77.2,446.3,90.46,464.8c13.86-52.58,37.14-52.62,37.14-52.62S117.13,401.46,97.51,410.88Z"></path><path class="d" d="M320.81,374.15c-25.36-10.78-38,3.39-38,3.39-29.22-12.14-49.52,23-49.52,23s34.1-12,50.76,11.41,48.8,29.95,48.8,29.95C348.56,417.77,346.17,384.92,320.81,374.15Z"></path><path class="e" d="M320.81,374.15c-25.36-10.78-38,3.39-38,3.39s29.45-1.3,50,64.39C348.56,417.77,346.17,384.92,320.81,374.15Z"></path><path class="e" d="M82.35,341.4C42,338.08,2.54,300,.12,297.58,42,347,49.27,347.26,75.25,362.33s54.44,18.73,69.66,30c21.53,16,32.17,34.6,37.23,51C182.14,365,120,344.47,82.35,341.4Z"></path><path class="h" d="M388.27,511.91a8.89,8.89,0,0,0,8.89,8.89H497.81V503H397.16A8.89,8.89,0,0,0,388.27,511.91Z"></path><path class="h" d="M548.19,423H446.63l-3.27,33.86a17.23,17.23,0,0,0,5,13.85L480.58,503H579L546.89,464.3Z"></path><polygon class="h" points="445.2 437.83 547.73 437.83 548.19 422.99 446.63 422.99 445.2 437.83"></polygon><path class="i" d="M557.84,458.13,561.43,423H543.57l-3.27,33.86a17.2,17.2,0,0,0,5,13.85L577.58,503H494.1a8.89,8.89,0,0,0,0,17.78h84.79a17.22,17.22,0,0,0,16.89-13.74,17.88,17.88,0,0,0-5.22-16.21Z"></path><path class="i" d="M752.44,71.58h-458A29.73,29.73,0,0,0,264.8,98.73L239.29,391a29.73,29.73,0,0,0,29.62,32.31h458a29.73,29.73,0,0,0,29.62-27.14L782.06,103.9A29.73,29.73,0,0,0,752.44,71.58Z"></path><path class="h" d="M740.93,71.56h-458A29.63,29.63,0,0,0,253.8,95.69c-.21,1-.35,2-.47,3.06L227.8,391a29.72,29.72,0,0,0,29.65,32.31h458a29.74,29.74,0,0,0,29.65-27.17l25.5-292.24A29.78,29.78,0,0,0,740.93,71.56Z"></path><path class="j" d="M741,89.38h-458A11.84,11.84,0,0,0,271,100.27l-1.52,17.27-24,275a12,12,0,0,0,11.93,13h458a11.84,11.84,0,0,0,11.87-10.89l24.22-277.09,1.31-15.17a12,12,0,0,0-11.92-13Z"></path><path class="a" d="M741,89.38h-458A11.84,11.84,0,0,0,271,100.27l-1.52,17.27h482l1.31-15.17a12,12,0,0,0-11.92-13Z"></path><polygon class="j" points="377.64 110.8 648.03 110.8 649.55 96.12 379.16 96.12 377.64 110.8"></polygon><path class="k" d="M283.51,98.93a1.05,1.05,0,0,0-1.55,1.42l9.22,10.11a1.06,1.06,0,0,0,1.55-1.43Z"></path><path class="k" d="M292.19,98.93l-11,10.1a1,1,0,0,0-.12,1.43,1,1,0,0,0,1.42,0l11-10.11a1,1,0,1,0-1.3-1.42Z"></path><path class="k" d="M308,97.88a7.58,7.58,0,0,0-7.4,6.81,6.14,6.14,0,0,0,6.21,6.81,7.59,7.59,0,0,0,7.41-6.81A6.15,6.15,0,0,0,308,97.88ZM307,110a4.76,4.76,0,0,1-4.81-5.27,5.86,5.86,0,0,1,5.73-5.26,4.75,4.75,0,0,1,4.8,5.26A5.86,5.86,0,0,1,307,110Z"></path><path class="k" d="M333.26,108.88H321a.84.84,0,0,0-.83.77.69.69,0,0,0,.7.77h12.28a.84.84,0,0,0,.83-.77A.69.69,0,0,0,333.26,108.88Z"></path><path class="j" d="M730.93,108.44H718.65a.86.86,0,0,0-.84.77.69.69,0,0,0,.71.77h12.27a.85.85,0,0,0,.84-.77A.7.7,0,0,0,730.93,108.44Z"></path><path class="j" d="M731.32,103.92H719a.86.86,0,0,0-.83.77.69.69,0,0,0,.7.77h12.28a.84.84,0,0,0,.83-.77A.69.69,0,0,0,731.32,103.92Z"></path><path class="j" d="M731.72,99.4H719.44a.86.86,0,0,0-.84.77.71.71,0,0,0,.71.78h12.27a.86.86,0,0,0,.84-.78A.7.7,0,0,0,731.72,99.4Z"></path><path class="a" d="M616.08,200.53l-92.57-129H442.59L427.75,82.08a23.38,23.38,0,0,0-5.2,32.8L528,261.87,353.73,216.16a23.09,23.09,0,0,0-28.48,16.76L310.7,292a23.53,23.53,0,0,0,1.08,14.43A23,23,0,0,0,308,319.48l1.08,61.08a24,24,0,0,0,24,23.54H646a53.24,53.24,0,0,0,53.57-18.61c.21-.2.38-.43.59-.66s.47-.62.7-.94A53.2,53.2,0,0,0,711.72,356l23.95-284.4H626.94Z"></path><path class="a" d="M698.9,6.3,638,.12a23.07,23.07,0,0,0-25.45,21.05L585.29,345a55.21,55.21,0,0,0,49.37,59.28A53,53,0,0,0,693.11,356L720.4,32.12A24.06,24.06,0,0,0,698.9,6.3Z"></path><path class="b" d="M698.9,6.3,638,.12a23.07,23.07,0,0,0-25.45,21.05L589.47,295.42l107.81,10.95L720.4,32.12A24.06,24.06,0,0,0,698.9,6.3Z"></path><path class="l" d="M640.25,338a17.93,17.93,0,0,0-19.77,16.36,18.69,18.69,0,0,0,16.7,20.06A17.94,17.94,0,0,0,657,358.07,18.69,18.69,0,0,0,640.25,338Z"></path><path class="a" d="M491.48,52.83A23.72,23.72,0,0,0,458.58,47l-49.43,35a23.39,23.39,0,0,0-5.21,32.79L595.28,381.52c17.56,24.47,51.39,30.42,75.56,13.29s29.54-50.86,12-75.33Z"></path><path class="d" d="M458.58,47l-49.43,35a23.39,23.39,0,0,0-5.21,32.79L566,340.7l87.53-62-162-225.83A23.72,23.72,0,0,0,458.58,47Z"></path><path class="l" d="M631.69,340.24a18.17,18.17,0,0,0-4.05,25.48,18.42,18.42,0,0,0,25.56,4.5,18.17,18.17,0,0,0,4-25.48A18.43,18.43,0,0,0,631.69,340.24Z"></path><path class="a" d="M651.33,299.11l-316.2-83a23.13,23.13,0,0,0-28.48,16.78L292.11,292a24,24,0,0,0,17.27,28.77l316.21,82.95A53.1,53.1,0,0,0,691,365.19C698.11,336.31,680.35,306.72,651.33,299.11Z"></path><path class="k" d="M306.65,232.93,292.11,292a24,24,0,0,0,17.27,28.77L577.18,391l25.74-104.61L335.13,216.15A23.13,23.13,0,0,0,306.65,232.93Z"></path><path class="l" d="M648.43,335.19a18,18,0,0,0-22.13,13,18.64,18.64,0,0,0,13.41,22.36,18,18,0,0,0,22.14-13A18.65,18.65,0,0,0,648.43,335.19Z"></path><path class="j" d="M638.08,295.92H312.58a23.07,23.07,0,0,0-23.14,23.55l1.07,61.08a24.06,24.06,0,0,0,24,23.55H640A53,53,0,0,0,693.12,350,55.24,55.24,0,0,0,638.08,295.92Z"></path><path class="e" d="M312.58,295.92a23.07,23.07,0,0,0-23.14,23.55l1.07,61.08a24.06,24.06,0,0,0,24,23.55H590.14l-1.89-108.18Z"></path><path class="i" d="M644.48,331.71a17.93,17.93,0,0,0-18,18.3,18.69,18.69,0,0,0,18.62,18.29,17.91,17.91,0,0,0,18-18.29A18.69,18.69,0,0,0,644.48,331.71Z"></path><path class="j" d="M797.4,295.3c-10-5.62-52.81-13.22-58.25-14-7.28-1.06-8.55,11.18-6.33,13.76,2.9,3.38,10.58,7.67,23.81,11,10.19,2.59,29.92,11.34,36.58,4.09C797.51,305.49,808.18,301.37,797.4,295.3Z"></path><path class="a" d="M769.71,298.93c-10.14-2.52-14.12-10.71-24.29-6.2-5,2.21-14.5.75-12.6,3,2.9,3.37,14,7.74,23.81,10.38,17.25,4.67,26.47,9.38,32.68,4C793.19,306.67,784.66,302.66,769.71,298.93Z"></path><path class="m" d="M709,251a28,28,0,0,0-6.74-8.8c-1.46-1.32-4.12-3.49-5.48-4.68-1.12-1-2.63,1.55-1.26,3-.92.29-1.91,2.5-1.06,3.44a2.88,2.88,0,0,0-.52,3.62c-1.23,1.11-1.07,2.69.59,4.1s3.46,3.7,8.16,7.86c.79.69,2,2.39,2.73,3a66.63,66.63,0,0,1,7.27-7.8C711.89,254,709.72,252.67,709,251Z"></path><path class="n" d="M698,242.69c-.06,2.52-1.75,7.46-3.8,8.68v0a30.54,30.54,0,0,1,2.72,2.59,4.68,4.68,0,0,0,5.41.89,8.34,8.34,0,0,1,2.54-.71c1.66-.25,2.29-2.42,1.45-4C704.35,246.52,698.05,241.26,698,242.69Z"></path><path class="j" d="M735,274.7c-6.4-5.14-23.76-22.78-23.76-22.78a105.38,105.38,0,0,0-9.33,10.48s20.89,23.42,28.61,31.33c11.68,12,18.5-1.36,17-6.47C746.07,282.55,739.09,278,735,274.7Z"></path><path class="a" d="M705.78,257.76c-1.18,1.35-2.48,2.91-3.84,4.64,0,0,20.89,23.42,28.61,31.33,9.55,9.81,17.26,4.88,17.17-1.79-7.65-6-17.88-8.22-28.57-18C715.64,270.72,709.46,260.2,705.78,257.76Z"></path><path class="o" d="M840.11,552.16c-.08-.61-12-4-12.27,0-.22,3.43.68,8.74-2.32,11.47-3.44,3.12-16.21,9.75-22,10.61-.3.86.71,1.59,1.58,1.88,4.31,1.47,9,.83,13.56.36q7.89-.82,15.83-.91c2.35,0,5.14-.23,6.33-2.26.89-1.51.49-3.41.28-5.15C840.41,562.87,840.87,557.46,840.11,552.16Z"></path><path class="p" d="M840.11,552.16c0-.29-2.88-1.24-5.82-1.68.19.37.4.74.56,1.13,4.72,11.44-5.41,20.32-15.1,24.79,4.88-.47,9.78-.76,14.69-.81,2.35,0,5.14-.23,6.33-2.26.89-1.51.49-3.41.28-5.15C840.41,562.87,840.87,557.46,840.11,552.16Z"></path><path class="h" d="M841,565.73c-1.47-1.09-10.83,6.14-21.57,6.14,0-1.43-1.36-3.85-3.13-3.23-4.73,1.64-13,4.61-14,5-3,1.26-1.83,6.33,0,6.33h16.68c3.17,0,8.23-2.92,13.35-2.92,5.71,0,7.4-.19,8.11-.51C845.77,574.11,843.68,567.76,841,565.73Z"></path><path class="i" d="M831.81,573.75c-3.8.2-15.75,1.65-17.77,2.19a17.36,17.36,0,0,1-8.91,0,13.06,13.06,0,0,1-3.76-1.72c-1.81,1.8-.71,5.72.86,5.72h16.68c3.17,0,8.23-2.92,13.35-2.92,5.71,0,7.4-.2,8.11-.51,4.25-1.92,3.83-6.24,2.14-9A12.88,12.88,0,0,1,831.81,573.75Z"></path><path class="i" d="M830.35,580h10.49l2.64-6.72-12.41,3.57A6.08,6.08,0,0,1,830.35,580Z"></path><path class="o" d="M745.52,549.29c-1.68,3-3.17,8.18-7.06,9.33-4.46,1.32-18.84,1.76-24.47,0-.65.65,0,1.75.6,2.38,3.26,3.2,7.78,4.66,12.07,6.21q7.47,2.67,14.65,6c2.13,1,4.74,2,6.69.71,1.46-1,1.92-2.86,2.49-4.52,1.72-5.06,4.49-9.74,6.1-14.84C756.78,554,747.49,545.78,745.52,549.29Z"></path><path class="p" d="M752.08,550.56c0,.42,0,.83,0,1.26-.72,12.36-13.69,16-24.36,15.79,4.6,1.69,9.14,3.56,13.58,5.64,2.13,1,4.74,2,6.69.71,1.46-1,1.92-2.86,2.49-4.52,1.72-5.06,4.49-9.74,6.1-14.84C756.68,554.31,754.53,552.23,752.08,550.56Z"></path><path class="h" d="M729.36,563.36c.61-1.28.44-4.05-1.42-4.26-5-.58-13.75-1.51-14.75-1.56-3.27-.17-4.4,4.91-2.79,5.68l15,7.23c2.86,1.38,8.69.95,13.3,3.17,5.14,2.47,6.75,3,7.52,3,5.93.16,6.8-6.47,5.22-9.48C750.62,565.56,739,568,729.36,563.36Z"></path><path class="i" d="M739.75,570.45c-3.51-1.47-14.91-5.35-17-5.73a17.4,17.4,0,0,1-8-3.85,12.88,12.88,0,0,1-2.64-3.17c-2.41.83-3.12,4.84-1.7,5.52l15,7.23c2.86,1.38,8.69.95,13.3,3.17,5.14,2.47,6.75,3,7.52,3,4.67.12,6.17-4,5.84-7.17A12.87,12.87,0,0,1,739.75,570.45Z"></path><path class="i" d="M735.73,575.41l9.46,4.56,5.29-4.91-12.73-2.17A6,6,0,0,1,735.73,575.41Z"></path><path class="h" d="M779.16,381.89c-8.65,32.43-31.93,147.63-39.73,172.26,3,5.79,10.31,8.91,17.16,7.72,4.79-8.67,48.78-135.87,57.22-167.36C814.12,393.33,788.33,382.86,779.16,381.89Z"></path><path class="i" d="M799,387.73c-4.14,14.82-.11,32.91-10.11,44.86-6.22,7.42-6.43,18.58-6.41,28.52,0,7.57-1.83,15.9-5.85,22.44-4.27,6.94-8.43,11.38-9.48,20-1,8.38-4.52,20.16-6.22,28.48-3,14.81-12.63,12.32-18.18,26.18a17.2,17.2,0,0,0,13.85,3.66c4.79-8.67,48.78-135.87,57.22-167.36C814,393.89,807,390.73,799,387.73Z"></path><path class="h" d="M836.19,390.89c-7.19-1.45-39-5.53-42.5,1.63-5.24,10.78,27.14,156.9,30.24,168.59,6.24,2.71,14.37,1,17.86-.88-1-30.52-6.07-54.7-6.95-81.15C833.81,447.71,837,415,836.19,390.89Z"></path><path class="i" d="M836.19,390.89c-2.35-.47-7.49-1.73-13.46-3,2.35,3.57,2.2,23.74,2.1,25.63-.78,14,4.67,28.91,4.27,32.08-2.22,17.74,1.35,29.3,1.25,34.56-.12,5.93-2.72,16.89-1.25,30.47.78,7.19,5.22,21.25,7.34,28.55,1.18,4.1-2,17.68-1.42,22.78a70,70,0,0,0,6.77-1.76c-1-30.52-6.07-54.7-6.95-81.15C833.81,447.71,837,415,836.19,390.89Z"></path><path class="j" d="M812.33,286.93c-10,0-34.06.89-35.71,18.17-.67,7-3.69,87-2.75,89.21,1.9,4.34,64.24,3.79,65,.63.92-3.66,3.16-57.32,4.53-73.81C844.69,305.88,837.81,286.93,812.33,286.93Z"></path><path class="j" d="M783.82,352.77c-1.4,7.22,8.62,7.8,11.84,6.69,4.21-1.45,11.46-6.94,19.16-18.2,13.6-19.88,16.94-25.33,16.94-25.33l-19-12.61S785.22,345.55,783.82,352.77Z"></path><path class="a" d="M785.33,357.77c2.73,2.41,8.13,2.45,10.33,1.69,4.21-1.45,11.46-6.94,19.16-18.2,13.6-19.88,16.94-25.33,16.94-25.33L829.9,305.1C826.22,320.15,802.93,347.55,785.33,357.77Z"></path><path class="a" d="M812.33,286.93a45.27,45.27,0,0,0-8.61,1.49c16.44,5.64,33.7,10.19,31.8,28.25-.58,5.5-8.76,23.69-9,28.94-.47,9.07,6.35,9.06,2.55,14.29-5,7-6.36,4.63-8.4,9.67-2.52,6.21,9.23,7.94,6.26,15.32-3.29,8.22-10.54,6.12-13.65,12.47,13.4-.17,25.31-1,25.65-2.42.92-3.66,3.16-57.32,4.53-73.81C844.69,305.88,836.55,285.77,812.33,286.93Z"></path><path class="p" d="M807.57,275.54c-.52,4.8-7.17,6.55-7.17,12.19,0,4.73,20.49,6.44,20.74-.35s.84-19.53.84-19.53S808.09,270.73,807.57,275.54Z"></path><path class="o" d="M818.85,245.11a14.22,14.22,0,0,0-8.61-4.38,28.08,28.08,0,0,0-9.79.52,7.49,7.49,0,0,0-5.55,3.83c-3.23,6.54-4.06,14-4.85,21.22-.38,3.52-.74,7.23.59,10.51,2.15,5.3,8.62,9.58,14.05,7.81,12.35-4,17.49-16.14,17.46-17.35-.11-3.83.41-7.66.26-11.48S821.37,248,818.85,245.11Z"></path><path class="o" d="M800.11,287.45l.14,0Z"></path><path class="o" d="M801.18,287.28h0Z"></path><path class="p" d="M813.53,241.58c-2.82-.49-11,.69-12.89,8.82-.11.49-.68,4.52-.76,4.89-.4,2.18-4.67,6.34-5.07,9.07-.76,5,1.68,14.71,5,18a8.8,8.8,0,0,0,4.14,2.41l.72-.18c12.34-4,17.49-16.16,17.46-17.36-.12-3.83.4-7.66.27-11.48s-1-7.8-3.57-10.69A9.87,9.87,0,0,0,813.53,241.58Z"></path><path class="i" d="M810.72,237.4c-11.64-1.6-16.29,6-19.46,6.78,8.62,6.35,22.19,3.09,22,5.23-1.46,13.77,3.4,14.35,4.15,16.72,1,3,4.49,6.29,5.4,6.61C831.63,250.47,824.49,239.29,810.72,237.4Z"></path><path class="h" d="M816.34,238.85a23.62,23.62,0,0,0-5.62-1.45c-9.08-1.24-13.89,3.11-17.08,5.45.16.11,11.26,4.57,22,2.59A3.44,3.44,0,0,0,816.34,238.85Z"></path><path class="o" d="M815.24,258.1c-4.8,1.6-9.74,8.12-3.08,11.11a6.34,6.34,0,0,0,6.3-.69,8.32,8.32,0,0,0,2.72-4c.68-2,.73-4.4-.79-5.8C819.06,257.51,817,257.53,815.24,258.1Z"></path><path class="p" d="M812.78,262.5a6.29,6.29,0,0,1,2.11,1.44,11.86,11.86,0,0,1,1.09,2.81s4.8-3.44,2.57-5.42S812.78,262.5,812.78,262.5Z"></path><path class="m" d="M796.32,281.65c-1.06-1.34-3.43-.51-3.44,1.82-1-.48-3,.33-3.07,1.78a3.33,3.33,0,0,0-3.29,2.65c-1.92,0-3,1.43-2.74,3.93.31,2.66,0,5.86.7,13.09.11,1.2-.45,12.44-.39,13.54,2.39-.54,10.1-1.81,12.42-1.69-.06-1.3-.68-12.12.06-14.13,1.42-3.88,1.56-8.93,1.25-12.75C797.64,287.62,797.47,283.11,796.32,281.65Z"></path><path class="n" d="M796.32,281.65c-1.06-1.34-3.43-.51-3.44,1.82a2.46,2.46,0,0,0-2.71.9,2.28,2.28,0,0,1,1.67,2.89c-.89,3.32,1.23,11.92,1.84,17.66a77.13,77.13,0,0,1,.75,11.94,16.92,16.92,0,0,1,2.08-.09c-.06-1.3-.68-12.12.06-14.13,1.42-3.88,1.56-8.93,1.25-12.75C797.64,287.62,797.47,283.1,796.32,281.65Z"></path><path class="n" d="M795.61,281.06l-7.87-3.28a1.42,1.42,0,0,0-1.89.77c-.31.74.89,2.23,1.63,2.54l7,2.64a1.45,1.45,0,1,0,1.12-2.67Z"></path><path class="q" d="M796.11,305.39a34.63,34.63,0,0,0-11.54.48.47.47,0,0,0-.36.36,12.66,12.66,0,0,0-.1,3.42.46.46,0,0,0,.58.39,28,28,0,0,1,11.37-.4.47.47,0,0,0,.55-.4,19.15,19.15,0,0,0-.1-3.43A.46.46,0,0,0,796.11,305.39Z"></path><path class="m" d="M694.64,248.33a1.11,1.11,0,1,0-1.72,1.4s3.56,4.53,5,4.65c.39,0,1-.52.62-1Z"></path><path class="m" d="M691.12,232.28c-.61-.59-1.46.19-1.46.74,0,2,5.86,7.5,5.86,7.5a1.55,1.55,0,0,0,2.15-2.22Z"></path><path class="m" d="M696.65,241.7a1.54,1.54,0,0,0-2,2.34s6,5.35,8,5.16c.54,0,1.25-1,.6-1.53Z"></path><path class="m" d="M696.06,245.06a1.41,1.41,0,1,0-1.84,2.13s5.44,4.89,7.29,4.71c.49-.05,1.14-.88.55-1.39Z"></path><path class="j" d="M784,312.76s-1.83,18.87-2.45,27.05a41.36,41.36,0,0,0,2.08,15.68c1.68,5.07,17.09,8.76,16.31-8-.51-11-3-35.28-3-35.28C788.76,311.53,784,312.76,784,312.76Z"></path><path class="a" d="M796.86,312.24c-1.84-.16-3.49-.22-5-.21a7.62,7.62,0,0,1,1.28,3.24c1.77,12.71,7.53,27.68-.6,39.41a11,11,0,0,1-5.3,4.19c5,2.2,13.21.95,12.63-11.35C799.39,336.49,796.86,312.24,796.86,312.24Z"></path><path class="r" d="M791.34,303.28a3.76,3.76,0,1,0,3.93,3.57A3.75,3.75,0,0,0,791.34,303.28Z"></path><path class="s" d="M791.39,304.27a2.76,2.76,0,1,0,2.88,2.63A2.76,2.76,0,0,0,791.39,304.27Z"></path></svg> 